<svg xmlns="http://www.w3.org/2000/svg" width="24" height="24" viewBox="0 0 24 24" fill="none">
  <g clip-path="url(#clip0_2070_48266)">
    <path d="M22.6795 1.32019C21.7996 0.440118 20.7395 0 19.5001 0H4.49997C3.2605 0 2.20043 0.440118 1.32019 1.32019C0.440119 2.20043 0 3.26045 0 4.49997V19.4999C0 20.7393 0.440119 21.7994 1.32019 22.6797C2.20043 23.5599 3.2605 24 4.49997 24H19.4999C20.7394 24 21.7995 23.5599 22.6793 22.6797C23.5596 21.7994 23.9997 20.7394 23.9997 19.4999V4.49997C23.9996 3.26045 23.5595 2.20026 22.6795 1.32019ZM18.3593 9.23444C18.3698 9.32819 18.3751 9.46857 18.3751 9.65639C18.3751 10.5314 18.2474 11.409 17.9923 12.289C17.7372 13.1694 17.3465 14.0131 16.8202 14.8204C16.2945 15.6275 15.6669 16.3413 14.9378 16.961C14.2086 17.5806 13.3337 18.0756 12.3127 18.4451C11.2921 18.8151 10.1981 19.0002 9.03158 19.0002C7.21922 19.0002 5.54215 18.5103 4.00042 17.5315C4.25041 17.5626 4.51097 17.5783 4.78165 17.5783C6.29214 17.5783 7.65151 17.1096 8.8599 16.1718C8.15167 16.1617 7.51874 15.9431 6.96151 15.5156C6.40411 15.0885 6.0162 14.547 5.7974 13.8907C6.06814 13.9323 6.27123 13.9529 6.40663 13.9529C6.63577 13.9529 6.90147 13.9113 7.20346 13.8282C6.44307 13.6821 5.80254 13.3049 5.2817 12.6955C4.76075 12.086 4.50036 11.3908 4.50036 10.6096V10.5783C5.05228 10.8386 5.57312 10.974 6.06277 10.9845C5.11484 10.349 4.6409 9.43765 4.6409 8.25017C4.6409 7.66677 4.79183 7.11474 5.09393 6.5939C5.91676 7.60439 6.91696 8.41156 8.09387 9.0157C9.2709 9.61978 10.5314 9.95849 11.8751 10.0313C11.8231 9.83344 11.797 9.58333 11.797 9.28135C11.797 8.37495 12.1173 7.60165 12.758 6.96095C13.3985 6.32031 14.172 5.99989 15.0781 5.99989C16.0367 5.99989 16.8338 6.34374 17.4691 7.03128C18.1879 6.89588 18.8861 6.63013 19.563 6.23445C19.3026 7.03631 18.818 7.64576 18.1099 8.06246C18.7868 7.96854 19.4168 7.79155 20.0001 7.53116C19.5626 8.1978 19.0156 8.76548 18.3593 9.23444Z" fill="#4B4B4B"/>
  </g>
  <defs>
    <clipPath id="clip0_2070_48266">
      <rect width="24" height="24" fill="white"/>
    </clipPath>
  </defs>
</svg>