<svg xmlns="http://www.w3.org/2000/svg" width="32" height="32" viewBox="0 0 32 32" fill="none">
  <g clip-path="url(#clip0_1997_66667)">
    <path d="M0.743392 32C0.563705 32 0.3889 31.929 0.259261 31.7979C0.0883629 31.625 0.022445 31.374 0.086654 31.1394L2.16698 23.5427C0.87181 21.2007 0.188949 18.5513 0.189925 15.8618C0.193588 7.11548 7.31126 0 16.0569 0C20.2988 0.00170899 24.2847 1.65405 27.2805 4.6521C30.2759 7.65039 31.9248 11.636 31.9236 15.8745C31.9197 24.6211 24.802 31.7371 16.0569 31.7371C16.0569 31.7371 16.0503 31.7371 16.05 31.7371C13.4956 31.7361 10.9631 31.1135 8.70824 29.9343L0.916 31.9778C0.858871 31.9927 0.800765 32 0.743392 32Z" fill="#E5E5E5"/>
    <path d="M0.742188 31.3157L2.89648 23.4487C1.56763 21.1462 0.868652 18.5344 0.869629 15.8586C0.873047 7.48779 7.68506 0.67749 16.0557 0.67749C20.1177 0.679199 23.9304 2.26025 26.7976 5.12988C29.6646 7.99951 31.2429 11.814 31.2415 15.8708C31.2378 24.2415 24.4248 31.0527 16.0557 31.0527C16.0552 31.0527 16.0559 31.0527 16.0557 31.0527H16.0491C13.5076 31.0518 11.0105 30.4143 8.79248 29.2046L0.742188 31.3157ZM9.16528 26.4563L9.62646 26.7295C11.564 27.8794 13.7854 28.4875 16.0508 28.4888H16.0557C23.0122 28.4888 28.6743 22.8276 28.6772 15.8699C28.6785 12.498 27.3669 9.32739 24.9839 6.94238C22.6006 4.55737 19.4319 3.24316 16.0603 3.2417C9.09814 3.2417 3.43628 8.9021 3.43359 15.8596C3.43262 18.2439 4.09961 20.5657 5.36328 22.575L5.66357 23.0525L4.38818 27.7087L9.16528 26.4563Z" fill="white"/>
    <path d="M1.27344 30.7864L3.35327 23.1914C2.07007 20.9688 1.39551 18.447 1.39624 15.8643C1.39941 7.7832 7.97583 1.20874 16.0562 1.20874C19.978 1.21045 23.6589 2.73682 26.4263 5.50708C29.1943 8.27734 30.7178 11.9597 30.7163 15.8757C30.7129 23.957 24.1362 30.5322 16.0569 30.5322C16.0562 30.5322 16.0571 30.5322 16.0569 30.5322H16.0503C13.5969 30.5312 11.186 29.9155 9.04492 28.7485L1.27344 30.7864Z" fill="#64B161"/>
    <path d="M0.742188 31.3157L2.89648 23.4487C1.56763 21.1462 0.868652 18.5344 0.869629 15.8586C0.873047 7.48779 7.68506 0.67749 16.0557 0.67749C20.1177 0.679199 23.9304 2.26025 26.7976 5.12988C29.6646 7.99951 31.2429 11.814 31.2415 15.8708C31.2378 24.2415 24.4248 31.0527 16.0557 31.0527C16.0552 31.0527 16.0559 31.0527 16.0557 31.0527H16.0491C13.5076 31.0518 11.0105 30.4143 8.79248 29.2046L0.742188 31.3157ZM9.16528 26.4563L9.62646 26.7295C11.564 27.8794 13.7854 28.4875 16.0508 28.4888H16.0557C23.0122 28.4888 28.6743 22.8276 28.6772 15.8699C28.6785 12.498 27.3669 9.32739 24.9839 6.94238C22.6006 4.55737 19.4319 3.24316 16.0603 3.2417C9.09814 3.2417 3.43628 8.9021 3.43359 15.8596C3.43262 18.2439 4.09961 20.5657 5.36328 22.575L5.66357 23.0525L4.38818 27.7087L9.16528 26.4563Z" fill="white"/>
    <path fill-rule="evenodd" clip-rule="evenodd" d="M12.257 9.50904C11.9729 8.8772 11.6735 8.86451 11.403 8.85352C11.1819 8.844 10.9287 8.84449 10.676 8.84449C10.4231 8.84449 10.0119 8.9397 9.66429 9.31934C9.3164 9.69898 8.33594 10.6169 8.33594 12.4839C8.33594 14.3511 9.69579 16.155 9.88548 16.4085C10.0752 16.6616 12.5105 20.6152 16.3671 22.1362C19.5724 23.4004 20.2245 23.1489 20.9203 23.0857C21.6161 23.0225 23.1651 22.1677 23.4813 21.2817C23.7977 20.3958 23.7977 19.6365 23.7027 19.4775C23.6078 19.3196 23.3548 19.2246 22.9754 19.0349C22.596 18.8452 20.7306 17.927 20.3827 17.8005C20.0348 17.6738 19.7819 17.6108 19.5289 17.9907C19.2758 18.3701 18.5492 19.2246 18.3278 19.4775C18.1063 19.7312 17.8849 19.7629 17.5055 19.573C17.1261 19.3828 15.904 18.9824 14.4543 17.6897C13.3264 16.6841 12.5647 15.4419 12.3432 15.062C12.122 14.6826 12.3396 14.4951 12.51 14.2878C12.8168 13.9146 13.3317 13.2434 13.4582 12.9905C13.5847 12.7371 13.5214 12.5156 13.4267 12.3257C13.3317 12.136 12.5942 10.2595 12.257 9.50904Z" fill="white"/>
  </g>
  <defs>
    <clipPath id="clip0_1997_66667">
      <rect width="32" height="32" fill="white"/>
    </clipPath>
  </defs>
</svg>