<svg xmlns="http://www.w3.org/2000/svg" width="16" height="16" viewBox="0 0 16 16" fill="none">
  <path d="M13.7139 7.42856H8.57101V2.28571C8.57101 2.13416 8.51081 1.98881 8.40364 1.88165C8.29648 1.77448 8.15113 1.71428 7.99958 1.71428C7.84803 1.71428 7.70268 1.77448 7.59552 1.88165C7.48836 1.98881 7.42815 2.13416 7.42815 2.28571V7.42856H2.2853C2.13374 7.42856 1.9884 7.48877 1.88123 7.59593C1.77407 7.7031 1.71387 7.84844 1.71387 7.99999C1.71387 8.15155 1.77407 8.29689 1.88123 8.40405C1.9884 8.51122 2.13374 8.57142 2.2853 8.57142H7.42815V13.7143C7.42815 13.8658 7.48836 14.0112 7.59552 14.1183C7.70268 14.2255 7.84803 14.2857 7.99958 14.2857C8.15113 14.2857 8.29648 14.2255 8.40364 14.1183C8.51081 14.0112 8.57101 13.8658 8.57101 13.7143V8.57142H13.7139C13.8654 8.57142 14.0108 8.51122 14.1179 8.40405C14.2251 8.29689 14.2853 8.15155 14.2853 7.99999C14.2853 7.84844 14.2251 7.7031 14.1179 7.59593C14.0108 7.48877 13.8654 7.42856 13.7139 7.42856Z" fill="white"/>
</svg>