<svg width="25" height="24" viewBox="0 0 25 24" fill="none" xmlns="http://www.w3.org/2000/svg">
<path d="M8.1776 11.9176L7.64842 11.3861L8.1776 11.9176ZM9.35024 10.75L9.87942 10.2185C9.58679 9.92716 9.1137 9.92716 8.82107 10.2185L9.35024 10.75ZM13.787 15.1676L14.3162 15.6991C14.4576 15.5583 14.537 15.3671 14.537 15.1676C14.537 14.9681 14.4576 14.7768 14.3162 14.6361L13.787 15.1676ZM12.6144 16.3351L12.0852 15.8036L12.6144 16.3351ZM4.72082 18.7185C4.42729 19.0108 4.42626 19.4856 4.71852 19.7792C5.01077 20.0727 5.48565 20.0737 5.77918 19.7815L4.72082 18.7185ZM10.0351 11.4273C9.74158 11.7196 9.74055 12.1944 10.0328 12.488C10.3251 12.7815 10.7999 12.7825 11.0935 12.4903L10.0351 11.4273ZM13.3119 10.2815C13.6054 9.98923 13.6064 9.51435 13.3142 9.22082C13.0219 8.9273 12.547 8.92626 12.2535 9.21852L13.3119 10.2815ZM12.0438 13.4273C11.7503 13.7196 11.7493 14.1944 12.0415 14.488C12.3338 14.7815 12.8086 14.7825 13.1022 14.4903L12.0438 13.4273ZM15.2792 12.3227C15.5727 12.0304 15.5737 11.5556 15.2815 11.262C14.9892 10.9685 14.5144 10.9675 14.2208 11.2597L15.2792 12.3227ZM18.8224 5.6649L19.3516 5.13342L18.8224 5.6649ZM18.8224 10.0824L18.2932 9.55096L18.8224 10.0824ZM17.6498 11.25L17.1206 11.7815C17.4132 12.0728 17.8863 12.0728 18.1789 11.7815L17.6498 11.25ZM13.213 6.83243L12.6838 6.30093C12.5424 6.44167 12.463 6.63294 12.463 6.83242C12.463 7.0319 12.5424 7.22316 12.6838 7.36391L13.213 6.83243ZM14.3856 5.6649L14.9148 6.1964V6.19638L14.3856 5.6649ZM8.70678 15.8036C7.77603 14.8769 7.77603 13.3758 8.70678 12.449L7.64842 11.3861C6.12881 12.8991 6.12881 15.3536 7.64842 16.8666L8.70678 15.8036ZM8.70678 12.449L9.87942 11.2815L8.82107 10.2185L7.64842 11.3861L8.70678 12.449ZM12.0852 15.8036C11.1526 16.7321 9.63933 16.7321 8.70678 15.8036L7.64842 16.8666C9.16623 18.3778 11.6257 18.3778 13.1435 16.8666L12.0852 15.8036ZM13.2579 14.6361L12.0852 15.8036L13.1435 16.8666L14.3162 15.6991L13.2579 14.6361ZM7.64842 15.8036L4.72082 18.7185L5.77918 19.7815L8.70678 16.8666L7.64842 15.8036ZM8.82107 11.2815L13.2579 15.6991L14.3162 14.6361L9.87942 10.2185L8.82107 11.2815ZM11.0935 12.4903L13.3119 10.2815L12.2535 9.21852L10.0351 11.4273L11.0935 12.4903ZM13.1022 14.4903L15.2792 12.3227L14.2208 11.2597L12.0438 13.4273L13.1022 14.4903ZM18.2932 6.19638C19.224 7.1231 19.224 8.62424 18.2932 9.55096L19.3516 10.6139C20.8712 9.10089 20.8712 6.64644 19.3516 5.13342L18.2932 6.19638ZM18.2932 9.55096L17.1206 10.7185L18.1789 11.7815L19.3516 10.6139L18.2932 9.55096ZM14.9148 6.19638C15.8474 5.26787 17.3607 5.26787 18.2932 6.19638L19.3516 5.13342C17.8338 3.62219 15.3743 3.62219 13.8565 5.13342L14.9148 6.19638ZM13.7421 7.36393L14.9148 6.1964L13.8565 5.1334L12.6838 6.30093L13.7421 7.36393ZM18.1789 10.7185L13.7421 6.30095L12.6838 7.36391L17.1206 11.7815L18.1789 10.7185Z" fill="#4B4B4B"/>
</svg>
