<svg width="25" height="24" viewBox="0 0 25 24" fill="none" xmlns="http://www.w3.org/2000/svg">
<g clip-path="url(#clip0_4220_36760)">
<path d="M21.5 16H3.5C3.5 17.66 4.84 19 6.5 19H18.5C20.16 19 21.5 17.66 21.5 16Z" stroke="#F6F6F6" stroke-width="1.5" stroke-linecap="round" stroke-linejoin="round"/>
<path d="M12.5 7C8.08 7 4.5 10.58 4.5 15V16H20.5V15C20.5 10.58 16.92 7 12.5 7Z" stroke="#F6F6F6" stroke-width="1.5" stroke-linecap="round" stroke-linejoin="round"/>
<path d="M12.5 7.75C13.4665 7.75 14.25 6.9665 14.25 6C14.25 5.0335 13.4665 4.25 12.5 4.25C11.5335 4.25 10.75 5.0335 10.75 6C10.75 6.9665 11.5335 7.75 12.5 7.75Z" fill="#F6F6F6"/>
</g>
<defs>
<clipPath id="clip0_4220_36760">
<rect width="24" height="24" fill="white" transform="translate(0.5)"/>
</clipPath>
</defs>
</svg>
