<svg width="25" height="24" viewBox="0 0 25 24" fill="none" xmlns="http://www.w3.org/2000/svg">
<path d="M20.0896 13.8701L20.822 11.1236V9.49576C20.5075 5.8615 17.4221 3 13.7076 3H12.4703V9.49576H7.99128L7.30134 6.45018C7.24054 6.17439 7.08766 5.92753 6.86786 5.7502C6.64806 5.57288 6.37445 5.47567 6.09204 5.47458H3.5V6.71186H6.09204L7.65702 13.6202C7.09857 13.7681 6.59271 14.0695 6.19675 14.4902C5.80079 14.9109 5.53055 15.434 5.41665 16.0004C5.30275 16.5668 5.34973 17.1537 5.55228 17.6948C5.75483 18.2358 6.10485 18.7093 6.56269 19.0616C7.02053 19.414 7.56788 19.631 8.14276 19.6883C8.71763 19.7455 9.29704 19.6406 9.81535 19.3854C10.3337 19.1303 10.7702 18.735 11.0754 18.2445C11.3806 17.7541 11.5424 17.1879 11.5424 16.6102C11.5424 16.5058 11.5372 16.4027 11.5269 16.3008H15.579C15.5688 16.4026 15.5637 16.5057 15.5636 16.6102C15.5633 17.1587 15.709 17.6974 15.9855 18.1711C16.2621 18.6448 16.6597 19.0365 17.1375 19.3059C17.6153 19.5753 18.1562 19.7128 18.7047 19.7043C19.2531 19.6958 19.7895 19.5416 20.2587 19.2576C20.728 18.9735 21.1132 18.5697 21.375 18.0877C21.6368 17.6057 21.7657 17.0627 21.7485 16.5144C21.7313 15.9662 21.5686 15.4323 21.2771 14.9677C20.9856 14.503 20.5757 14.1242 20.0896 13.8701ZM13.7076 4.23729C16.7394 4.23729 19.2424 6.54475 19.5524 9.49576H13.7076V4.23729ZM8.44915 18.4661C8.08208 18.4661 7.72326 18.3573 7.41805 18.1533C7.11285 17.9494 6.87497 17.6595 6.73449 17.3204C6.59402 16.9813 6.55727 16.6081 6.62888 16.2481C6.70049 15.8881 6.87725 15.5574 7.13681 15.2978C7.39637 15.0383 7.72706 14.8615 8.08708 14.7899C8.44709 14.7183 8.82026 14.755 9.15939 14.8955C9.49851 15.036 9.78837 15.2739 9.9923 15.5791C10.1962 15.8843 10.3051 16.2431 10.3051 16.6102C10.3045 17.1022 10.1088 17.574 9.76087 17.9219C9.41294 18.2698 8.9412 18.4655 8.44915 18.4661ZM15.9797 15.0636H11.1262C10.8937 14.6616 10.5738 14.317 10.1902 14.0553C9.80664 13.7936 9.36915 13.6214 8.91008 13.5514L8.2716 10.733H19.5847V10.9612L18.9004 13.5273C18.8193 13.5206 18.7381 13.5171 18.6568 13.5168C18.1141 13.5173 17.5811 13.6604 17.1112 13.9319C16.6413 14.2033 16.2511 14.5936 15.9797 15.0636ZM18.6568 18.4661C18.2897 18.4661 17.9309 18.3573 17.6257 18.1533C17.3205 17.9494 17.0826 17.6595 16.9421 17.3204C16.8017 16.9813 16.7649 16.6081 16.8365 16.2481C16.9081 15.8881 17.0849 15.5574 17.3444 15.2978C17.604 15.0383 17.9347 14.8615 18.2947 14.7899C18.6547 14.7183 19.0279 14.755 19.367 14.8955C19.7061 15.036 19.996 15.2739 20.1999 15.5791C20.4039 15.8843 20.5127 16.2431 20.5127 16.6102C20.5121 17.1022 20.3164 17.574 19.9685 17.9219C19.6206 18.2698 19.1488 18.4655 18.6568 18.4661Z" fill="#F6F6F6"/>
</svg>
