<svg width="25" height="24" viewBox="0 0 25 24" fill="none" xmlns="http://www.w3.org/2000/svg">
<path d="M7.5 4.75016H8.25C8.25 4.33595 7.91422 4.00016 7.5 4.00016C7.08579 4.00016 6.75 4.33594 6.75 4.75015L7.5 4.75016ZM5.25 7.25016C4.83579 7.25016 4.5 7.58595 4.5 8.00016C4.5 8.41437 4.83579 8.75016 5.25 8.75016V7.25016ZM7.5 11.2502H6.75C6.75 11.6644 7.08578 12.0002 7.5 12.0002C7.91421 12.0002 8.25 11.6644 8.25 11.2502H7.5ZM9.75 8.75016C10.1642 8.75016 10.5 8.41437 10.5 8.00016C10.5 7.58595 10.1642 7.25016 9.75 7.25016V8.75016ZM15.8333 10.715C15.6436 11.0832 15.7883 11.5355 16.1565 11.7252C16.5247 11.9149 16.977 11.7702 17.1667 11.402L15.8333 10.715ZM20.4167 5.09365C20.6064 4.72543 20.4617 4.27314 20.0935 4.08344C19.7253 3.89374 19.273 4.03845 19.0833 4.40667L20.4167 5.09365ZM18.2648 19.2502V20.0002C18.6054 20.0002 18.9033 19.7706 18.99 19.4411L18.2648 19.2502ZM7.25 17.0766L6.89228 16.4174C6.68902 16.5277 6.54801 16.7256 6.51013 16.9538C6.47225 17.1819 6.54173 17.4147 6.69843 17.5848L7.25 17.0766ZM18.0997 11.3065L17.9848 12.0477L18.0997 11.3065ZM14.6514 10.7719L14.7663 10.0307L14.6514 10.7719ZM12.5424 11.8412L11.9054 11.4453L12.5424 11.8412ZM11.861 12.8573L11.2528 12.4184L11.861 12.8573ZM19.5438 14.3916L20.2691 14.5825L19.5438 14.3916ZM19.6782 13.881L18.9529 13.69L19.6782 13.881ZM13.4553 16.0052C13.5962 15.6157 13.3946 15.1858 13.005 15.0449C12.6155 14.904 12.1856 15.1056 12.0447 15.4952L13.4553 16.0052ZM13.7946 18.538C13.4909 18.8198 13.4732 19.2943 13.7549 19.598C14.0366 19.9016 14.5111 19.9194 14.8148 19.6377L13.7946 18.538ZM16.4553 17.0052C16.5962 16.6157 16.3946 16.1858 16.005 16.0449C15.6155 15.904 15.1856 16.1056 15.0447 16.4952L16.4553 17.0052ZM7.5 4.75016C6.75 4.75015 6.75 4.74991 6.75 4.74968C6.75 4.74962 6.75 4.7494 6.75 4.74928C6.75 4.74904 6.75 4.74885 6.75 4.7487C6.75 4.74841 6.75 4.7483 6.75 4.74839C6.75 4.74855 6.75 4.74947 6.74998 4.7511C6.74994 4.75437 6.74985 4.76052 6.74965 4.76935C6.74924 4.78702 6.74837 4.81534 6.74652 4.85276C6.74281 4.9278 6.73522 5.03824 6.71978 5.172C6.68847 5.44336 6.62696 5.79193 6.51 6.12982C6.26804 6.8288 5.89338 7.25016 5.25 7.25016V8.75016C6.85658 8.75016 7.60692 7.54652 7.92748 6.6205C8.09176 6.14589 8.17089 5.68196 8.20989 5.34395C8.22962 5.17302 8.23961 5.02955 8.24469 4.92686C8.24723 4.87541 8.24856 4.8339 8.24925 4.80397C8.2496 4.789 8.24978 4.77689 8.24988 4.76786C8.24993 4.76335 8.24996 4.7596 8.24998 4.75664C8.24999 4.75517 8.24999 4.75388 8.25 4.7528C8.25 4.75226 8.25 4.75177 8.25 4.75133C8.25 4.75111 8.25 4.75082 8.25 4.75071C8.25 4.75043 8.25 4.75017 7.5 4.75016ZM5.25 8.75016C5.89342 8.75016 6.26808 9.17153 6.51002 9.87049C6.62698 10.2084 6.68848 10.557 6.71979 10.8283C6.73522 10.9621 6.74281 11.0725 6.74652 11.1476C6.74837 11.185 6.74924 11.2133 6.74965 11.231C6.74985 11.2398 6.74994 11.246 6.74998 11.2492C6.75 11.2509 6.75 11.2518 6.75 11.252C6.75 11.252 6.75 11.2519 6.75 11.2516C6.75 11.2515 6.75 11.2513 6.75 11.2511C6.75 11.2509 6.75 11.2507 6.75 11.2507C6.75 11.2504 6.75 11.2502 7.5 11.2502C8.25 11.2502 8.25 11.2499 8.25 11.2497C8.25 11.2496 8.25 11.2493 8.25 11.249C8.25 11.2486 8.25 11.2481 8.25 11.2476C8.24999 11.2465 8.24999 11.2452 8.24998 11.2437C8.24996 11.2408 8.24993 11.237 8.24988 11.2325C8.24978 11.2235 8.2496 11.2114 8.24925 11.1964C8.24856 11.1665 8.24724 11.125 8.24469 11.0735C8.23961 10.9708 8.22963 10.8274 8.20991 10.6564C8.17091 10.3184 8.09179 9.85444 7.9275 9.37983C7.60696 8.45379 6.85661 7.25016 5.25 7.25016V8.75016ZM7.5 11.2502C8.25 11.2502 8.25 11.2504 8.25 11.2507C8.25 11.2507 8.25 11.2509 8.25 11.2511C8.25 11.2513 8.25 11.2515 8.25 11.2517C8.25 11.2519 8.25 11.252 8.25 11.252C8.25 11.2518 8.25 11.2509 8.25002 11.2493C8.25006 11.246 8.25015 11.2398 8.25035 11.231C8.25076 11.2133 8.25163 11.185 8.25348 11.1476C8.25719 11.0726 8.26478 10.9621 8.28021 10.8284C8.31152 10.557 8.37303 10.2084 8.48999 9.87049C8.73194 9.17152 9.1066 8.75016 9.75 8.75016V7.25016C8.1434 7.25016 7.39306 8.4538 7.07251 9.37983C6.90822 9.85443 6.8291 10.3184 6.7901 10.6564C6.77038 10.8273 6.76039 10.9708 6.75531 11.0735C6.75277 11.125 6.75144 11.1665 6.75075 11.1964C6.7504 11.2114 6.75022 11.2235 6.75011 11.2325C6.75006 11.237 6.75004 11.2408 6.75002 11.2437C6.75001 11.2452 6.75001 11.2465 6.75 11.2476C6.75 11.2481 6.75 11.2486 6.75 11.249C6.75 11.2493 6.75 11.2495 6.75 11.2497C6.75 11.2499 6.75 11.2502 7.5 11.2502ZM9.75 7.25016C9.1066 7.25016 8.73194 6.8288 8.48999 6.12983C8.37303 5.79193 8.31152 5.44337 8.28021 5.172C8.26478 5.03825 8.25719 4.9278 8.25348 4.85277C8.25163 4.81535 8.25076 4.78703 8.25035 4.76936C8.25015 4.76053 8.25006 4.75438 8.25002 4.75111C8.25 4.74947 8.25 4.74856 8.25 4.74839C8.25 4.74831 8.25 4.74841 8.25 4.74871C8.25 4.74885 8.25 4.74905 8.25 4.74929C8.25 4.74941 8.25 4.74963 8.25 4.74969C8.25 4.74992 8.25 4.75016 7.5 4.75016C6.75 4.75016 6.75 4.75043 6.75 4.75071C6.75 4.75081 6.75 4.75111 6.75 4.75133C6.75 4.75177 6.75 4.75226 6.75 4.7528C6.75001 4.75388 6.75001 4.75516 6.75002 4.75664C6.75004 4.75959 6.75006 4.76334 6.75011 4.76786C6.75022 4.77689 6.7504 4.78899 6.75075 4.80396C6.75144 4.83389 6.75277 4.8754 6.75531 4.92685C6.76039 5.02955 6.77038 5.17301 6.7901 5.34394C6.8291 5.68195 6.90822 6.14589 7.07251 6.62049C7.39306 7.54652 8.1434 8.75016 9.75 8.75016V7.25016ZM17.1667 11.402L20.4167 5.09365L19.0833 4.40667L15.8333 10.715L17.1667 11.402ZM18.2146 10.5654L14.7663 10.0307L14.5365 11.513L17.9848 12.0477L18.2146 10.5654ZM11.9054 11.4453C11.7241 11.7371 11.5065 12.0669 11.2528 12.4184L12.4691 13.2962C12.745 12.9139 12.9817 12.5551 13.1794 12.2372L11.9054 11.4453ZM11.2528 12.4184C10.2884 13.7546 8.83016 15.3658 6.89228 16.4174L7.60772 17.7358C9.81765 16.5366 11.4333 14.7314 12.4691 13.2962L11.2528 12.4184ZM18.99 19.4411L20.2691 14.5825L18.8185 14.2007L17.5395 19.0593L18.99 19.4411ZM20.2691 14.5825L20.4035 14.0719L18.9529 13.69L18.8185 14.2007L20.2691 14.5825ZM14.7663 10.0307C13.5823 9.84712 12.4932 10.4997 11.9054 11.4453L13.1794 12.2372C13.5151 11.697 14.0604 11.4392 14.5365 11.513L14.7663 10.0307ZM17.9848 12.0477C18.6518 12.1511 19.1637 12.8894 18.9529 13.69L20.4035 14.0719C20.8179 12.4978 19.8475 10.8186 18.2146 10.5654L17.9848 12.0477ZM11.7141 13.5928L19.3969 15.1271L19.6907 13.6561L12.0078 12.1218L11.7141 13.5928ZM18.2648 18.5002C14.7105 18.5002 12.2911 18.1575 10.6803 17.7585L10.3197 19.2145C12.0732 19.6489 14.6175 20.0002 18.2648 20.0002V18.5002ZM10.6803 17.7585C9.47078 17.4589 8.721 17.1284 8.28959 16.8902C8.07393 16.7711 7.93745 16.6748 7.86237 16.6165C7.82479 16.5873 7.80243 16.5675 7.79309 16.5589C7.78841 16.5547 7.78696 16.5531 7.78847 16.5547C7.78923 16.5554 7.79072 16.5569 7.79291 16.5592C7.79401 16.5603 7.79529 16.5617 7.79673 16.5632C7.79745 16.564 7.79822 16.5648 7.79902 16.5657C7.79943 16.5661 7.79984 16.5665 7.80027 16.567C7.80048 16.5672 7.8008 16.5676 7.80091 16.5677C7.80124 16.5681 7.80157 16.5684 7.25 17.0766C6.69843 17.5848 6.69877 17.5852 6.69911 17.5856C6.69922 17.5857 6.69957 17.586 6.6998 17.5863C6.70027 17.5868 6.70075 17.5873 6.70124 17.5879C6.70223 17.5889 6.70326 17.59 6.70434 17.5912C6.70649 17.5935 6.70884 17.5959 6.71138 17.5986C6.71646 17.6039 6.72232 17.6098 6.72898 17.6165C6.7423 17.6298 6.75884 17.6457 6.77884 17.6641C6.81885 17.7008 6.87265 17.7471 6.94227 17.8012C7.08157 17.9094 7.2836 18.0482 7.56445 18.2033C8.12604 18.5134 9.00126 18.8879 10.3197 19.2145L10.6803 17.7585ZM10.5 18.4865C10.9398 19.094 10.94 19.0939 10.9401 19.0938C10.9402 19.0938 10.9403 19.0937 10.9404 19.0936C10.9406 19.0934 10.9409 19.0932 10.9412 19.093C10.9417 19.0926 10.9424 19.0922 10.9431 19.0916C10.9446 19.0905 10.9465 19.0891 10.9489 19.0874C10.9535 19.084 10.9598 19.0794 10.9675 19.0736C10.9831 19.062 11.0047 19.0457 11.0317 19.0249C11.0857 18.9834 11.1615 18.9237 11.2531 18.848C11.436 18.6968 11.685 18.4791 11.9529 18.2102C12.4749 17.6862 13.1286 16.9088 13.4553 16.0052L12.0447 15.4952C11.829 16.0916 11.3576 16.6824 10.8903 17.1515C10.6635 17.3791 10.4517 17.5643 10.2974 17.6918C10.2206 17.7554 10.1586 17.8041 10.1171 17.836C10.0964 17.8519 10.0808 17.8637 10.0711 17.8709C10.0662 17.8745 10.0628 17.8771 10.061 17.8784C10.0601 17.8791 10.0595 17.8795 10.0594 17.8796C10.0593 17.8796 10.0593 17.8796 10.0595 17.8795C10.0595 17.8795 10.0596 17.8794 10.0597 17.8793C10.0598 17.8793 10.0599 17.8792 10.0599 17.8792C10.0601 17.8791 10.0602 17.879 10.5 18.4865ZM14.3047 19.0879C14.8148 19.6377 14.815 19.6375 14.8151 19.6374C14.8152 19.6373 14.8154 19.6372 14.8155 19.6371C14.8157 19.6368 14.816 19.6366 14.8162 19.6363C14.8168 19.6358 14.8174 19.6353 14.818 19.6347C14.8193 19.6335 14.8208 19.6321 14.8225 19.6304C14.826 19.6272 14.8303 19.623 14.8354 19.6181C14.8457 19.6082 14.8593 19.595 14.8758 19.5784C14.9088 19.5453 14.9537 19.4988 15.0081 19.4393C15.1166 19.3205 15.2632 19.149 15.427 18.9275C15.7538 18.4855 16.1544 17.8374 16.4553 17.0052L15.0447 16.4952C14.8032 17.163 14.4811 17.6837 14.2209 18.0356C14.0912 18.211 13.9782 18.3427 13.9004 18.4278C13.8616 18.4703 13.8318 18.501 13.8133 18.5195C13.8041 18.5288 13.7977 18.535 13.7945 18.5381C13.7929 18.5396 13.7921 18.5404 13.7921 18.5404C13.7921 18.5404 13.7923 18.5402 13.7927 18.5398C13.7929 18.5396 13.7932 18.5394 13.7935 18.5391C13.7936 18.5389 13.7938 18.5388 13.794 18.5386C13.7941 18.5385 13.7942 18.5384 13.7943 18.5383C13.7944 18.5382 13.7946 18.538 14.3047 19.0879Z" fill="#F6F6F6"/>
</svg>
