<svg width="25" height="24" viewBox="0 0 25 24" fill="none" xmlns="http://www.w3.org/2000/svg">
<g clip-path="url(#clip0_2903_70850)">
<path d="M20.5 6.9973V8.66757H5.5V6.9973C5.5 5.61081 6.61891 4.5 7.99729 4.5H17.9946C19.3811 4.5 20.5 5.61892 20.5 6.9973Z" stroke="#4B4B4B" stroke-width="1.21622" stroke-linecap="round" stroke-linejoin="round"/>
<path d="M20.5002 8.66797V17.0031C20.5002 18.3896 19.3813 19.5004 18.0029 19.5004H8.00559C6.6191 19.5004 5.5083 18.3815 5.5083 17.0031V8.66797H20.5002Z" stroke="#4B4B4B" stroke-width="1.21622" stroke-linecap="round" stroke-linejoin="round"/>
<path d="M11.3296 6.58398H12.1647" stroke="#4B4B4B" stroke-width="1.21622" stroke-linecap="round" stroke-linejoin="round"/>
<path d="M7.99756 6.58398H8.83269" stroke="#4B4B4B" stroke-width="1.21622" stroke-linecap="round" stroke-linejoin="round"/>
<path d="M12.9997 17.0029C14.6118 17.0029 15.9187 15.696 15.9187 14.084C15.9187 12.4719 14.6118 11.165 12.9997 11.165C11.3877 11.165 10.0808 12.4719 10.0808 14.084C10.0808 15.696 11.3877 17.0029 12.9997 17.0029Z" stroke="#4B4B4B" stroke-width="1.21622" stroke-linecap="round" stroke-linejoin="round"/>
<path d="M10.5024 14.3348C10.7457 14.4321 11.0376 14.5051 11.4511 14.5051C12.8781 14.5051 12.8781 13.6699 14.3132 13.6699C14.8727 13.6699 15.2132 13.7997 15.5051 13.9537" stroke="#4B4B4B" stroke-width="1.21622" stroke-linecap="round" stroke-linejoin="round"/>
</g>
<defs>
<clipPath id="clip0_2903_70850">
<rect width="24" height="24" fill="white" transform="translate(0.5)"/>
</clipPath>
</defs>
</svg>
