<svg width="25" height="24" viewBox="0 0 25 24" fill="none" xmlns="http://www.w3.org/2000/svg">
<path d="M19.366 14.25L19.713 12.063C20.14 8.148 16.79 4.75 12.5 4.75C8.21 4.75 4.86 8.148 5.287 12.063L5.634 14.25M8.942 19.054L8.416 19.182C7.254 19.466 6.059 18.837 5.748 17.779L5.325 16.342C5.013 15.284 5.703 14.196 6.865 13.912L7.392 13.784C7.972 13.642 8.57 13.956 8.726 14.485L9.713 17.839C9.868 18.368 9.523 18.912 8.943 19.054H8.942ZM16.058 19.054L16.584 19.182C17.746 19.466 18.941 18.837 19.252 17.779L19.675 16.342C19.987 15.284 19.297 14.196 18.135 13.912L17.608 13.784C17.028 13.642 16.43 13.956 16.274 14.485L15.287 17.839C15.132 18.368 15.477 18.912 16.057 19.054H16.058Z" stroke="#4B4B4B" stroke-width="1.5" stroke-linecap="round" stroke-linejoin="round"/>
</svg>
