<svg width="25" height="24" viewBox="0 0 25 24" fill="none" xmlns="http://www.w3.org/2000/svg">
<path d="M14.9643 8.94978C14.5738 8.55926 14.5738 7.92609 14.9643 7.53557L17.3346 5.16532C16.7792 4.8991 16.157 4.75 15.4999 4.75C13.1527 4.75 11.2499 6.65279 11.2499 9C11.2499 9.65705 11.399 10.2793 11.6652 10.8347L5.66397 16.8359C5.11168 17.3882 5.11168 18.2837 5.66397 18.8359C6.21625 19.3882 7.11168 19.3882 7.66397 18.8359L13.6652 12.8347C14.2206 13.1009 14.8429 13.25 15.4999 13.25C17.8471 13.25 19.7499 11.3472 19.7499 9C19.7499 8.35127 19.6046 7.73649 19.3447 7.18645L16.9799 9.55116C16.5894 9.94169 15.9562 9.94169 15.5657 9.55117L14.9643 8.94978Z" stroke="#4B4B4B" stroke-width="1.5" stroke-linecap="round" stroke-linejoin="round"/>
</svg>
