<svg width="25" height="24" viewBox="0 0 25 24" fill="none" xmlns="http://www.w3.org/2000/svg">
<path d="M14.75 14.25C14.75 11.5 13.9 9.75 10.5 9.75C7.1 9.75 6.25 11.5 6.25 14.25H8.25V17.25C8.25 17.7804 8.46071 18.2891 8.83579 18.6642C9.21086 19.0393 9.71957 19.25 10.25 19.25H12.75M14.75 14.25H12.75V19.25M14.75 14.25H18.75V19.25H12.75M12.75 7C12.75 7.29547 12.6918 7.58806 12.5787 7.86104C12.4657 8.13402 12.2999 8.38206 12.091 8.59099C11.8821 8.79992 11.634 8.96566 11.361 9.07873C11.0881 9.1918 10.7955 9.25 10.5 9.25C10.2045 9.25 9.91194 9.1918 9.63896 9.07873C9.36598 8.96566 9.11794 8.79992 8.90901 8.59099C8.70008 8.38206 8.53434 8.13402 8.42127 7.86104C8.3082 7.58806 8.25 7.29547 8.25 7C8.25 6.40326 8.48705 5.83097 8.90901 5.40901C9.33097 4.98705 9.90326 4.75 10.5 4.75C11.0967 4.75 11.669 4.98705 12.091 5.40901C12.5129 5.83097 12.75 6.40326 12.75 7V7Z" stroke="#F6F6F6" stroke-width="1.5" stroke-linecap="round" stroke-linejoin="round"/>
</svg>
