<svg width="25" height="24" viewBox="0 0 25 24" fill="none" xmlns="http://www.w3.org/2000/svg">
<path d="M12.5 13.75V16.25M12.5 16.25C10.5 16.25 9.25 14.75 9.25 14.75M12.5 16.25C14.5 16.25 15.75 14.75 15.75 14.75M6.15249 9.26243L5.25 4.75L9.42438 6.41975C10.3581 6.01301 11.4004 5.78571 12.5 5.78571C13.5996 5.78571 14.6419 6.01301 15.5756 6.41975L19.75 4.75L18.8475 9.26243C19.4226 10.2272 19.75 11.337 19.75 12.5179C19.75 16.2359 16.5041 19.25 12.5 19.25C8.49594 19.25 5.25 16.2359 5.25 12.5179C5.25 11.337 5.57739 10.2272 6.15249 9.26243Z" stroke="#F6F6F6" stroke-width="1.5" stroke-linecap="round" stroke-linejoin="round"/>
<path d="M11 11C11 11.2761 10.7761 11.5 10.5 11.5C10.2239 11.5 10 11.2761 10 11C10 10.7239 10.2239 10.5 10.5 10.5C10.7761 10.5 11 10.7239 11 11Z" stroke="#F6F6F6" stroke-linecap="round" stroke-linejoin="round"/>
<path d="M15 11C15 11.2761 14.7761 11.5 14.5 11.5C14.2239 11.5 14 11.2761 14 11C14 10.7239 14.2239 10.5 14.5 10.5C14.7761 10.5 15 10.7239 15 11Z" stroke="#F6F6F6" stroke-linecap="round" stroke-linejoin="round"/>
</svg>
