<svg width="25" height="24" viewBox="0 0 25 24" fill="none" xmlns="http://www.w3.org/2000/svg">
<path d="M2.5 3H3.5C4.03043 3 4.53914 3.21071 4.91421 3.58579C5.28929 3.96086 5.5 4.46957 5.5 5V15C5.5 15.5304 5.71071 16.0391 6.08579 16.4142C6.46086 16.7893 6.96957 17 7.5 17H22.5" stroke="#4B4B4B" stroke-width="1.5" stroke-linecap="round" stroke-linejoin="round"/>
<path d="M16.5 6H12.5C10.8431 6 9.5 7.34315 9.5 9V11C9.5 12.6569 10.8431 14 12.5 14H16.5C18.1569 14 19.5 12.6569 19.5 11V9C19.5 7.34315 18.1569 6 16.5 6Z" stroke="#4B4B4B" stroke-width="1.5" stroke-linecap="round" stroke-linejoin="round"/>
<path d="M9.5 21C10.6046 21 11.5 20.1046 11.5 19C11.5 17.8954 10.6046 17 9.5 17C8.39543 17 7.5 17.8954 7.5 19C7.5 20.1046 8.39543 21 9.5 21Z" stroke="#4B4B4B" stroke-width="1.5" stroke-linecap="round" stroke-linejoin="round"/>
<path d="M18.5 21C19.6046 21 20.5 20.1046 20.5 19C20.5 17.8954 19.6046 17 18.5 17C17.3954 17 16.5 17.8954 16.5 19C16.5 20.1046 17.3954 21 18.5 21Z" stroke="#4B4B4B" stroke-width="1.5" stroke-linecap="round" stroke-linejoin="round"/>
</svg>
