<svg width="25" height="24" viewBox="0 0 25 24" fill="none" xmlns="http://www.w3.org/2000/svg">
<path d="M15.7502 15.25H5.25V4.75H15.7502V15.25Z" stroke="#F6F6F6" stroke-width="1.5" stroke-linecap="round" stroke-linejoin="round"/>
<path d="M9.75 17.5C9.75 18.4665 8.9665 19.25 8 19.25C7.0335 19.25 6.25 18.4665 6.25 17.5C6.25 16.5335 7.0335 15.75 8 15.75C8.9665 15.75 9.75 16.5335 9.75 17.5Z" stroke="#F6F6F6" stroke-width="1.5" stroke-linecap="round" stroke-linejoin="round"/>
<path d="M18.75 17.5C18.75 18.4665 17.9665 19.25 17 19.25C16.0335 19.25 15.25 18.4665 15.25 17.5C15.25 16.5335 16.0335 15.75 17 15.75C17.9665 15.75 18.75 16.5335 18.75 17.5Z" stroke="#F6F6F6" stroke-width="1.5" stroke-linecap="round" stroke-linejoin="round"/>
<path d="M19.7502 15.25H15.75V8.75H16.7502C18.4071 8.75 19.7502 10.0931 19.7502 11.75V15.25Z" stroke="#F6F6F6" stroke-width="1.5" stroke-linecap="round" stroke-linejoin="round"/>
</svg>
