<svg width="25" height="24" viewBox="0 0 25 24" fill="none" xmlns="http://www.w3.org/2000/svg">
<path d="M6.25 6.75C6.25 5.64543 7.14543 4.75 8.25 4.75H16.75C17.8546 4.75 18.75 5.64543 18.75 6.75V16.25C18.75 16.8023 18.3023 17.25 17.75 17.25H7.25C6.69772 17.25 6.25 16.8023 6.25 16.25V6.75Z" stroke="#4B4B4B" stroke-width="1.5" stroke-linecap="round" stroke-linejoin="round"/>
<path d="M6 10.25C5.58579 10.25 5.25 9.91421 5.25 9.5C5.25 9.08579 5.58579 8.75 6 8.75" stroke="#4B4B4B" stroke-width="1.5" stroke-linecap="round" stroke-linejoin="round"/>
<path d="M19 10.25C19.4142 10.25 19.75 9.91421 19.75 9.5C19.75 9.08579 19.4142 8.75 19 8.75" stroke="#4B4B4B" stroke-width="1.5" stroke-linecap="round" stroke-linejoin="round"/>
<path d="M8.25 18V19.25" stroke="#4B4B4B" stroke-width="1.5" stroke-linecap="round" stroke-linejoin="round"/>
<path d="M16.75 18V19.25" stroke="#4B4B4B" stroke-width="1.5" stroke-linecap="round" stroke-linejoin="round"/>
<path d="M6.5 11.25H18.5" stroke="#4B4B4B" stroke-width="1.5" stroke-linecap="round" stroke-linejoin="round"/>
<path d="M12.5 11.25V5" stroke="#4B4B4B" stroke-width="1.5" stroke-linecap="round" stroke-linejoin="round"/>
<path d="M10 14C10 14.2761 9.77614 14.5 9.5 14.5C9.22386 14.5 9 14.2761 9 14C9 13.7239 9.22386 13.5 9.5 13.5C9.77614 13.5 10 13.7239 10 14Z" stroke="#4B4B4B" stroke-linecap="round" stroke-linejoin="round"/>
<path d="M16 14C16 14.2761 15.7761 14.5 15.5 14.5C15.2239 14.5 15 14.2761 15 14C15 13.7239 15.2239 13.5 15.5 13.5C15.7761 13.5 16 13.7239 16 14Z" stroke="#4B4B4B" stroke-linecap="round" stroke-linejoin="round"/>
</svg>
