<svg xmlns="http://www.w3.org/2000/svg" width="80" height="80" viewBox="0 0 80 80" fill="none">
<path d="M40 2.5C19.2891 2.5 2.5 19.2891 2.5 40C2.5 60.7109 19.2891 77.5 40 77.5C60.7109 77.5 77.5 60.7109 77.5 40C77.5 19.2891 60.7109 2.5 40 2.5ZM40 11.875C55.5328 11.875 68.125 24.4672 68.125 40C68.125 55.5328 55.5328 68.125 40 68.125C24.4672 68.125 11.875 55.5328 11.875 40C11.875 24.4672 24.4672 11.875 40 11.875ZM27.4023 21.25C27.2508 21.2492 27.0889 21.2675 26.9237 21.2989V21.2939C24.0648 21.8308 19.8512 26.7225 21.7089 28.5792L33.1397 40.005L21.7091 51.4309C19.4231 53.7161 26.2833 60.5769 28.5694 58.2912L40 46.8603L51.4306 58.2909C53.7166 60.5766 60.577 53.7159 58.2909 51.4306L46.8603 40.0048L58.2909 28.5792C60.5769 26.2941 53.7167 19.4386 51.4306 21.7237L40 33.1495L28.5694 21.7237C28.2475 21.4041 27.8569 21.2527 27.4022 21.2503L27.4023 21.25Z" fill="#FE351B"/>
</svg>