<svg xmlns="http://www.w3.org/2000/svg" width="216" height="148" viewBox="0 0 216 148" fill="none">
  <path d="M9.43448 60.7904C8.79598 63.2002 8.68766 65.7188 9.11693 68.1741C9.54619 70.6294 10.5029 72.9633 11.9216 75.0162C12.8888 76.4228 13.7013 77.7097 14.0702 78.563C15.1176 80.9771 16.0986 80.3439 16.6831 81.2331C18.1188 83.4214 17.5301 87.6013 18.3316 89.4236C19.4204 91.901 20.9417 91.6546 20.9417 91.6546L38.1942 89.7993C38.1942 89.7993 39.0163 86.9985 37.8916 82.0919C37.477 80.3027 37.5157 75.7291 38.5465 72.982C39.9849 69.1516 38.5465 64.2354 37.6415 59.6068C37.22 57.4363 36.1561 53.3995 35.555 51.9723C34.9222 50.4693 34.6652 44.6034 32.4627 44.7122C28.5717 44.9048 30.7687 59.4389 28.504 57.8699C25.6023 55.8673 22.6592 53.4009 19.2905 50.3771C11.7793 43.6414 11.4007 53.3995 9.43448 60.7904Z" fill="#FFAD97"/>
  <path d="M26.3815 80.4173C26.351 80.4209 26.3201 80.4173 26.2913 80.4068C26.2625 80.3962 26.2366 80.3791 26.2157 80.3567C25.5594 79.5591 25.0876 78.6273 24.8339 77.6274C24.5712 76.637 24.5199 75.6027 24.6833 74.5913C24.8878 73.3168 25.4239 72.0368 26.2778 70.7871C26.2917 70.7656 26.3097 70.7471 26.3309 70.7327C26.352 70.7183 26.3758 70.7082 26.4009 70.7031C26.426 70.698 26.4519 70.6979 26.477 70.7029C26.5022 70.7079 26.526 70.7178 26.5472 70.7322C26.5684 70.7465 26.5866 70.7649 26.6005 70.7863C26.6145 70.8077 26.624 70.8317 26.6285 70.8568C26.633 70.8819 26.6324 70.9077 26.6268 70.9326C26.6211 70.9575 26.6106 70.981 26.5956 71.0018C25.7666 72.2061 25.2581 73.4338 25.0633 74.6518C24.9068 75.6102 24.9539 76.5906 25.2015 77.5297C25.442 78.4692 25.8836 79.3458 26.4962 80.0993C26.5141 80.1179 26.5281 80.1399 26.5372 80.164C26.5464 80.1881 26.5505 80.2139 26.5493 80.2396C26.5481 80.2654 26.5417 80.2906 26.5305 80.3138C26.5192 80.337 26.5033 80.3577 26.4837 80.3746C26.4548 80.3988 26.4191 80.4137 26.3815 80.4173Z" fill="#F47C53"/>
  <path d="M33.799 49.3251C33.5484 49.3239 33.3025 49.257 33.0861 49.131C32.9783 49.0704 32.4518 48.6273 32.6494 45.8787C32.6495 45.8584 32.6537 45.8383 32.6619 45.8196C32.6701 45.801 32.6821 45.7842 32.697 45.7703C32.712 45.7565 32.7297 45.7458 32.7489 45.7391C32.7682 45.7323 32.7886 45.7295 32.809 45.7309C32.8294 45.7323 32.8493 45.7379 32.8674 45.7473C32.8856 45.7567 32.9016 45.7697 32.9145 45.7854C32.9273 45.8012 32.9368 45.8195 32.9423 45.8391C32.9479 45.8587 32.9493 45.8792 32.9465 45.8994C32.8677 47.0211 32.9037 48.6851 33.2339 48.8723C33.3681 48.9544 33.5189 49.0056 33.6755 49.0223C33.8321 49.0389 33.9904 49.0206 34.1389 48.9686C34.1756 48.9525 34.2171 48.9516 34.2545 48.9661C34.2918 48.9805 34.3218 49.0092 34.3379 49.0457C34.354 49.0822 34.3549 49.1236 34.3404 49.1607C34.3259 49.1979 34.2972 49.2278 34.2605 49.2439C34.1136 49.3009 33.9567 49.3285 33.799 49.3251Z" fill="#F47C53"/>
  <path d="M18.5739 81.5693H18.5394C16.8371 81.4647 15.8063 80.8577 15.2398 80.3663C14.8815 80.0719 14.5931 79.7019 14.3955 79.2832C14.3835 79.2593 14.3766 79.2333 14.3752 79.2066C14.3739 79.18 14.3782 79.1533 14.3878 79.1284C14.3974 79.1035 14.4122 79.0809 14.4311 79.062C14.45 79.0431 14.4727 79.0284 14.4977 79.0188C14.5226 79.0091 14.5493 79.0048 14.5761 79.006C14.6029 79.0073 14.6291 79.0141 14.653 79.0261C14.677 79.038 14.6981 79.0548 14.7152 79.0754C14.7322 79.0959 14.7448 79.1198 14.752 79.1455C14.9332 79.5132 15.192 79.8376 15.5106 80.0966C16.0301 80.5425 16.9821 81.093 18.5629 81.1977C18.6111 81.2001 18.6566 81.2205 18.6904 81.2549C18.7242 81.2893 18.7437 81.3351 18.7451 81.3832C18.7465 81.4313 18.7296 81.4781 18.6979 81.5144C18.6662 81.5506 18.6219 81.5737 18.5739 81.5789V81.5693Z" fill="#F47C53"/>
  <path d="M8.16053 73.8243L13.3421 74.8332C13.9933 75.1009 14.7246 75.1002 15.3753 74.831C16.0259 74.5618 16.5426 74.0462 16.8117 73.3977C16.945 73.0765 17.0134 72.7323 17.0131 72.3848C17.0128 72.0372 16.9438 71.6932 16.81 71.3722C16.6761 71.0513 16.4801 70.7598 16.2331 70.5143C15.9861 70.2688 15.693 70.0743 15.3705 69.9417L11.8567 68.4979C9.45247 67.5483 7.44341 67.3239 6.54251 69.4999C5.2713 72.5705 6.85064 73.2862 8.16053 73.8243Z" fill="#FFAD97"/>
  <path d="M14.8179 73.7612C14.3564 73.7612 13.3076 73.7295 12.7052 73.468C12.5145 73.3854 12.2188 73.1253 12.3694 72.3091C12.5256 71.4696 13.1446 70.2336 13.7608 70.2047C14.5581 70.1676 15.8597 70.6176 16.0034 71.4021C16.1126 71.9912 15.839 73.0799 15.4714 73.5176C15.4225 73.5869 15.3586 73.6444 15.2845 73.6861C15.2104 73.7277 15.128 73.7524 15.0431 73.7584C15.0224 73.7584 14.9409 73.7612 14.8179 73.7612ZM13.8507 70.5956H13.7788C13.4914 70.6094 12.9166 71.5315 12.7605 72.3752C12.69 72.7564 12.7301 73.0413 12.8627 73.0978C13.5536 73.3992 15.0169 73.3565 15.0307 73.3552H15.0376C15.0542 73.3552 15.0998 73.3345 15.1633 73.2588C15.4549 72.9106 15.6967 71.9403 15.6096 71.4696C15.5184 70.9769 14.4973 70.5997 13.852 70.5997L13.8507 70.5956Z" fill="#F47C53"/>
  <path d="M14.1089 75.2999C12.6663 75.2999 7.87994 73.8933 7.67406 73.8327C7.64847 73.8258 7.62454 73.8138 7.60366 73.7975C7.58278 73.7812 7.56538 73.761 7.55248 73.7379C7.53958 73.7148 7.53144 73.6894 7.52854 73.6631C7.52564 73.6369 7.52803 73.6103 7.53558 73.585C7.54313 73.5597 7.55569 73.5361 7.57251 73.5157C7.58933 73.4953 7.61008 73.4785 7.63354 73.4661C7.65699 73.4538 7.68269 73.4463 7.7091 73.444C7.73552 73.4417 7.76212 73.4447 7.78736 73.4528C7.83848 73.468 12.8915 74.9516 14.1683 74.9021C15.3856 74.8553 15.9645 74.247 15.9645 74.2415C16.0001 74.2024 16.0498 74.179 16.1026 74.1764C16.1555 74.1738 16.2072 74.1923 16.2464 74.2277C16.2856 74.2631 16.3091 74.3126 16.3117 74.3652C16.3143 74.4179 16.2958 74.4694 16.2602 74.5085C16.2326 74.5387 15.5763 75.2448 14.1876 75.2985L14.1089 75.2999Z" fill="#F47C53"/>
  <path d="M15.8302 65.9373C14.9239 65.7559 14.1268 65.2238 13.6139 64.4577C13.1009 63.6916 12.9141 62.7541 13.0943 61.851L19.9547 27.7276C20.0445 27.28 20.222 26.8544 20.477 26.4752C20.732 26.0959 21.0596 25.7704 21.441 25.5173C21.8224 25.2643 22.2501 25.0885 22.6997 25.0002C23.1493 24.9118 23.612 24.9126 24.0613 25.0025C24.5107 25.0921 24.938 25.2691 25.3188 25.5232C25.6995 25.7774 26.0263 26.1038 26.2803 26.4838C26.5344 26.8638 26.7108 27.2899 26.7995 27.7378C26.8882 28.1858 26.8874 28.6467 26.7971 29.0943L19.9367 63.2135C19.7547 64.1171 19.2198 64.9117 18.4497 65.4225C17.6796 65.9333 16.7374 66.1185 15.8302 65.9373Z" fill="#002B34"/>
  <path d="M42.3385 42.071L2.12963 34.7765C1.80529 34.7175 1.49674 34.5922 1.22343 34.4085C0.950126 34.2248 0.718002 33.9867 0.541699 33.7092C0.365396 33.4317 0.248739 33.1208 0.199088 32.7961C0.149437 32.4715 0.167871 32.1401 0.253222 31.8229L7.35816 5.45652C7.52156 4.85813 7.91326 4.34703 8.44969 4.0323C8.98612 3.71757 9.6248 3.62412 10.2294 3.7719L47.1912 12.7483C47.7728 12.8883 48.2803 13.241 48.613 13.7364C48.9458 14.2317 49.0794 14.8336 48.9874 15.4225L45.1255 40.0987C45.0766 40.4124 44.9651 40.7132 44.7976 40.9832C44.63 41.2533 44.4098 41.4872 44.15 41.671C43.8902 41.8549 43.5961 41.985 43.2849 42.0537C42.9738 42.1224 42.6519 42.1283 42.3385 42.071Z" fill="#94C358"/>
  <path d="M28.9889 12.1865L26.5128 11.691C26.1576 11.6215 25.7895 11.6659 25.4612 11.8176L19.3221 14.6653C19.1195 14.7586 18.9374 14.8908 18.786 15.0542C18.6347 15.2177 18.5172 15.4093 18.4402 15.618C18.3632 15.8267 18.3283 16.0484 18.3373 16.2706C18.3464 16.4928 18.3993 16.711 18.4931 16.9128L18.9878 17.9602C19.0831 18.1652 19.2186 18.3491 19.3862 18.5013C19.5539 18.6535 19.7503 18.7708 19.964 18.8464C20.1778 18.9221 20.4045 18.9545 20.631 18.9417C20.8574 18.929 21.079 18.8713 21.2828 18.7722L23.4536 17.6987C23.5388 17.6566 23.634 17.639 23.7287 17.6479C23.8234 17.6568 23.9137 17.6918 23.9895 17.749C24.0652 17.8062 24.1235 17.8833 24.1577 17.9717C24.192 18.06 24.2007 18.1561 24.1831 18.2492L22.8304 24.974L21.5302 31.4427C21.4423 31.8833 21.5335 32.3405 21.7837 32.7142C22.034 33.0878 22.4228 33.3473 22.8649 33.4356L24.6529 33.7921C25.0952 33.88 25.5545 33.7893 25.9297 33.54C26.3049 33.2907 26.5653 32.9031 26.6537 32.4626L30.3181 14.1794C30.4065 13.7396 30.3162 13.2829 30.067 12.9093C29.8178 12.5357 29.4301 12.2758 28.9889 12.1865Z" fill="#CB7601"/>
  <path d="M5.13404 66.2215L11.012 68.4154C11.3641 68.6338 11.756 68.781 12.1652 68.8486C12.5744 68.9162 12.993 68.9028 13.397 68.8093C13.8011 68.7157 14.1827 68.5438 14.52 68.3034C14.8573 68.0629 15.1438 67.7586 15.3631 67.4079C15.8061 66.6997 15.9486 65.8453 15.7592 65.0325C15.5697 64.2197 15.064 63.5152 14.3531 63.0738L10.5146 60.6928C7.88234 59.11 5.56929 58.4563 4.08667 60.8304C1.99333 64.1928 3.70117 65.3324 5.13404 66.2215Z" fill="#FFAD97"/>
  <path d="M13.2992 67.4482C13.274 67.4503 13.2485 67.4503 13.2233 67.4482C13.1155 67.4331 11.3786 67.1922 10.5537 66.6568C10.2138 66.4366 10.1613 65.9466 10.4045 65.2805C10.7472 64.3391 11.6964 63.0274 12.4108 63.1086C13.3393 63.2187 14.7598 63.995 14.7708 64.9144C14.7832 65.6177 14.2554 66.8261 13.7442 67.2638C13.6229 67.3765 13.465 67.4419 13.2992 67.4482ZM12.3403 63.4913C11.97 63.4913 11.1354 64.4285 10.7789 65.4057C10.6131 65.864 10.6104 66.2136 10.7707 66.3196C11.5306 66.811 13.2578 67.0477 13.2799 67.0491H13.2868C13.3625 67.0418 13.4328 67.007 13.4844 66.9514C13.9086 66.5866 14.3825 65.4993 14.3715 64.9089C14.3618 64.2675 13.1279 63.5821 12.3638 63.4913H12.3403Z" fill="#F47C53"/>
  <path d="M12.6279 69.1251C11.2863 69.1251 9.19016 67.9649 9.09068 67.9085C9.06715 67.8961 9.04634 67.8792 9.02948 67.8587C9.01262 67.8383 9.00006 67.8146 8.99253 67.7892C8.98499 67.7638 8.98265 67.7372 8.98563 67.7109C8.98861 67.6846 8.99685 67.6591 9.00987 67.636C9.0229 67.6129 9.04043 67.5927 9.06144 67.5764C9.08245 67.5602 9.10652 67.5483 9.13222 67.5415C9.15791 67.5347 9.18471 67.5331 9.21104 67.5368C9.23737 67.5405 9.26269 67.5494 9.2855 67.563C10.0178 67.9759 12.1126 68.9682 12.9983 68.6792C13.0485 68.6628 13.1032 68.6669 13.1503 68.6906C13.1975 68.7144 13.2332 68.7558 13.2497 68.8058C13.2662 68.8558 13.2621 68.9103 13.2383 68.9573C13.2144 69.0043 13.1728 69.0399 13.1226 69.0563C12.9624 69.1051 12.7955 69.1284 12.6279 69.1251Z" fill="#F47C53"/>
  <path d="M6.98776 58.8703L12.4926 61.8818C13.1329 62.4197 13.9614 62.6824 14.7961 62.6119C15.6307 62.5414 16.403 62.1436 16.9432 61.506C17.211 61.1903 17.4136 60.8251 17.5396 60.4314C17.6656 60.0376 17.7125 59.623 17.6776 59.2112C17.6427 58.7994 17.5267 58.3985 17.3362 58.0313C17.1457 57.6642 16.8845 57.338 16.5674 57.0715L13.113 54.1674C10.7351 52.2254 8.54084 51.2469 6.73075 53.3871C4.17037 56.4067 5.69859 57.7858 6.98776 58.8703Z" fill="#FFAD97"/>
  <path d="M14.9635 61.2645C14.9142 61.2648 14.8653 61.2574 14.8184 61.2425C14.7134 61.2122 13.029 60.7264 12.2898 60.0795C11.9858 59.8125 12.0038 59.3198 12.3409 58.6908C12.8162 57.8086 13.9465 56.6442 14.6387 56.8272C15.5424 57.0695 16.833 58.0398 16.7114 58.9509C16.6216 59.6501 15.9252 60.7704 15.3573 61.1296C15.2413 61.2106 15.1048 61.2573 14.9635 61.2645ZM14.4771 57.2044C14.0874 57.2044 13.1699 57.9902 12.6932 58.8794C12.4625 59.3088 12.4086 59.6542 12.5551 59.7808C13.2349 60.3754 14.9151 60.8571 14.9317 60.8613H14.9386C15.0146 60.8642 15.0892 60.8398 15.1486 60.7924C15.6212 60.4924 16.2457 59.4836 16.3217 58.8986C16.4032 58.2614 15.2826 57.4081 14.5365 57.2085C14.5169 57.2048 14.497 57.2034 14.4771 57.2044Z" fill="#F47C53"/>
  <path d="M14.5027 62.8464C12.2919 62.8464 8.42306 59.9148 8.24205 59.7813C8.2047 59.7478 8.18136 59.7015 8.17666 59.6517C8.17196 59.6018 8.18625 59.552 8.21669 59.5122C8.24713 59.4723 8.29149 59.4454 8.34098 59.4366C8.39047 59.4278 8.44147 59.4378 8.48385 59.4648C8.52945 59.4992 13.0201 62.9056 14.8993 62.4019C14.9246 62.3951 14.951 62.3933 14.977 62.3967C15.003 62.4001 15.0281 62.4086 15.0508 62.4216C15.0735 62.4346 15.0934 62.452 15.1094 62.4727C15.1253 62.4934 15.1371 62.517 15.1439 62.5422C15.1507 62.5675 15.1524 62.5938 15.149 62.6196C15.1456 62.6455 15.1371 62.6705 15.1241 62.6931C15.111 62.7157 15.0935 62.7356 15.0728 62.7515C15.052 62.7674 15.0283 62.7791 15.0029 62.7859C14.8396 62.8277 14.6714 62.848 14.5027 62.8464Z" fill="#F47C53"/>
  <path d="M10.6062 52.7216L15.2668 54.9402C15.5397 55.1445 15.8504 55.2932 16.181 55.3779C16.5116 55.4626 16.8557 55.4816 17.1937 55.4338C17.5316 55.386 17.8568 55.2723 18.1507 55.0993C18.4446 54.9263 18.7013 54.6973 18.9064 54.4255C19.1114 54.1538 19.2607 53.8445 19.3457 53.5153C19.4307 53.1861 19.4497 52.8434 19.4017 52.5069C19.3538 52.1703 19.2397 51.8465 19.066 51.5539C18.8923 51.2613 18.6625 51.0057 18.3896 50.8016L15.4161 48.5747C13.3725 47.0896 11.5237 46.3877 10.1419 48.2251C8.1771 50.8277 9.49667 51.8903 10.6062 52.7216Z" fill="#FFAD97"/>
  <path d="M17.245 54.3169C17.2129 54.3167 17.1809 54.313 17.1496 54.3059C17.0612 54.2853 15.6546 53.9632 15.0176 53.4663C14.755 53.2613 14.7412 52.8553 14.9955 52.324C15.3437 51.5766 16.2169 50.5664 16.7917 50.6862C17.5462 50.8431 18.6502 51.5808 18.5963 52.3378C18.5549 52.9158 18.0353 53.8682 17.5849 54.1903C17.4876 54.2669 17.3688 54.3111 17.245 54.3169ZM16.6923 51.0027C16.38 51.0027 15.6477 51.6991 15.2925 52.4616C15.1226 52.825 15.095 53.1113 15.2207 53.209C15.8066 53.6659 17.209 53.9838 17.2242 53.988C17.2873 53.9885 17.3481 53.9648 17.3942 53.9219C17.7686 53.6549 18.2343 52.7974 18.2688 52.313C18.3061 51.7858 17.3472 51.1362 16.724 51.0068C16.7136 51.0042 16.703 51.0029 16.6923 51.0027Z" fill="#F47C53"/>
  <path d="M16.8403 55.6446C14.9999 55.6446 11.8274 53.5126 11.6795 53.4122C11.6429 53.3879 11.6174 53.3501 11.6087 53.3071C11.6 53.2642 11.6089 53.2195 11.6332 53.183C11.6576 53.1465 11.6955 53.1211 11.7387 53.1125C11.7818 53.1039 11.8266 53.1126 11.8633 53.1369C11.902 53.1631 15.7515 55.7519 17.2701 55.2523C17.3115 55.2386 17.3567 55.2419 17.3957 55.2614C17.4347 55.2809 17.4643 55.315 17.478 55.3562C17.4918 55.3975 17.4885 55.4425 17.4689 55.4813C17.4494 55.5202 17.4151 55.5497 17.3737 55.5634C17.2013 55.6184 17.0213 55.6458 16.8403 55.6446Z" fill="#F47C53"/>
  <path d="M16.7111 93.5078C16.7111 93.5078 16.6752 85.7632 17.6852 84.8947C18.6953 84.0262 24.8164 85.4934 30.8215 82.8977C36.8266 80.3019 38.6408 79.077 39.094 80.8332C39.5472 82.5894 39.4339 89.7944 39.4339 89.7944L16.7111 93.5078Z" fill="#C9FFB3"/>
  <path d="M60.3523 174.497C56.862 174.395 53.4426 174.165 50.0942 173.809C35.8484 172.319 23.3062 178.655 13.2167 173.553C10.6398 147.708 15.3377 91.2638 16.2345 91.1702C16.392 91.1509 16.5619 91.1399 16.7443 91.1358C17.0207 91.1261 17.3247 91.1357 17.6508 91.1454C18.2491 91.1674 18.9261 91.2142 19.6723 91.2583C21.2202 91.3703 22.774 91.38 24.3232 91.2871H24.3329C24.8561 91.2514 25.3885 91.194 25.9302 91.1151H25.9412C27.4351 90.905 28.8956 90.5044 30.2868 89.9232C33.7315 88.4615 36.5959 87.7445 38.4502 87.7211C38.6724 87.7161 38.8948 87.7235 39.1162 87.7431C39.2281 87.7555 39.3345 87.7693 39.434 87.7872C40.0862 87.8973 40.5104 88.1519 40.6638 88.54C40.7619 88.796 49.746 122.743 55.5493 148.578C58.1304 160.02 60.0801 169.871 60.3523 174.497Z" fill="#2FA500"/>
  <path d="M64.7217 56.594C63.6605 58.8506 63.1014 61.309 63.0825 63.8009C63.0637 66.2928 63.5856 68.7593 64.6125 71.0317C65.3145 72.5883 65.881 73.999 66.091 74.9047C66.6879 77.466 67.7684 77.0173 68.183 77.9973C69.2041 80.4058 67.8748 84.4137 68.3363 86.3488C68.9637 88.9831 70.5057 89.0079 70.5057 89.0079L90.9749 87.4293C90.9749 87.4293 90.4678 85.3716 90.2398 80.348C90.1569 78.512 89.6622 76.2906 91.1683 73.7706C93.27 70.2582 92.7311 65.163 92.6758 60.4491C92.6496 58.2387 92.3262 54.078 91.9849 52.5668C91.6326 50.9744 92.4313 45.158 90.2439 44.8731C86.3751 44.3694 85.9384 59.059 83.9902 57.1142C81.503 54.6299 79.0407 51.6791 76.2676 48.1034C70.0995 40.1386 67.9757 49.671 64.7217 56.594Z" fill="#FFAD97"/>
  <path d="M77.8729 78.9198C77.8424 78.9176 77.8128 78.9082 77.7867 78.8924C77.7605 78.8766 77.7384 78.8549 77.7223 78.829C77.218 77.9279 76.9202 76.9267 76.8504 75.8974C76.7705 74.8765 76.906 73.8502 77.2484 72.8846C77.6767 71.6665 78.4339 70.5035 79.4993 69.4245C79.5359 69.388 79.5856 69.3675 79.6374 69.3675C79.6893 69.3675 79.739 69.388 79.7756 69.4245C79.8123 69.461 79.8328 69.5105 79.8328 69.5621C79.8328 69.6138 79.8123 69.6633 79.7756 69.6998C78.7504 70.7375 78.0236 71.8537 77.6146 73.0181C77.2893 73.9337 77.1608 74.9071 77.2373 75.8754C77.3061 76.8407 77.5837 77.7797 78.0512 78.628C78.0647 78.6493 78.0738 78.6731 78.078 78.6979C78.0823 78.7227 78.0815 78.7482 78.0759 78.7727C78.0702 78.7973 78.0598 78.8205 78.0451 78.841C78.0304 78.8615 78.0118 78.8789 77.9904 78.8923C77.9549 78.9131 77.914 78.9227 77.8729 78.9198Z" fill="#F47C53"/>
  <path d="M94.6063 174.145C82.3336 174.324 49.5143 176.059 46.1719 175.71C47.4956 167.942 49.8888 139.574 52.0761 130.863C58.3492 105.884 66.5264 81.2688 67.1371 81.3073C67.6084 81.347 68.0759 81.423 68.5355 81.5344C71.4026 82.1717 76.0646 83.7971 81.2061 82.4855C85.3513 81.4312 88.5901 81.2468 90.3146 81.7395C91.1187 81.9721 91.5968 82.352 91.6852 82.8612C91.7419 83.1764 94.1558 145.37 94.6063 174.145Z" fill="#136BE1"/>
  <path d="M90.9834 49.6668C90.6499 49.6638 90.3285 49.5423 90.077 49.3241C89.9816 49.2443 89.5436 48.7158 90.2303 46.0457C90.2419 46.0096 90.2668 45.9793 90.3001 45.9609C90.3333 45.9425 90.3724 45.9374 90.4092 45.9467C90.4461 45.956 90.478 45.979 90.4984 46.011C90.5189 46.0429 90.5263 46.0814 90.5191 46.1187C90.2428 47.2087 89.9775 48.8521 90.269 49.0957C90.3863 49.2003 90.5256 49.2774 90.6767 49.3215C90.8278 49.3656 90.9869 49.3754 91.1423 49.3503C91.1808 49.3416 91.2211 49.3482 91.2547 49.3688C91.2883 49.3894 91.3124 49.4223 91.3219 49.4604C91.3267 49.4792 91.3277 49.4987 91.3248 49.5179C91.322 49.5371 91.3154 49.5555 91.3053 49.5721C91.2953 49.5888 91.2821 49.6033 91.2665 49.6148C91.2508 49.6263 91.233 49.6346 91.2141 49.6393C91.1386 49.6575 91.0611 49.6667 90.9834 49.6668Z" fill="#F47C53"/>
  <path d="M69.9908 78.6641C69.9793 78.6654 69.9677 78.6654 69.9562 78.6641C68.2981 78.2595 67.3945 77.4777 66.9261 76.8942C66.626 76.5411 66.4084 76.126 66.2891 75.6789C66.2788 75.629 66.2889 75.5772 66.317 75.5347C66.3451 75.4923 66.389 75.4627 66.439 75.4525C66.489 75.4422 66.5411 75.4522 66.5837 75.4802C66.6263 75.5083 66.656 75.552 66.6663 75.6018C66.7771 75.9967 66.9733 76.3626 67.2411 76.674C67.6736 77.2038 68.5109 77.9126 70.0488 78.2925C70.096 78.3034 70.1373 78.3317 70.1644 78.3716C70.1916 78.4115 70.2026 78.4602 70.1953 78.5079C70.1879 78.5555 70.1628 78.5987 70.1249 78.6287C70.087 78.6587 70.0391 78.6733 69.9908 78.6696V78.6641Z" fill="#F47C53"/>
  <path d="M61.1285 69.197L66.0461 71.1115C66.6392 71.4903 67.3589 71.6192 68.0473 71.4698C68.7357 71.3204 69.3364 70.9049 69.7174 70.3146C69.9059 70.0223 70.0348 69.6959 70.0967 69.3541C70.1586 69.0122 70.1523 68.6615 70.0782 68.3221C70.004 67.9826 69.8634 67.661 69.6645 67.3757C69.4656 67.0904 69.2122 66.8468 68.9188 66.6591L65.72 64.6111C63.5244 63.2499 61.5872 62.6718 60.3119 64.6524C58.5101 67.4477 59.9346 68.4318 61.1285 69.197Z" fill="#FFAD97"/>
  <path d="M67.9873 70.3597C67.9625 70.3617 67.9375 70.3617 67.9127 70.3597C67.8174 70.3445 66.3569 70.1202 65.6646 69.6577C65.4933 69.5435 65.2501 69.2338 65.543 68.4576C65.8456 67.6593 66.676 66.5583 67.2895 66.634C68.0813 66.7399 69.2793 67.4226 69.2806 68.2112C69.2806 68.8113 68.8177 69.8325 68.3784 70.2C68.2709 70.2974 68.1325 70.3539 67.9873 70.3597ZM67.2177 67.0207C66.9192 67.0207 66.2145 67.808 65.9161 68.5925C65.7779 68.9558 65.7669 69.2421 65.8871 69.3219C66.5116 69.7348 67.9597 69.9592 67.9749 69.9619C67.9928 69.9619 68.0398 69.9537 68.1131 69.889C68.4613 69.5986 68.873 68.6874 68.873 68.2071C68.873 67.6827 67.8616 67.106 67.2274 67.0221L67.2177 67.0207Z" fill="#F47C53"/>
  <path d="M67.3512 71.7601C67.1663 71.7594 66.9816 71.746 66.7985 71.7202C65.4651 71.5317 60.857 69.2181 60.6567 69.1203C60.6332 69.1086 60.6124 69.0924 60.5953 69.0726C60.5782 69.0528 60.5651 69.0299 60.5569 69.0051C60.5487 68.9803 60.5455 68.9541 60.5474 68.9281C60.5494 68.9021 60.5564 68.8767 60.5682 68.8533C60.58 68.83 60.5963 68.8092 60.6162 68.7922C60.636 68.7752 60.659 68.7622 60.6839 68.754C60.7088 68.7458 60.7351 68.7426 60.7612 68.7445C60.7874 68.7465 60.8129 68.7535 60.8363 68.7652C60.8833 68.7886 65.5867 71.1477 66.8538 71.3266C68.0711 71.4986 68.7357 71.0018 68.7426 70.9977C68.7844 70.9655 68.8373 70.9513 68.8896 70.958C68.942 70.9647 68.9895 70.9918 69.0218 71.0334C69.054 71.0751 69.0683 71.1277 69.0616 71.1799C69.0549 71.232 69.0276 71.2793 68.9858 71.3115C68.9527 71.328 68.382 71.7601 67.3512 71.7601Z" fill="#F47C53"/>
  <path d="M68.2001 86.9564C68.2314 86.7118 68.3434 86.4844 68.5185 86.3101C68.6935 86.1357 68.9217 86.0242 69.1673 85.9929C69.7794 85.9585 70.216 86.3962 70.1856 86.8628C70.1602 87.1392 70.031 87.3959 69.8237 87.5814C69.6164 87.7669 69.3464 87.8676 69.0678 87.8634C68.5925 87.8303 68.178 87.4229 68.2001 86.9564Z" fill="#FFEFD9"/>
  <path d="M70.0875 62.7984C69.6614 62.6305 69.2728 62.3807 68.9437 62.0631C68.6146 61.7455 68.3516 61.3665 68.1696 60.9477C67.9877 60.5288 67.8903 60.0783 67.8832 59.622C67.8761 59.1657 67.9593 58.7124 68.1282 58.2882L80.9936 25.9375C81.1623 25.5131 81.4133 25.1259 81.7322 24.7981C82.0511 24.4703 82.4318 24.2083 82.8524 24.0271C83.273 23.8459 83.7254 23.7489 84.1836 23.7419C84.6418 23.7348 85.0969 23.8177 85.523 23.9859C86.3833 24.3255 87.073 24.9916 87.4404 25.8376C87.8078 26.6837 87.8229 27.6404 87.4823 28.4975L74.6155 60.8481C74.4468 61.2724 74.1959 61.6594 73.877 61.987C73.5581 62.3147 73.1776 62.5765 72.7571 62.7576C72.3366 62.9388 71.8844 63.0356 71.4264 63.0426C70.9683 63.0495 70.5133 62.9666 70.0875 62.7984Z" fill="#002B34"/>
  <path d="M95.4769 45.6009L59.4631 32.1129C59.172 32.0047 58.9067 31.8374 58.6839 31.6218C58.4611 31.4061 58.2857 31.1467 58.1688 30.86C58.0519 30.5733 57.9961 30.2655 58.0048 29.9562C58.0135 29.6468 58.0866 29.3427 58.2195 29.063L69.25 5.83053C69.5007 5.30225 69.9491 4.89268 70.4991 4.68948C71.0491 4.48628 71.6572 4.50557 72.1931 4.74323L104.916 19.247C105.43 19.4747 105.84 19.8866 106.064 20.401C106.288 20.9154 106.309 21.4948 106.125 22.0244L98.3869 44.2425C98.2884 44.5242 98.1344 44.7834 97.9339 45.0049C97.7333 45.2265 97.4903 45.4058 97.2192 45.5324C96.9481 45.6589 96.6542 45.7302 96.355 45.742C96.0558 45.7538 95.7573 45.7058 95.4769 45.6009Z" fill="#94C358"/>
  <path d="M59.5081 61.1729L64.8969 64.377C65.2041 64.6547 65.5632 64.8694 65.9538 65.0087C66.3443 65.1481 66.7586 65.2094 67.173 65.1892C67.5873 65.169 67.9936 65.0677 68.3686 64.891C68.7436 64.7143 69.08 64.4658 69.3586 64.1595C69.6373 63.8535 69.8529 63.4958 69.9928 63.1068C70.1327 62.7178 70.1943 62.3051 70.174 61.8924C70.1537 61.4797 70.052 61.075 69.8746 60.7014C69.6972 60.3279 69.4477 59.9928 69.1402 59.7154L65.7909 56.6874C63.4847 54.6615 61.3265 53.6058 59.4348 55.68C56.7805 58.6102 58.2576 60.0429 59.5081 61.1729Z" fill="#FFAD97"/>
  <path d="M67.4137 63.8469C67.3587 63.8467 67.304 63.8374 67.252 63.8193C67.1484 63.7863 65.482 63.2385 64.7649 62.5669C64.4692 62.2916 64.5051 61.7975 64.8644 61.1823C65.3701 60.3152 66.5418 59.1908 67.2286 59.4013C68.1225 59.6766 69.3772 60.6896 69.2266 61.6035C69.1119 62.2916 68.3768 63.3927 67.7964 63.7313C67.6814 63.8029 67.5493 63.8428 67.4137 63.8469ZM67.0448 59.7716C66.6496 59.7716 65.7169 60.5189 65.2126 61.3819C64.9666 61.803 64.9003 62.1457 65.0412 62.2779C65.699 62.8958 67.3612 63.4367 67.3778 63.4422C67.4533 63.4488 67.5287 63.4272 67.5892 63.3817C68.0728 63.0982 68.7333 62.1127 68.8328 61.5305C68.9364 60.8974 67.8489 60.0042 67.1097 59.7771C67.0884 59.7727 67.0666 59.7708 67.0448 59.7716Z" fill="#F47C53"/>
  <path d="M66.6959 65.395C65.3805 65.395 63.2042 63.6168 63.1033 63.537C63.0832 63.5204 63.0665 63.4999 63.0543 63.4769C63.0421 63.4539 63.0346 63.4286 63.0321 63.4027C63.0297 63.3768 63.0324 63.3506 63.0401 63.3257C63.0478 63.3008 63.0604 63.2777 63.0771 63.2576C63.0938 63.2375 63.1143 63.2209 63.1374 63.2088C63.1605 63.1966 63.1858 63.1891 63.2119 63.1867C63.2379 63.1842 63.2642 63.1869 63.2892 63.1946C63.3142 63.2023 63.3374 63.2148 63.3576 63.2314C64.0042 63.7627 65.8862 65.1156 66.8119 64.9904C66.8628 64.986 66.9135 65.0012 66.9534 65.033C66.9933 65.0647 67.0195 65.1105 67.0264 65.161C67.0333 65.2114 67.0205 65.2625 66.9906 65.3038C66.9607 65.3451 66.916 65.3733 66.8658 65.3826C66.8096 65.3909 66.7528 65.395 66.6959 65.395Z" fill="#F47C53"/>
  <path d="M62.6496 54.2712L67.5231 58.213C68.0567 58.8564 68.8251 59.2623 69.6591 59.3416C70.4932 59.4208 71.3248 59.1669 71.9709 58.6356C72.6165 58.1038 73.0238 57.3385 73.1033 56.5078C73.1829 55.6771 72.9281 54.8489 72.3951 54.2052L69.5155 50.7327C67.5231 48.3929 65.5402 47.0469 63.375 48.8292C60.3241 51.3465 61.5802 52.9761 62.6496 54.2712Z" fill="#FFAD97"/>
  <path d="M70.1752 58.0503C70.093 58.0512 70.0118 58.0318 69.9389 57.9938C69.8408 57.9457 68.2712 57.168 67.6591 56.4C67.4076 56.0835 67.5209 55.6018 67.9589 55.043C68.5834 54.2585 69.9044 53.3129 70.5538 53.6185C71.3995 54.0162 72.4883 55.1999 72.2119 56.0766C71.9991 56.7482 71.1065 57.7282 70.4903 57.9801C70.3907 58.0234 70.2838 58.0472 70.1752 58.0503ZM70.2609 53.9543C69.8367 53.9543 68.8667 54.542 68.2712 55.2893C67.9672 55.672 67.8567 56.0023 67.9713 56.1523C68.5337 56.8584 70.102 57.6318 70.1172 57.6387C70.1915 57.656 70.2696 57.6458 70.3369 57.6098C70.855 57.3979 71.6509 56.517 71.8292 55.9582C72.024 55.3471 71.0761 54.3066 70.377 53.9791C70.3405 53.9625 70.3009 53.9541 70.2609 53.9543Z" fill="#F47C53"/>
  <path d="M69.7068 59.5549C67.554 59.5549 63.8841 55.5635 63.7266 55.3915C63.6899 55.3526 63.6703 55.3008 63.672 55.2475C63.6737 55.1942 63.6965 55.1438 63.7356 55.1073C63.7746 55.0708 63.8266 55.0512 63.8801 55.0529C63.9336 55.0545 63.9842 55.0773 64.0209 55.1162C64.0596 55.1589 67.8663 59.3113 69.8076 59.1475C69.8604 59.1433 69.9127 59.1601 69.953 59.1943C69.9933 59.2285 70.0183 59.2773 70.0225 59.3298C70.0267 59.3824 70.0098 59.4345 69.9755 59.4746C69.9411 59.5148 69.8922 59.5397 69.8394 59.5439C69.7971 59.5512 69.7528 59.5549 69.7068 59.5549Z" fill="#F47C53"/>
  <path d="M67.3181 48.8644L71.5062 51.8772C71.9752 52.3806 72.6257 52.6779 73.3147 52.7037C74.0036 52.7295 74.6747 52.4817 75.1803 52.0149C75.6853 51.5478 75.9834 50.9001 76.0093 50.2142C76.0352 49.5283 75.7868 48.8601 75.3185 48.3566L72.7913 45.6369C71.0461 43.8119 69.3535 42.7921 67.6581 44.357C65.2745 46.5729 66.3799 47.8501 67.3181 48.8644Z" fill="#FFAD97"/>
  <path d="M73.6477 51.6247C73.5896 51.6247 73.5321 51.6125 73.4791 51.589C73.3962 51.5545 72.0697 50.9875 71.5322 50.3847C71.3098 50.1356 71.3747 49.735 71.7146 49.2561C72.1913 48.583 73.2345 47.7421 73.7789 47.9651C74.4933 48.2541 75.4481 49.1762 75.2602 49.9085C75.122 50.47 74.4311 51.3151 73.9337 51.5518C73.8447 51.5964 73.7472 51.6212 73.6477 51.6247ZM73.5758 48.2555C73.2359 48.2555 72.4456 48.7895 71.9827 49.4446C71.7505 49.7722 71.6718 50.0488 71.7768 50.1672C72.2715 50.7177 73.5952 51.2834 73.609 51.2889C73.6711 51.2999 73.735 51.2877 73.7886 51.2545C74.2031 51.0563 74.8166 50.2911 74.9382 49.8259C75.0695 49.3139 74.2473 48.5032 73.6518 48.2651C73.6272 48.2577 73.6015 48.2545 73.5758 48.2555Z" fill="#F47C53"/>
  <path d="M73.2758 52.8816C71.492 52.8816 68.3899 49.8674 68.2531 49.7339C68.2251 49.7029 68.21 49.6623 68.211 49.6206C68.212 49.5788 68.2289 49.539 68.2584 49.5093C68.2879 49.4795 68.3277 49.4622 68.3696 49.4607C68.4115 49.4592 68.4524 49.4738 68.4839 49.5014C68.5171 49.533 71.8415 52.7619 73.425 52.5444C73.4662 52.5423 73.5067 52.5557 73.5384 52.5819C73.5702 52.6081 73.5909 52.6452 73.5964 52.6859C73.602 52.7266 73.592 52.7679 73.5685 52.8016C73.5449 52.8353 73.5095 52.8589 73.4692 52.8678C73.4051 52.8767 73.3405 52.8813 73.2758 52.8816Z" fill="#F47C53"/>
  <path d="M92.496 21.6176C92.4206 20.782 92.1566 19.9741 91.7236 19.2545C91.2782 18.5212 90.6995 17.8771 90.0171 17.3552C89.3051 16.806 88.5208 16.3568 87.6861 16.0201C86.8195 15.6626 85.9 15.4487 84.9641 15.387C84.0778 15.3244 83.1875 15.4266 82.3388 15.6884C81.4985 15.9518 80.7163 16.3722 80.034 16.9271C80.022 16.9335 80.0113 16.9418 80.0022 16.9519C78.8968 17.8438 79.0682 19.5669 80.2965 20.2771L80.6655 20.489C81.0505 20.7037 81.4942 20.7903 81.9321 20.7364C82.37 20.6824 82.7792 20.4906 83.1001 20.189C83.3235 19.9887 83.5737 19.8201 83.8435 19.688C84.1678 19.5297 84.523 19.4439 84.8842 19.4368C85.2453 19.4297 85.6037 19.5013 85.9341 19.6467C86.6259 19.9284 87.097 20.356 87.3476 20.9295C87.5963 21.5034 87.588 22.1145 87.32 22.7696C87.1108 23.2998 86.7548 23.7599 86.2933 24.0964C86.2215 24.1515 86.1468 24.2024 86.0667 24.2547C85.6253 24.5416 85.1553 24.7824 84.6642 24.9731L80.8271 26.3563L75.7147 28.2075C75.4458 28.3053 75.2004 28.4581 74.9943 28.656C74.7882 28.854 74.626 29.0926 74.5181 29.3567L74.1561 30.2431C74.0543 30.491 74.0026 30.7564 74.0039 31.0242C74.0053 31.2919 74.0596 31.5568 74.1638 31.8037C74.268 32.0505 74.4201 32.2745 74.6113 32.4627C74.8024 32.651 75.029 32.7999 75.278 32.9008L77.8232 33.933L84.2856 36.555L84.7803 36.7559C85.0253 36.8564 85.2878 36.9078 85.5527 36.9073C86.0276 36.9083 86.4881 36.7445 86.8551 36.4442C87.222 36.1439 87.4726 35.7257 87.5638 35.2614C87.655 34.7972 87.5811 34.3158 87.3548 33.8998C87.1286 33.4839 86.764 33.1594 86.3237 32.982L85.7931 32.7673L82.3277 31.3607C82.2018 31.3107 82.0943 31.2236 82.0197 31.111C81.945 30.9984 81.9068 30.8657 81.9101 30.7308C81.9134 30.5959 81.9581 30.4652 82.0382 30.3564C82.1183 30.2475 82.2299 30.1657 82.3581 30.122L86.5185 28.6548C86.8764 28.5172 87.2301 28.3878 87.577 28.2419C87.7851 28.1575 87.9915 28.0722 88.196 27.9859C88.7386 27.7609 89.2583 27.4844 89.7477 27.1601C90.237 26.8314 90.6787 26.4373 91.0603 25.9889C91.4758 25.4894 91.8079 24.9266 92.0441 24.3221C92.4126 23.4705 92.5677 22.5423 92.496 21.6176Z" fill="#015700"/>
  <path d="M120.086 54.1866C119.238 56.5313 118.909 59.0306 119.121 61.5137C119.333 63.9967 120.081 66.4049 121.314 68.5733C122.157 70.0584 122.85 71.4113 123.145 72.2894C123.974 74.7847 125.009 74.2397 125.513 75.1797C126.757 77.4837 125.8 81.5962 126.439 83.4817C127.307 86.0458 128.844 85.9302 128.844 85.9302L149.087 82.4798C149.087 82.4798 148.396 80.4758 147.705 75.4949C147.452 73.674 146.753 71.5035 148.02 68.861C149.788 65.1697 148.78 60.1461 148.288 55.4583C148.059 53.2562 147.352 49.1451 146.878 47.6724C146.379 46.1185 146.636 40.2526 144.432 40.17C140.533 40.0255 141.451 54.6972 139.337 52.9355C136.628 50.6893 133.906 47.9807 130.815 44.6775C123.921 37.3073 122.69 46.9897 120.086 54.1866Z" fill="#FFAD97"/>
  <path d="M135.252 75.2072C135.221 75.2078 135.191 75.2012 135.163 75.1881C135.136 75.1749 135.112 75.1556 135.093 75.1315C134.509 74.2796 134.12 73.3103 133.954 72.2921C133.78 71.283 133.82 70.2487 134.072 69.2559C134.385 68.0035 135.032 66.7785 135.992 65.6031C136.008 65.5833 136.028 65.5667 136.05 65.5543C136.072 65.5419 136.096 65.534 136.121 65.531C136.147 65.528 136.172 65.5299 136.197 65.5368C136.221 65.5436 136.244 65.5552 136.264 65.5708C136.284 65.5864 136.301 65.6058 136.313 65.6279C136.325 65.6499 136.333 65.6742 136.336 65.6993C136.339 65.7244 136.337 65.7499 136.331 65.7743C136.324 65.7986 136.312 65.8214 136.296 65.8413C135.372 66.9685 134.752 68.1466 134.452 69.344C134.213 70.285 134.175 71.2655 134.341 72.2219C134.498 73.1792 134.861 74.0913 135.407 74.8948C135.423 74.9149 135.435 74.9382 135.442 74.9633C135.45 74.9884 135.451 75.0146 135.448 75.0404C135.444 75.0663 135.436 75.0911 135.422 75.1134C135.409 75.1357 135.391 75.155 135.369 75.17C135.335 75.1947 135.294 75.2078 135.252 75.2072Z" fill="#F47C53"/>
  <path d="M162.805 181.19C147.282 179.539 130.797 178.824 115.979 177.285C115.942 176.46 114.735 158.292 114.716 157.418C114.701 156.617 114.697 155.793 114.701 154.952C114.712 151.525 114.858 147.795 115.104 143.898C115.158 143.064 115.216 142.221 115.278 141.369C115.617 136.729 116.087 131.886 116.637 127.038C116.729 126.237 116.821 125.435 116.913 124.631C117.379 120.709 117.894 116.803 118.433 113.018C118.546 112.228 118.659 111.444 118.773 110.666C119.432 106.157 120.113 101.857 120.768 97.9539C120.908 97.1363 121.046 96.3358 121.183 95.5522C121.557 93.4051 121.916 91.4067 122.258 89.5844C122.413 88.7531 122.564 87.9613 122.711 87.2089C123.753 81.8591 124.542 78.5779 124.775 78.571C125.248 78.5671 125.72 78.5998 126.187 78.6687C129.101 79.039 133.895 80.2281 138.899 78.4485C142.927 77.0185 146.134 76.5354 147.9 76.8713C148.729 77.0295 149.233 77.364 149.366 77.8622C149.388 77.9475 149.91 81.303 150.727 86.7134C150.838 87.452 150.954 88.2287 151.075 89.0435C151.538 92.1416 152.073 95.7517 152.645 99.7073C152.764 100.518 152.883 101.344 153.004 102.185C153.444 105.244 153.905 108.479 154.372 111.819C154.483 112.601 154.593 113.388 154.702 114.181C155.319 118.608 155.946 123.181 156.541 127.738C156.646 128.536 156.75 129.333 156.854 130.13C157.527 135.295 158.165 140.405 158.725 145.218C158.817 146.012 158.909 146.797 159.001 147.572C159.482 151.811 159.899 155.78 160.215 159.307C160.289 160.127 160.358 160.924 160.421 161.697C160.507 162.768 162.74 180.217 162.805 181.19Z" fill="#015700"/>
  <path d="M145.313 44.8723C145.08 44.8433 144.858 44.7577 144.666 44.6232C144.564 44.553 144.079 44.0658 144.515 41.3448C144.517 41.3247 144.524 41.3052 144.534 41.2876C144.543 41.27 144.557 41.2546 144.573 41.2424C144.589 41.2301 144.607 41.2212 144.627 41.2163C144.647 41.2113 144.667 41.2104 144.687 41.2136C144.707 41.2168 144.726 41.224 144.743 41.2348C144.761 41.2456 144.775 41.2597 144.787 41.2764C144.798 41.293 144.806 41.3118 144.81 41.3316C144.814 41.3514 144.814 41.3718 144.81 41.3916C144.633 42.5022 144.522 44.1621 144.836 44.3782C144.962 44.4713 145.108 44.5352 145.262 44.5652C145.416 44.5952 145.575 44.5906 145.727 44.5516C145.764 44.5421 145.803 44.5466 145.836 44.5642C145.869 44.5819 145.895 44.6115 145.907 44.647C145.92 44.6826 145.919 44.7215 145.904 44.7561C145.889 44.7907 145.861 44.8184 145.827 44.8337C145.66 44.8822 145.485 44.8953 145.313 44.8723Z" fill="#F47C53"/>
  <path d="M127.378 75.6769C127.367 75.6782 127.355 75.6782 127.344 75.6769C125.658 75.425 124.684 74.73 124.166 74.1919C123.835 73.8672 123.58 73.4739 123.418 73.0399C123.411 73.0157 123.409 72.9904 123.411 72.9654C123.414 72.9403 123.421 72.916 123.433 72.8938C123.445 72.8716 123.461 72.852 123.481 72.8361C123.501 72.8202 123.523 72.8083 123.547 72.8011C123.572 72.7938 123.597 72.7914 123.622 72.794C123.647 72.7965 123.672 72.804 123.694 72.816C123.716 72.8279 123.736 72.8441 123.752 72.8636C123.768 72.8832 123.78 72.9056 123.787 72.9298C123.935 73.3122 124.164 73.6583 124.459 73.9441C124.938 74.4327 125.84 75.0644 127.405 75.2984C127.451 75.3062 127.494 75.331 127.523 75.368C127.553 75.405 127.568 75.4517 127.565 75.4989C127.562 75.5461 127.542 75.5906 127.508 75.6238C127.474 75.6569 127.429 75.6763 127.381 75.6783L127.378 75.6769Z" fill="#F47C53"/>
  <path d="M117.678 67.0618L122.756 68.5166C123.381 68.8397 124.11 68.9021 124.781 68.6902C125.453 68.4783 126.013 68.0094 126.337 67.3866C126.661 66.7637 126.724 66.0379 126.511 65.369C126.299 64.7 125.828 64.1425 125.203 63.8192L121.829 62.074C119.517 60.9206 117.534 60.5229 116.448 62.6122C114.909 65.5685 116.419 66.4108 117.678 67.0618Z" fill="#FFAD97"/>
  <path d="M124.555 67.3919C124.555 67.3919 123.035 67.3079 122.333 66.9239C121.631 66.5399 122.871 64.1093 123.569 64.1369C124.266 64.1644 125.442 64.6805 125.503 65.3453C125.564 66.01 125.022 67.4332 124.555 67.3919Z" fill="#F47C53"/>
  <path d="M123.386 69.0373C121.866 68.8515 117.385 67.1022 117.188 67.0252C117.164 67.0156 117.142 67.0013 117.123 66.9832C117.104 66.9651 117.089 66.9435 117.079 66.9196C117.069 66.8957 117.063 66.8699 117.063 66.8439C117.062 66.8179 117.067 66.792 117.076 66.7678C117.086 66.7436 117.1 66.7215 117.119 66.7028C117.137 66.684 117.158 66.6691 117.182 66.6587C117.206 66.6484 117.232 66.6428 117.258 66.6424C117.285 66.642 117.311 66.6467 117.335 66.6563C117.385 66.6756 122.288 68.5969 123.564 68.6533C124.781 68.7125 125.408 68.1579 125.415 68.1524C125.454 68.1159 125.506 68.0962 125.559 68.0978C125.613 68.0993 125.663 68.1219 125.7 68.1606C125.737 68.1993 125.756 68.2509 125.755 68.3041C125.753 68.3573 125.73 68.4076 125.692 68.4441C125.661 68.4717 124.946 69.1185 123.55 69.0511C123.496 69.0484 123.445 69.0442 123.386 69.0373Z" fill="#F47C53"/>
  <path d="M126.005 59.8664C125.565 59.7381 125.155 59.5249 124.798 59.2388C124.441 58.9527 124.144 58.5994 123.924 58.199C123.704 57.7985 123.566 57.3589 123.516 56.9051C123.467 56.4513 123.508 55.9923 123.637 55.5543L133.455 22.1604C133.584 21.7224 133.798 21.3139 134.085 20.9582C134.373 20.6026 134.727 20.3068 135.129 20.0877C135.531 19.8687 135.973 19.7306 136.428 19.6815C136.884 19.6324 137.345 19.6731 137.784 19.8014C138.672 20.0606 139.421 20.6605 139.864 21.4692C140.308 22.2778 140.412 23.229 140.151 24.1134L130.334 57.5073C130.205 57.9454 129.991 58.3539 129.704 58.7095C129.417 59.0651 129.062 59.3609 128.66 59.58C128.258 59.7991 127.817 59.9371 127.361 59.9862C126.906 60.0354 126.445 59.9946 126.005 59.8664Z" fill="#002B34"/>
  <path d="M153.157 40.7689L114.665 30.2647C114.355 30.18 114.066 30.0322 113.816 29.8307C113.566 29.6291 113.361 29.3782 113.213 29.0938C113.066 28.8093 112.979 28.4975 112.958 28.1779C112.937 27.8583 112.983 27.5378 113.093 27.2368L122.255 2.18761C122.464 1.61816 122.888 1.15259 123.437 0.8905C123.985 0.628406 124.615 0.590585 125.191 0.785125L160.38 12.6491C160.934 12.8343 161.398 13.2201 161.68 13.73C161.961 14.2399 162.04 14.8367 161.9 15.4017L156.033 39.087C155.959 39.3877 155.825 39.6705 155.639 39.9188C155.453 40.1671 155.219 40.3757 154.951 40.5325C154.683 40.6892 154.386 40.7909 154.078 40.8315C153.77 40.8721 153.456 40.8508 153.157 40.7689Z" fill="#94C358"/>
  <path d="M115.324 59.2206L120.989 61.9168C121.659 62.4172 122.501 62.6324 123.33 62.515C124.159 62.3976 124.908 61.9572 125.411 61.2906C125.913 60.6234 126.13 59.7849 126.012 58.9591C125.894 58.1334 125.453 57.3878 124.784 56.8863L121.169 54.1818C118.682 52.3761 116.438 51.5241 114.752 53.7689C112.371 56.9193 113.976 58.2103 115.324 59.2206Z" fill="#FFAD97"/>
  <path d="M123.325 60.9495C123.325 60.9495 121.568 60.5573 120.812 59.9668C120.056 59.3764 121.996 56.771 122.809 56.9389C123.621 57.1068 124.899 57.9422 124.844 58.7281C124.789 59.514 123.862 61.0885 123.325 60.9495Z" fill="#F47C53"/>
  <path d="M122.459 62.7562C121.124 62.5938 119.216 61.3083 119.122 61.2422C119.1 61.2275 119.082 61.2087 119.067 61.1868C119.053 61.165 119.043 61.1405 119.039 61.1149C119.034 61.0893 119.034 61.063 119.039 61.0375C119.045 61.012 119.055 60.9878 119.07 60.9663C119.085 60.9447 119.104 60.9263 119.126 60.9121C119.148 60.8979 119.172 60.8881 119.198 60.8833C119.224 60.8785 119.25 60.8788 119.276 60.8842C119.301 60.8896 119.325 60.8999 119.347 60.9146C120.038 61.3853 122.039 62.5594 122.948 62.3488C122.973 62.3428 123 62.3419 123.026 62.3461C123.052 62.3503 123.076 62.3596 123.099 62.3733C123.121 62.387 123.14 62.405 123.155 62.4262C123.171 62.4474 123.182 62.4713 123.188 62.4967C123.194 62.5221 123.195 62.5484 123.19 62.5742C123.186 62.5999 123.177 62.6246 123.163 62.6468C123.149 62.6689 123.131 62.6882 123.11 62.7034C123.089 62.7187 123.065 62.7296 123.039 62.7355C122.848 62.7753 122.652 62.7823 122.459 62.7562Z" fill="#F47C53"/>
  <path d="M117.816 52.0612L123.032 55.5391C123.623 56.1304 124.426 56.4636 125.264 56.4657C126.101 56.4677 126.905 56.1385 127.499 55.5502C127.794 55.2589 128.028 54.9127 128.187 54.5314C128.347 54.1501 128.43 53.7411 128.431 53.3279C128.433 52.9146 128.352 52.5052 128.194 52.123C128.036 51.7408 127.805 51.3934 127.512 51.1005L124.324 47.9074C122.124 45.7672 120.024 44.6042 118.034 46.5765C115.225 49.3636 116.626 50.8693 117.816 52.0612Z" fill="#FFAD97"/>
  <path d="M125.48 54.9171C125.48 54.9171 123.797 54.2771 123.131 53.5848C122.465 52.8925 124.763 50.5913 125.542 50.8734C126.322 51.1556 127.469 52.1658 127.299 52.9379C127.129 53.71 125.992 55.1304 125.48 54.9171Z" fill="#F47C53"/>
  <path d="M124.869 56.6647C122.658 56.3977 119.149 53.2239 118.987 53.0767C118.948 53.0412 118.925 52.9919 118.922 52.9393C118.92 52.8868 118.938 52.8355 118.974 52.7966C119.009 52.7577 119.059 52.7345 119.112 52.732C119.164 52.7296 119.216 52.7481 119.255 52.7835C119.298 52.822 123.476 56.6001 125.39 56.267C125.416 56.2622 125.442 56.2627 125.468 56.2682C125.493 56.2738 125.518 56.2843 125.539 56.2993C125.561 56.3143 125.579 56.3334 125.593 56.3555C125.607 56.3776 125.616 56.4023 125.621 56.428C125.63 56.4798 125.618 56.533 125.587 56.576C125.557 56.6191 125.511 56.6485 125.459 56.6579C125.264 56.6892 125.065 56.6916 124.869 56.6647Z" fill="#F47C53"/>
  <path d="M121.962 46.2465L126.412 48.8616C126.925 49.3199 127.6 49.5566 128.288 49.5197C128.976 49.4828 129.622 49.1753 130.083 48.6647C130.543 48.1536 130.781 47.4813 130.744 46.7955C130.707 46.1098 130.398 45.4668 129.885 45.0078L127.122 42.5304C125.215 40.8788 123.435 40.0131 121.892 41.728C119.709 44.1504 120.93 45.323 121.962 46.2465Z" fill="#FFAD97"/>
  <path d="M128.394 48.238C128.394 48.238 126.98 47.7907 126.403 47.2525C125.825 46.7144 127.605 44.7173 128.258 44.9128C128.912 45.1082 129.9 45.8844 129.798 46.5286C129.695 47.1727 128.822 48.3894 128.394 48.238Z" fill="#F47C53"/>
  <path d="M127.835 49.691C125.995 49.4694 123.107 47.1393 122.97 47.0292C122.937 47.0013 122.915 46.9615 122.911 46.9183C122.907 46.8751 122.919 46.8319 122.946 46.7979C122.974 46.7647 123.014 46.7437 123.057 46.7395C123.1 46.7354 123.144 46.7485 123.177 46.7759C123.215 46.8048 126.822 49.7171 128.379 49.3524C128.422 49.3429 128.467 49.3504 128.503 49.3733C128.54 49.3963 128.567 49.4327 128.577 49.4749C128.587 49.5171 128.579 49.5612 128.556 49.5978C128.533 49.6344 128.496 49.6605 128.454 49.6703C128.251 49.7136 128.041 49.7206 127.835 49.691Z" fill="#F47C53"/>
  <path d="M151.084 89.041C149.066 89.1786 138.716 89.9136 132.908 90.9211C131.195 91.214 129.448 91.2543 127.724 91.0408C125.844 90.8069 124.006 90.315 122.262 89.5791C122.417 88.7478 122.568 87.956 122.715 87.2036C124.607 88.0569 128.321 89.3314 132.502 88.6075C138.338 87.5931 148.283 86.8788 150.741 86.7109C150.847 87.4504 150.961 88.2271 151.084 89.041Z" fill="#FFCC86"/>
  <path d="M153.019 102.179C151.361 101.82 143.289 100.196 135.51 100.701C133.73 100.814 131.943 100.761 130.173 100.543C126.931 100.138 123.766 99.2649 120.777 97.9499C120.917 97.1323 121.056 96.3317 121.192 95.5482C123.644 96.6823 129.094 98.766 135.353 98.3586C142.585 97.8893 149.847 99.1404 152.658 99.7047C152.774 100.519 152.894 101.343 153.019 102.179Z" fill="#FFCC86"/>
  <path d="M154.378 111.814C151.251 111.713 142.633 111.539 135.005 112.319C128.26 113.007 121.74 111.507 118.777 110.667C118.664 111.445 118.551 112.229 118.438 113.02C120.906 113.703 123.422 114.202 125.965 114.511C129.044 114.899 132.156 114.945 135.245 114.649C143.103 113.843 152.069 114.077 154.708 114.17C154.594 113.379 154.484 112.594 154.378 111.814Z" fill="#FFCC86"/>
  <path d="M156.855 130.117C153.889 129.842 145.065 129.167 136.915 130.117C134.244 130.431 131.493 130.335 128.872 130.018C123.812 129.405 119.232 127.967 116.637 127.031C116.729 126.23 116.821 125.428 116.913 124.624C120.383 125.904 129.017 128.676 136.633 127.79C144.656 126.851 153.076 127.417 156.531 127.728C156.643 128.526 156.751 129.322 156.855 130.117Z" fill="#FFCC86"/>
  <path d="M158.999 147.562C154.905 147.495 143.224 147.36 134.136 147.837C132.102 147.942 130.063 147.869 128.041 147.62C122.501 146.95 117.837 145.156 115.105 143.893C115.159 143.059 115.217 142.215 115.28 141.363C117.666 142.522 122.556 144.582 128.406 145.29C130.265 145.52 132.14 145.588 134.011 145.493C142.946 145.019 154.347 145.134 158.727 145.204C158.82 146.002 158.911 146.788 158.999 147.562Z" fill="#FFCC86"/>
  <path d="M144.242 20.7375C145.142 20.153 145.77 19.2863 146.126 18.1376C146.436 17.1484 146.495 16.2235 146.305 15.3629C146.119 14.5136 145.749 13.715 145.221 13.0231C144.673 12.3098 144.001 11.7004 143.236 11.2243C142.436 10.7203 141.573 10.3241 140.668 10.0461C139.817 9.78114 138.934 9.63161 138.043 9.60157C137.176 9.57063 136.308 9.66756 135.469 9.88922C134.644 10.1113 133.863 10.4745 133.163 10.9628C132.923 11.1305 132.696 11.3145 132.482 11.5133C132.322 11.6584 132.199 11.8389 132.122 12.0401C132.045 12.2414 132.016 12.4578 132.039 12.672C132.061 12.8862 132.133 13.0922 132.25 13.2734C132.367 13.4546 132.525 13.606 132.711 13.7154L134.517 14.7642C134.767 14.9143 135.059 14.9796 135.35 14.9503C135.64 14.921 135.913 14.7987 136.128 14.6018C136.401 14.3424 136.722 14.1369 137.072 13.9962C137.718 13.7395 138.435 13.719 139.095 13.9384C139.751 14.1303 140.324 14.5341 140.724 15.0862C141.128 15.6368 141.214 16.2846 140.982 17.0296C140.868 17.4671 140.628 17.8617 140.291 18.1651C139.988 18.414 139.627 18.5837 139.241 18.6592C138.82 18.7383 138.389 18.7462 137.966 18.6826C137.498 18.6131 137.036 18.5082 136.584 18.3688L136.467 18.3316C136.118 18.2252 135.741 18.2603 135.418 18.4294C135.096 18.5986 134.853 18.888 134.744 19.2345L134.452 20.1663C134.427 20.2451 134.409 20.3263 134.399 20.4085C134.391 20.4756 134.387 20.5432 134.39 20.6108C134.398 20.8969 134.496 21.1732 134.669 21.4013C134.842 21.6295 135.083 21.7982 135.357 21.8839C135.871 22.042 136.369 22.2442 136.848 22.4881C137.296 22.7106 137.708 22.9997 138.069 23.3456C138.396 23.6573 138.639 24.0452 138.777 24.4742C138.909 24.9428 138.893 25.4408 138.731 25.9001C138.628 26.2969 138.427 26.6619 138.146 26.962C137.865 27.2621 137.514 27.4879 137.124 27.6191C136.768 27.7359 136.394 27.7877 136.019 27.7719C135.644 27.7583 135.272 27.6958 134.913 27.5861C133.978 27.297 133.288 26.8011 132.841 26.0982C132.706 25.8885 132.59 25.6675 132.494 25.4376C132.421 25.2671 132.36 25.0914 132.313 24.9119C132.246 24.6326 132.091 24.3822 131.87 24.1978C131.65 24.0133 131.375 23.9046 131.087 23.8879L128.802 23.7874C128.598 23.7769 128.394 23.812 128.205 23.8904C128.016 23.9687 127.848 24.0882 127.711 24.24C127.575 24.3919 127.475 24.5722 127.418 24.7678C127.361 24.9634 127.348 25.1692 127.382 25.3702C127.454 25.7864 127.567 26.1947 127.717 26.5896C128.034 27.4277 128.502 28.2007 129.099 28.8702C129.657 29.489 130.3 30.0264 131.009 30.4667C131.079 30.5121 131.147 30.5548 131.219 30.5975C132.047 31.089 132.932 31.4803 133.854 31.7632C134.807 32.0597 135.798 32.2222 136.797 32.2463C137.771 32.2727 138.742 32.133 139.669 31.8334C140.58 31.527 141.412 31.0225 142.103 30.3566C142.816 29.674 143.349 28.7702 143.701 27.6452C143.879 27.0857 143.954 26.4986 143.922 25.9124C143.89 25.3441 143.76 24.7854 143.538 24.2609C143.312 23.727 143.002 23.2326 142.619 22.7964C142.218 22.3383 141.743 21.9491 141.214 21.6444L141.243 21.5577C142.305 21.6087 143.355 21.3214 144.242 20.7375Z" fill="#3F3F3F"/>
  <path d="M205.48 85.4622C206.449 87.7596 206.908 90.2385 206.826 92.7291C206.744 95.2198 206.123 97.6635 205.006 99.893C204.241 101.421 203.624 102.808 203.371 103.703C202.672 106.239 201.611 105.748 201.16 106.71C200.044 109.076 201.21 113.133 200.671 115.049C199.937 117.656 198.395 117.619 198.395 117.619L178.001 115.223C178.001 115.223 178.591 113.186 179.02 108.174C179.178 106.344 179.762 104.144 178.359 101.568C176.402 97.973 177.145 92.9053 177.391 88.1969C177.506 85.9948 177.998 81.8452 178.393 80.3518C178.808 78.7759 178.247 72.9307 180.444 72.7339C184.324 72.387 184.174 87.0807 186.199 85.2158C188.788 82.8334 191.364 79.9857 194.278 76.5215C200.766 68.8058 202.503 78.4153 205.48 85.4622Z" fill="#FFAD97"/>
  <path d="M191.428 107.244C191.459 107.243 191.489 107.235 191.516 107.22C191.543 107.206 191.566 107.185 191.583 107.16C192.122 106.281 192.459 105.294 192.571 104.27C192.692 103.252 192.598 102.221 192.295 101.242C191.916 100.003 191.206 98.8139 190.186 97.6935C190.169 97.6749 190.149 97.6598 190.126 97.6491C190.103 97.6384 190.078 97.6322 190.053 97.631C190.028 97.6298 190.003 97.6335 189.979 97.642C189.955 97.6505 189.933 97.6636 189.915 97.6805C189.896 97.6974 189.881 97.7178 189.87 97.7405C189.859 97.7632 189.853 97.7879 189.852 97.813C189.851 97.8381 189.854 97.8632 189.863 97.8869C189.871 97.9105 189.884 97.9323 189.901 97.9509C190.884 99.0286 191.56 100.174 191.927 101.353C192.214 102.281 192.303 103.258 192.188 104.221C192.081 105.186 191.766 106.115 191.264 106.947C191.244 106.976 191.232 107.01 191.23 107.045C191.228 107.08 191.236 107.115 191.253 107.146C191.27 107.177 191.295 107.203 191.326 107.22C191.356 107.238 191.391 107.247 191.427 107.245L191.428 107.244Z" fill="#F47C53"/>
  <path d="M215.827 183.628C201.697 181.976 186.554 183.993 171.473 182.373C173.331 153.962 177.414 110.912 177.467 110.626C177.574 110.119 178.068 109.762 178.88 109.559C180.627 109.131 183.854 109.446 187.953 110.66C193.038 112.174 197.763 110.742 200.651 110.22C201.115 110.127 201.585 110.07 202.058 110.048C202.924 110.034 213.515 155.247 215.827 183.628Z" fill="#CB7601"/>
  <path d="M179.404 77.4839C179.361 77.4796 179.318 77.4718 179.276 77.4605C179.257 77.455 179.239 77.4458 179.224 77.4336C179.208 77.4213 179.196 77.4061 179.186 77.3889C179.177 77.3717 179.171 77.3528 179.169 77.3334C179.167 77.3139 179.168 77.2942 179.174 77.2754C179.18 77.2566 179.189 77.2391 179.201 77.2238C179.213 77.2086 179.229 77.1959 179.246 77.1865C179.263 77.1771 179.282 77.1712 179.302 77.1691C179.321 77.167 179.341 77.1687 179.36 77.1743C179.514 77.2054 179.673 77.2017 179.826 77.1636C179.978 77.1255 180.12 77.0539 180.241 76.954C180.543 76.7228 180.346 75.0698 180.11 73.9702C180.102 73.9315 180.109 73.8911 180.131 73.8579C180.153 73.8248 180.187 73.8015 180.226 73.7933C180.264 73.7851 180.305 73.7926 180.338 73.8141C180.371 73.8357 180.395 73.8695 180.403 73.9082C180.981 76.6044 180.522 77.1151 180.424 77.1894C180.282 77.303 180.118 77.3876 179.943 77.4381C179.768 77.4887 179.585 77.5042 179.404 77.4839Z" fill="#F47C53"/>
  <path d="M199.319 107.303H199.353C201.024 106.964 201.961 106.221 202.453 105.651C202.768 105.31 203.004 104.904 203.143 104.462C203.156 104.413 203.148 104.36 203.121 104.317C203.095 104.273 203.053 104.242 203.003 104.23C202.954 104.218 202.901 104.225 202.858 104.252C202.814 104.278 202.783 104.32 202.77 104.37C202.642 104.759 202.431 105.116 202.151 105.417C201.699 105.93 200.833 106.607 199.281 106.923C199.235 106.932 199.193 106.959 199.165 106.998C199.137 107.036 199.125 107.084 199.13 107.131C199.135 107.179 199.158 107.222 199.194 107.254C199.23 107.285 199.276 107.302 199.324 107.301L199.319 107.303Z" fill="#F47C53"/>
  <path d="M208.562 98.1958L203.572 99.9121C202.964 100.267 202.24 100.367 201.558 100.19C200.876 100.014 200.293 99.5744 199.936 98.9693C199.76 98.6698 199.644 98.3385 199.596 97.9943C199.548 97.6502 199.568 97.3 199.656 96.9638C199.744 96.6275 199.897 96.3117 200.107 96.0345C200.318 95.7573 200.581 95.5241 200.881 95.3482L204.16 93.4296C206.408 92.1579 208.368 91.6583 209.563 93.6883C211.242 96.5539 209.778 97.4801 208.562 98.1958Z" fill="#FFAD97"/>
  <path d="M201.619 99.0831C201.488 99.0604 201.366 98.9979 201.271 98.9042C200.846 98.5202 200.423 97.4797 200.442 96.881C200.477 96.0923 201.701 95.4578 202.495 95.3849C203.107 95.3271 203.896 96.4667 204.166 97.276C204.43 98.0646 204.166 98.3633 203.997 98.4706C203.287 98.9056 201.818 99.0707 201.722 99.0817C201.688 99.0864 201.653 99.0868 201.619 99.0831ZM202.574 95.7799H202.54C201.903 95.8391 200.87 96.3745 200.847 96.8975C200.826 97.3778 201.202 98.3041 201.538 98.6096C201.612 98.6757 201.659 98.6908 201.676 98.6881C201.691 98.6881 203.146 98.5271 203.789 98.1376C203.912 98.0632 203.912 97.7756 203.789 97.4081C203.533 96.6195 202.878 95.8184 202.574 95.7813V95.7799Z" fill="#F47C53"/>
  <path d="M201.947 100.483C201.471 100.441 201.014 100.272 200.627 99.9927C200.606 99.976 200.59 99.9555 200.578 99.9324C200.565 99.9093 200.558 99.884 200.556 99.858C200.553 99.832 200.556 99.8057 200.564 99.7808C200.572 99.7559 200.584 99.7327 200.601 99.7126C200.618 99.6926 200.638 99.676 200.662 99.6639C200.685 99.6517 200.71 99.6443 200.736 99.6419C200.762 99.6395 200.789 99.6423 200.814 99.6501C200.839 99.6579 200.862 99.6705 200.882 99.6872C200.895 99.6982 201.55 100.214 202.756 100.093C204.031 99.9652 208.824 97.7961 208.873 97.7741C208.92 97.7569 208.972 97.7582 209.019 97.7776C209.065 97.797 209.103 97.8332 209.123 97.8788C209.144 97.9245 209.147 97.9763 209.132 98.024C209.116 98.0716 209.083 98.1117 209.039 98.1361C208.838 98.2269 204.136 100.353 202.796 100.488C202.514 100.518 202.229 100.516 201.947 100.483Z" fill="#F47C53"/>
  <path d="M199.857 91.4423C200.289 91.2914 200.687 91.0571 201.029 90.7528C201.37 90.4486 201.648 90.0803 201.847 89.669C202.046 89.2578 202.161 88.8115 202.187 88.3559C202.212 87.9002 202.147 87.444 201.996 87.0133L190.446 54.1727C190.294 53.742 190.059 53.3453 189.754 53.0051C189.449 52.6649 189.079 52.388 188.666 52.1902C188.253 51.9923 187.806 51.8774 187.348 51.852C186.891 51.8266 186.433 51.8912 186.001 52.0421C185.568 52.1929 185.17 52.4271 184.828 52.7312C184.486 53.0354 184.208 53.4037 184.009 53.815C183.811 54.2263 183.695 54.6725 183.67 55.1283C183.644 55.584 183.709 56.0403 183.86 56.4711L195.41 89.3117C195.562 89.7424 195.797 90.1392 196.102 90.4794C196.408 90.8196 196.778 91.0965 197.19 91.2943C197.603 91.4922 198.051 91.6071 198.509 91.6324C198.966 91.6578 199.424 91.5932 199.857 91.4423Z" fill="#002B34"/>
  <path d="M173.063 72.7128L211.602 60.0148C211.913 59.9124 212.199 59.7467 212.443 59.5283C212.687 59.31 212.882 59.0436 213.017 58.7461C213.152 58.4486 213.224 58.1264 213.228 57.7999C213.231 57.4734 213.167 57.1497 213.039 56.8492L202.399 31.895C202.157 31.3276 201.702 30.8771 201.131 30.6397C200.56 30.4023 199.918 30.3969 199.343 30.6247L164.233 44.5256C163.681 44.7441 163.231 45.1609 162.974 45.6936C162.716 46.2263 162.668 46.836 162.84 47.4021L170.052 71.1507C170.143 71.4526 170.294 71.7333 170.496 71.9762C170.698 72.2191 170.946 72.4193 171.227 72.5649C171.507 72.7105 171.815 72.7986 172.13 72.8241C172.445 72.8495 172.763 72.8116 173.063 72.7128Z" fill="#94C358"/>
  <path d="M210.498 90.245L204.982 93.2316C204.339 93.7668 203.509 94.0256 202.675 93.9513C201.84 93.8769 201.07 93.4755 200.532 92.8352C199.995 92.1952 199.735 91.3687 199.809 90.5376C199.884 89.7064 200.286 88.9388 200.929 88.4035L204.397 85.5132C206.785 83.5863 208.983 82.6132 210.784 84.7617C213.325 87.7938 211.791 89.1673 210.498 90.245Z" fill="#FFAD97"/>
  <path d="M202.449 92.5954C202.328 92.5759 202.213 92.5288 202.113 92.4578C201.547 92.0944 200.856 90.9727 200.769 90.2736C200.655 89.3597 201.95 88.3962 202.855 88.1581C203.546 87.9765 204.674 89.1477 205.143 90.0327C205.479 90.6617 205.494 91.1558 205.189 91.42C204.447 92.0642 202.76 92.5431 202.655 92.5734C202.588 92.5946 202.518 92.6021 202.449 92.5954ZM203.053 88.5435C203.021 88.5379 202.988 88.5379 202.956 88.5435C202.208 88.7403 201.085 89.5895 201.16 90.2254C201.233 90.8117 201.851 91.8233 202.325 92.1247C202.384 92.1727 202.458 92.1976 202.535 92.1949C202.551 92.1949 204.235 91.7159 204.917 91.1255C205.055 90.9989 205.011 90.6534 204.779 90.2226C204.334 89.3611 203.462 88.5931 203.053 88.5435Z" fill="#F47C53"/>
  <path d="M203.038 94.1663L202.973 94.1566C202.947 94.152 202.922 94.1424 202.9 94.1283C202.878 94.1142 202.859 94.096 202.844 94.0746C202.829 94.0532 202.819 94.029 202.813 94.0036C202.808 93.9781 202.807 93.9518 202.812 93.9261C202.816 93.9004 202.826 93.8759 202.84 93.854C202.854 93.832 202.873 93.8131 202.894 93.7982C202.916 93.7833 202.94 93.7728 202.965 93.7672C202.991 93.7616 203.017 93.7611 203.043 93.7658C203.955 93.9378 205.896 92.6523 206.564 92.1472C206.584 92.1287 206.609 92.1147 206.635 92.106C206.661 92.0974 206.689 92.0942 206.717 92.0968C206.744 92.0994 206.771 92.1076 206.795 92.121C206.819 92.1344 206.841 92.1527 206.857 92.1746C206.874 92.1966 206.886 92.2218 206.893 92.2486C206.899 92.2754 206.9 92.3033 206.895 92.3305C206.89 92.3577 206.88 92.3835 206.864 92.4065C206.849 92.4294 206.829 92.4489 206.806 92.4638C206.709 92.5436 204.338 94.3232 203.038 94.1663Z" fill="#F47C53"/>
  <path d="M207.631 83.2205L202.602 86.9641C202.042 87.5852 201.258 87.9598 200.422 88.0055C199.586 88.0512 198.765 87.7642 198.141 87.2077C197.832 86.9321 197.581 86.5985 197.401 86.2261C197.222 85.8537 197.117 85.4496 197.095 85.0371C197.072 84.6245 197.131 84.2115 197.268 83.8217C197.406 83.4318 197.619 83.0727 197.895 82.7649L200.913 79.4094C202.997 77.1578 205.035 75.886 207.131 77.7578C210.08 80.3921 208.756 81.9694 207.631 83.2205Z" fill="#FFAD97"/>
  <path d="M199.918 86.6936C199.826 86.6815 199.737 86.655 199.654 86.6151C199.041 86.3399 198.195 85.3255 198.01 84.6456C197.767 83.7579 198.908 82.6196 199.77 82.2549C200.429 81.9796 201.712 82.9733 202.304 83.7826C202.727 84.3579 202.813 84.8438 202.549 85.1507C201.906 85.8925 200.306 86.6082 200.2 86.6523C200.112 86.6927 200.014 86.7071 199.918 86.6936ZM200.089 82.6059C200.034 82.5967 199.977 82.6019 199.925 82.621C199.213 82.9211 198.224 83.9216 198.394 84.541C198.55 85.1108 199.309 86.0233 199.82 86.2545C199.885 86.2942 199.962 86.308 200.037 86.2931C200.053 86.2931 201.651 85.576 202.248 84.8933C202.373 84.7488 202.273 84.413 201.984 84.0194C201.435 83.2693 200.532 82.6596 200.089 82.6059Z" fill="#F47C53"/>
  <path d="M200.245 88.2088C200.219 88.2056 200.194 88.1974 200.171 88.1846C200.149 88.1718 200.129 88.1546 200.113 88.1341C200.096 88.1136 200.085 88.0901 200.078 88.065C200.071 88.0399 200.069 88.0137 200.072 87.9879C200.075 87.962 200.083 87.937 200.096 87.9144C200.109 87.8917 200.126 87.8718 200.147 87.8557C200.167 87.8397 200.191 87.8279 200.216 87.8209C200.241 87.8139 200.268 87.812 200.294 87.8151C202.228 88.0477 206.196 84.0591 206.235 84.0192C206.252 83.995 206.273 83.9748 206.298 83.9599C206.324 83.9451 206.352 83.9359 206.381 83.9331C206.41 83.9304 206.44 83.9341 206.467 83.944C206.495 83.9538 206.52 83.9697 206.54 83.9903C206.561 84.011 206.577 84.0359 206.587 84.0634C206.597 84.0908 206.601 84.1201 206.598 84.1492C206.595 84.1783 206.586 84.2064 206.571 84.2315C206.556 84.2566 206.536 84.2781 206.511 84.2945C206.354 84.4679 202.369 88.4661 200.245 88.2088Z" fill="#F47C53"/>
  <path d="M203.192 77.6333L198.89 80.4754C198.649 80.7159 198.363 80.9067 198.047 81.0369C197.732 81.1671 197.394 81.2341 197.053 81.2341C196.711 81.2341 196.373 81.1671 196.058 81.0369C195.743 80.9067 195.456 80.7159 195.215 80.4754C194.973 80.2351 194.782 79.9497 194.651 79.6356C194.52 79.3216 194.453 78.9849 194.453 78.6449C194.453 78.3049 194.52 77.9682 194.651 77.6541C194.782 77.34 194.973 77.0547 195.215 76.8144L197.85 74.1993C199.667 72.4459 201.4 71.4948 203.03 73.1258C205.332 75.4229 204.174 76.6575 203.192 77.6333Z" fill="#FFAD97"/>
  <path d="M196.722 80.1365C196.637 80.125 196.554 80.0974 196.479 80.0553C195.988 79.7993 195.34 78.9281 195.22 78.361C195.061 77.6219 196.049 76.7383 196.777 76.4782C197.33 76.28 198.339 77.1664 198.789 77.8545C199.108 78.3459 199.157 78.7492 198.927 78.9886C198.366 79.5694 197.018 80.0897 196.933 80.1145C196.866 80.1404 196.793 80.148 196.722 80.1365ZM196.998 76.7783C196.961 76.7722 196.924 76.7751 196.888 76.7865C196.29 76.9998 195.43 77.7775 195.541 78.3005C195.642 78.7753 196.223 79.5598 196.631 79.7731C196.683 79.8083 196.746 79.8234 196.808 79.8158C196.822 79.8158 198.167 79.3024 198.683 78.7684C198.793 78.6542 198.726 78.3748 198.507 78.039C198.089 77.3742 197.351 76.8209 196.998 76.7783Z" fill="#F47C53"/>
  <path d="M196.952 81.3952L196.876 81.3842C196.855 81.3803 196.835 81.3723 196.817 81.3606C196.799 81.349 196.783 81.3339 196.771 81.3163C196.759 81.2986 196.75 81.2788 196.746 81.2578C196.741 81.2369 196.741 81.2153 196.745 81.1942C196.749 81.1732 196.757 81.1531 196.769 81.1351C196.78 81.1171 196.795 81.1016 196.813 81.0895C196.831 81.0774 196.851 81.0688 196.872 81.0643C196.893 81.0599 196.914 81.0596 196.936 81.0635L196.996 81.0717C198.598 81.2658 201.961 78.2503 201.996 78.22C202.011 78.2056 202.03 78.1944 202.05 78.1872C202.07 78.1799 202.092 78.1767 202.113 78.1777C202.135 78.1788 202.156 78.184 202.175 78.1931C202.194 78.2023 202.212 78.2151 202.226 78.231C202.256 78.2631 202.271 78.3055 202.269 78.3489C202.267 78.3922 202.247 78.433 202.215 78.4622C202.077 78.5957 198.713 81.6126 196.952 81.3952Z" fill="#F47C53"/>
  <path d="M197.058 53.7679L196.666 52.5292C196.536 52.1233 196.25 51.7853 195.87 51.5894C195.49 51.3935 195.048 51.3558 194.64 51.4846L194.607 51.4942C194.199 51.6225 193.757 51.5843 193.377 51.3879C192.997 51.1915 192.711 50.8531 192.581 50.4469L189.195 39.7968C189.065 39.3906 188.779 39.0521 188.399 38.8558C188.02 38.6594 187.577 38.6212 187.169 38.7494L183.15 40.017C182.897 40.097 182.669 40.2375 182.484 40.4261C182.299 40.6147 182.163 40.8457 182.088 41.0988L177.642 56.2508C177.553 56.5571 177.557 56.8829 177.654 57.1867L178.441 59.6504C178.504 59.8516 178.607 60.0383 178.744 60.1998C178.88 60.3613 179.047 60.4946 179.235 60.5918C179.423 60.6891 179.628 60.7485 179.839 60.7667C180.05 60.7849 180.263 60.7614 180.465 60.6978L184.867 59.3077L187.954 58.3346C188.156 58.2705 188.369 58.2467 188.58 58.2646C188.791 58.2825 188.997 58.3417 189.185 58.4389C189.373 58.5361 189.54 58.6693 189.676 58.8309C189.813 58.9925 189.916 59.1793 189.98 59.3806L190.394 60.6757C190.458 60.877 190.561 61.0639 190.697 61.2255C190.833 61.3871 191 61.5204 191.188 61.6177C191.376 61.715 191.582 61.7744 191.793 61.7925C192.004 61.8106 192.216 61.787 192.418 61.7231L193.043 61.5263L194.322 61.1244C194.731 60.9951 195.071 60.7098 195.268 60.331C195.466 59.9523 195.504 59.511 195.375 59.104L194.961 57.8088C194.89 57.59 194.868 57.3584 194.897 57.1303C194.934 56.824 195.059 56.5348 195.257 56.2973C195.455 56.0598 195.717 55.8841 196.012 55.7911C196.215 55.7269 196.402 55.6236 196.564 55.4871C196.726 55.3505 196.859 55.1836 196.957 54.9956C197.054 54.8077 197.113 54.6025 197.13 54.3919C197.148 54.1812 197.123 53.9692 197.058 53.7679ZM186.612 54.0198L185.541 54.3584C185.266 54.4475 184.971 54.4601 184.688 54.3949C184.406 54.3296 184.147 54.189 183.939 53.9881C183.727 53.7908 183.574 53.5394 183.495 53.2614C183.417 52.9833 183.416 52.6892 183.494 52.4109L185.428 45.2884L185.522 45.2581L187.631 51.8851L187.668 52.0049C187.732 52.2062 187.755 52.4181 187.736 52.6283C187.718 52.8386 187.657 53.0432 187.559 53.2303C187.461 53.4174 187.327 53.5835 187.165 53.7189C187.002 53.8544 186.815 53.9567 186.612 54.0198Z" fill="#015700"/>
</svg>