<svg xmlns="http://www.w3.org/2000/svg" width="162" height="114" viewBox="0 0 162 114" fill="none">
  <path d="M60.2594 53.3502C51.0753 48.9768 44.0906 45.4391 33.5 40.2466C38.6097 66.4148 39.4571 79.8066 43.5256 85.3878C47.5279 78.2823 56.6896 62.1427 60.2594 53.3502Z" fill="#FE9C25"/>
  <path d="M114.611 41.5596C108.704 47.9618 100.293 56.9492 93.967 63.0037C91.6537 65.2177 89.8021 66.8024 84.6378 64.5144C75.3076 60.3739 68.2118 57.1118 62.0219 54.1898C57.592 65.0531 50.5167 76.8982 44.5391 87.5657C49.491 89.3842 57.7858 86.8722 73.4822 82.5622C106.388 73.5427 134.464 73.9605 142.096 70.4453C135.174 63.4342 123.682 51.7479 114.611 41.5596Z" fill="#FE9C25"/>
  <path d="M85.4207 62.7327C89.8369 64.6944 90.8402 63.2792 92.9733 61.2512C101.877 52.786 123.577 29.158 136.707 13.9915C133.728 10.5551 130.62 11.01 57.2791 26.833C49.3993 28.596 31.4772 31.1782 31.3438 36.0317C33.62 37.7431 59.9012 51.4048 85.4207 62.7327Z" fill="#FE9C25"/>
  <path d="M141.974 67.5472C138.754 37.8939 138.127 24.2664 137.007 16.6709C129.478 25.1975 123.605 31.78 115.938 40.1206C124.366 49.5988 134.951 60.4261 141.974 67.5472Z" fill="#FE9C25"/>
  <path d="M10.9609 53.0086C11.448 52.2605 27.4395 48.3956 27.7239 48.4414C28.7876 48.3576 28.9005 48.8612 28.0161 49.2206C27.0372 49.5508 16.9337 51.7794 15.948 52.0365C14.5502 52.3346 11.0564 53.2657 10.9609 53.0086Z" fill="#2FA500"/>
  <path d="M29.0901 45.7626C28.9265 46.086 28.3041 46.1971 27.9418 46.3782C26.6219 46.8993 15.4333 49.8253 14.8255 49.4308C14.5664 49.2915 14.6239 49.0032 14.8684 48.8328C15.4451 48.6185 16.045 48.4727 16.6557 48.3984C17.696 48.1451 28.7444 45.4295 29.0901 45.7626Z" fill="#2FA500"/>
  <path d="M19.8167 88.8749C19.653 89.1983 19.0306 89.3084 18.6683 89.4905C17.3485 90.0106 6.16083 92.9376 5.55207 92.5441C5.292 92.4038 5.35141 92.1155 5.59589 91.9451C6.17243 91.7313 6.77193 91.5855 7.38226 91.5106C8.4196 91.2574 19.4709 88.5389 19.8167 88.8749Z" fill="#2FA500"/>
  <path d="M145.128 93.0516C145.141 90.7957 144.847 88.0558 142.888 86.9532C140.867 85.8204 138.463 87.1275 136.531 88.4045C135.9 86.1934 134.622 78.5931 128.282 78.2279C120.115 77.7594 117.854 84.2055 118.757 86.7808C117.019 84.1821 113.093 83.6454 110.387 85.2126C109.076 86.0578 107.996 87.2179 107.248 88.5871C106.499 89.9563 106.105 91.4911 106.102 93.0516H145.128Z" fill="#A6A6A6"/>
  <path d="M81.5786 103.65C81.5639 102.628 81.8872 101.63 82.4982 100.81C83.1091 99.9908 83.9736 99.3961 84.9573 99.1185C85.941 98.8409 86.9888 98.8959 87.938 99.2749C88.8872 99.654 89.6847 100.336 90.2065 101.215C90.2802 100.12 90.6989 99.077 91.4026 98.2353C92.1062 97.3935 93.0586 96.7965 94.1229 96.5299C95.1871 96.2634 96.3085 96.341 97.3259 96.7517C98.3432 97.1625 99.2042 97.8851 99.7851 98.8158C99.8398 98.1568 100.129 97.5392 100.599 97.0747C101.07 96.6102 101.691 96.3295 102.351 96.2833C105.093 96.0437 108.035 99.3291 107.337 103.16L81.5786 103.65Z" fill="#A6A6A6"/>
</svg>