<svg width="183" height="166" viewBox="0 0 183 166" fill="none" xmlns="http://www.w3.org/2000/svg">
<g id="Travel Bag (Line)">
<path id="Vector" d="M42.7216 164.877H145.09C147.903 164.884 150.615 163.821 152.683 161.901C161.306 153.868 168.205 144.146 172.955 133.332C177.705 122.518 180.206 110.84 180.303 99.0179C180.745 50.9457 141.901 11.391 94.1152 11.2776C46.3021 11.1641 7.50689 50.1232 7.50689 98.1981C7.49324 110.164 9.94226 122.002 14.6997 132.969C19.4572 143.935 26.4201 153.792 35.15 161.918C37.2128 163.83 39.9172 164.887 42.7216 164.877Z" fill="#DBFFCC"/>
<path id="Vector_2" d="M139.829 66.8451C152.694 66.8451 163.123 56.4158 163.123 43.5505C163.123 30.6852 152.694 20.2559 139.829 20.2559C126.964 20.2559 116.534 30.6852 116.534 43.5505C116.534 56.4158 126.964 66.8451 139.829 66.8451Z" fill="#2FA500"/>
<path id="Vector_3" d="M143.414 3.37741C143.414 1.51212 141.902 0 140.037 0C138.171 0 136.659 1.51212 136.659 3.37741V9.74624C136.659 11.6115 138.171 13.1236 140.037 13.1236C141.902 13.1236 143.414 11.6115 143.414 9.74624V3.37741Z" fill="#2FA500"/>
<path id="Vector_4" d="M143.414 74.8481C143.414 72.9828 141.902 71.4707 140.037 71.4707C138.171 71.4707 136.659 72.9828 136.659 74.8481V81.2169C136.659 83.0822 138.171 84.5943 140.037 84.5943C141.902 84.5943 143.414 83.0822 143.414 81.2169V74.8481Z" fill="#2FA500"/>
<path id="Vector_5" d="M178.957 45.6747C180.822 45.6747 182.334 44.1626 182.334 42.2973C182.334 40.432 180.822 38.9199 178.957 38.9199H172.588C170.722 38.9199 169.21 40.432 169.21 42.2973C169.21 44.1626 170.722 45.6747 172.588 45.6747H178.957Z" fill="#2FA500"/>
<path id="Vector_6" d="M107.486 45.6747C109.351 45.6747 110.863 44.1626 110.863 42.2973C110.863 40.432 109.351 38.9199 107.486 38.9199H101.117C99.2518 38.9199 97.7396 40.432 97.7396 42.2973C97.7396 44.1626 99.2518 45.6747 101.117 45.6747H107.486Z" fill="#2FA500"/>
<path id="Vector_7" d="M169.945 12.3882C170.258 12.7018 170.507 13.0741 170.677 13.4839C170.847 13.8937 170.934 14.3328 170.934 14.7764C170.934 15.2199 170.847 15.6591 170.677 16.0689C170.507 16.4786 170.258 16.8509 169.945 17.1646L165.441 21.668C164.808 22.3014 163.949 22.6572 163.053 22.6572C162.157 22.6572 161.298 22.3014 160.665 21.668C160.351 21.3544 160.103 20.9821 159.933 20.5723C159.763 20.1625 159.676 19.7233 159.676 19.2798C159.676 18.8363 159.763 18.3971 159.933 17.9873C160.103 17.5776 160.351 17.2053 160.665 16.8916L165.168 12.3882C165.482 12.0746 165.854 11.8258 166.264 11.6561C166.674 11.4863 167.113 11.399 167.557 11.399C168 11.399 168.439 11.4863 168.849 11.6561C169.259 11.8258 169.631 12.0746 169.945 12.3882Z" fill="#2FA500"/>
<path id="Vector_8" d="M119.409 62.9253C120.042 63.5587 120.398 64.4177 120.398 65.3135C120.398 66.2092 120.042 67.0683 119.409 67.7017L114.905 72.2051C114.272 72.8385 113.413 73.1943 112.517 73.1943C111.621 73.1943 110.762 72.8385 110.129 72.2051C109.495 71.5717 109.14 70.7127 109.14 69.8169C109.14 68.9212 109.495 68.0621 110.129 67.4287L114.632 62.9253C115.266 62.2919 116.125 61.9361 117.021 61.9361C117.916 61.9361 118.775 62.2919 119.409 62.9253L119.409 62.9253Z" fill="#2FA500"/>
<path id="Vector_9" d="M169.946 72.2046C169.312 72.838 168.453 73.1938 167.558 73.1938C166.662 73.1938 165.803 72.838 165.169 72.2046L160.666 67.7011C160.033 67.0678 159.677 66.2087 159.677 65.313C159.677 64.4172 160.033 63.5581 160.666 62.9248C160.98 62.6111 161.352 62.3624 161.762 62.1926C162.171 62.0229 162.611 61.9355 163.054 61.9355C163.498 61.9355 163.937 62.0229 164.347 62.1926C164.756 62.3624 165.129 62.6112 165.442 62.9248L169.946 67.4282C170.259 67.7418 170.508 68.1142 170.678 68.5239C170.848 68.9337 170.935 69.3729 170.935 69.8164C170.935 70.2599 170.848 70.6991 170.678 71.1089C170.508 71.5186 170.259 71.891 169.946 72.2046L169.946 72.2046Z" fill="#2FA500"/>
<path id="Vector_10" d="M119.409 21.6675C119.095 21.9811 118.723 22.2299 118.313 22.3996C117.903 22.5693 117.464 22.6567 117.02 22.6567C116.577 22.6567 116.138 22.5693 115.728 22.3996C115.318 22.2299 114.946 21.9811 114.632 21.6675L110.129 17.164C109.495 16.5306 109.14 15.6716 109.14 14.7759C109.14 13.8801 109.495 13.021 110.129 12.3877C110.442 12.074 110.815 11.8253 111.225 11.6555C111.634 11.4858 112.074 11.3984 112.517 11.3984C112.961 11.3984 113.4 11.4858 113.81 11.6555C114.219 11.8253 114.592 12.074 114.905 12.3877L119.409 16.8911C120.042 17.5245 120.398 18.3836 120.398 19.2793C120.398 20.175 120.042 21.0341 119.409 21.6675Z" fill="#2FA500"/>
<path id="Vector_11" d="M60.1548 58.6189L55.5615 59.2148L67.8335 153.802L72.4268 153.206L60.1548 58.6189Z" fill="white" stroke="#C2C2C2" stroke-width="2.4" stroke-linecap="round" stroke-linejoin="round"/>
<path id="Vector_12" d="M4.04266 78.7392L114.95 64.3497C115.291 64.3055 115.616 64.1785 115.896 63.9797C116.177 63.7809 116.405 63.5165 116.559 63.2094C116.714 62.9024 116.791 62.5622 116.784 62.2184C116.777 61.8746 116.686 61.5378 116.519 61.2374C110.442 50.3627 101.246 41.5582 90.1174 35.9598C78.9888 30.3614 66.4379 28.2259 54.084 29.8287C41.73 31.4315 30.1397 36.6992 20.8082 44.9522C11.4767 53.2052 4.83202 64.0648 1.73141 76.1303C1.64639 76.4635 1.64424 76.8124 1.72515 77.1465C1.80606 77.4807 1.96757 77.79 2.19557 78.0473C2.42357 78.3047 2.71112 78.5023 3.0331 78.6229C3.35508 78.7435 3.7017 78.7834 4.04266 78.7392Z" fill="white"/>
<path id="Vector_13" d="M35.9697 74.5961L83.0239 68.4912C76.5203 44.6553 64.991 28.4128 54.0845 29.8279C43.1779 31.243 36.1754 49.8897 35.9697 74.5961Z" fill="white" stroke="#C2C2C2" stroke-width="2.4" stroke-linecap="round" stroke-linejoin="round"/>
<path id="Vector_14" d="M177.949 164.502C178.583 164.502 179.201 164.305 179.717 163.938C180.234 163.571 180.623 163.053 180.832 162.455C181.04 161.856 181.057 161.208 180.88 160.6C180.704 159.992 180.342 159.453 179.845 159.06C160.669 143.938 129.325 134.084 93.906 134.084C58.4874 134.084 27.1427 143.938 7.96647 159.06C7.47 159.453 7.10832 159.992 6.93163 160.6C6.75493 161.208 6.77199 161.856 6.98042 162.455C7.18886 163.053 7.57833 163.571 8.0948 163.938C8.61127 164.305 9.22911 164.502 9.86259 164.502L177.949 164.502Z" fill="white" stroke="#C2C2C2" stroke-width="2.4" stroke-linecap="round" stroke-linejoin="round"/>
<path id="Vector_15" d="M4.04266 78.7392L114.95 64.3497C115.291 64.3055 115.616 64.1785 115.896 63.9797C116.177 63.7809 116.405 63.5165 116.559 63.2094C116.714 62.9024 116.791 62.5622 116.784 62.2184C116.777 61.8746 116.686 61.5378 116.519 61.2374C110.442 50.3627 101.246 41.5582 90.1174 35.9598C78.9888 30.3614 66.4379 28.2259 54.084 29.8287C41.73 31.4315 30.1397 36.6992 20.8082 44.9522C11.4767 53.2052 4.83202 64.0649 1.73141 76.1303C1.64639 76.4635 1.64424 76.8124 1.72515 77.1465C1.80606 77.4807 1.96757 77.79 2.19557 78.0473C2.42357 78.3047 2.71112 78.5023 3.0331 78.6229C3.35508 78.7435 3.7017 78.7834 4.04266 78.7392V78.7392Z" stroke="#C2C2C2" stroke-width="2.4" stroke-linecap="round" stroke-linejoin="round"/>
</g>
</svg>
