<svg xmlns="http://www.w3.org/2000/svg" width="160" height="160" viewBox="0 0 160 160" fill="none">
  <path d="M134.71 110.482H24.6377V111.556H134.71V110.482Z" fill="#2E2E2E"/>
  <path d="M138.69 70.2978C137.346 70.861 135.599 71.5234 133.374 72.3938C133.33 81.325 133.27 94.7362 133.291 114.877C133.294 116.916 133.287 114.591 26.3793 116.147C24.7945 116.17 26.5249 117.139 26.4817 54.9186C26.4817 54.3098 26.5657 54.0666 27.2961 54.0754C37.5881 54.1986 49.0377 54.2922 60.4929 54.3634C60.7425 52.4978 61.0593 50.3946 61.4225 48.0178C61.5233 47.8154 61.5993 47.549 61.6601 47.2314C42.1313 47.2634 25.5529 47.4074 22.5137 47.789C20.9305 47.9874 20.5545 48.3498 20.4937 49.9498C20.3825 52.8986 20.1217 119.467 20.1681 121.579C20.1825 122.238 20.3457 122.85 21.1401 122.941C22.6673 123.116 128.566 122.732 137.164 122.183C138.451 122.101 138.662 121.956 138.671 120.645C138.697 117.012 138.676 74.1738 138.689 70.2962L138.69 70.2978Z" fill="#2E2E2E"/>
  <path d="M96.3904 52.4817C96.2632 53.1849 96.1464 53.8649 96.0376 54.5241L120.452 54.5793C137.049 48.1737 134.386 46.4345 138.78 57.6329C138.823 47.7345 138.414 47.4761 134.842 47.4417C134.262 47.4361 117.615 47.3305 97.2792 47.2681C97.0784 48.9617 96.7048 50.7433 96.3904 52.4817Z" fill="#2E2E2E"/>
  <path d="M153.284 144.234C151.673 141.926 142.651 129.405 139.722 125.475C139.242 124.831 138.828 123.941 137.775 123.95C137.775 123.95 28.1011 124.644 22.6147 124.936C20.3691 125.056 20.8619 124.453 16.2547 130.929C14.0755 133.992 7.58346 143.279 6.52026 144.859C5.78426 145.949 6.18185 146.759 7.47625 146.889C8.96586 147.039 96.9347 146.93 147.831 146.423C151.338 146.387 155.456 147.346 153.284 144.234ZM139.229 135.357C139.229 135.357 131.184 135.351 127.239 135.364C126.511 135.367 126.703 135.015 126.431 134.215C125.903 132.66 124.992 133.221 136.784 133.067C137.975 133.051 137.987 133.423 139.23 135.357H139.229ZM132.843 127.853C134.675 127.71 134.679 128.376 136.315 131.056C119.531 131.056 119.801 131.371 119.554 130.31C119.373 129.529 118.809 128.881 118.667 127.912C132.5 127.912 131.767 127.937 132.843 127.853ZM125.26 135.402C111.814 135.402 112.609 135.849 111.887 134.383C111.039 132.664 110.927 133.279 123.599 133.148C124.906 133.134 124.315 134.059 125.26 135.402ZM101.623 128.115C117.316 127.977 116.852 127.611 117.321 128.722C118.263 130.953 118.406 131.06 117.564 131.056C101.654 130.999 101.882 131.548 101.667 130.575C101.219 128.555 100.471 128.125 101.623 128.115ZM84.4827 128.326C84.8155 127.987 85.4659 128.242 85.9723 128.236C90.2803 128.187 94.5899 128.171 98.8979 128.139C99.4155 128.135 99.2651 128.15 100.281 131.127C84.0723 131.127 84.6435 131.584 84.7155 130.578C84.7803 129.681 84.0907 128.723 84.4827 128.326ZM71.0131 130.559C71.0915 129.864 70.8771 128.992 71.2243 128.51C71.5699 128.03 72.4955 128.342 73.1523 128.323C76.2603 128.241 79.3723 128.257 82.4827 128.223C82.8011 128.219 82.9179 128.358 82.9587 128.635C83.3451 131.243 83.8787 131.283 81.7179 131.276H77.0915C70.9291 131.276 70.8963 131.575 71.0131 130.559ZM38.0507 130.919C38.3123 130.335 38.3803 129.667 38.5467 129.04C38.8547 127.882 38.5379 128.528 55.3339 128.349C56.2915 128.338 55.7923 128.77 55.8259 130.861C55.8403 131.753 55.8315 131.393 38.6107 131.663C38.0323 131.672 37.7323 131.635 38.0507 130.919ZM50.3371 134.566C50.2515 134.994 50.4675 135.594 50.0363 135.808C49.4323 136.106 32.3075 136.078 32.2251 136.078C30.5995 136.064 30.9491 135.957 31.0179 135.536C31.2515 134.119 32.0811 133.407 33.5051 133.402C52.6467 133.341 50.6939 132.786 50.3371 134.566ZM23.6811 131.021C24.9395 128.891 24.8107 128.543 25.6915 128.545C37.6067 128.581 37.5139 128.117 37.1651 129.29C36.5347 131.413 36.6531 131.697 35.7939 131.696C21.8011 131.689 23.0387 132.11 23.6811 131.021ZM22.1219 133.504C22.3347 133.123 22.1203 133.28 29.8259 133.387C30.8411 133.402 29.9139 134.054 29.7939 135.269C29.6755 136.467 29.4379 136.118 20.6035 136.118C21.1331 135.21 21.6403 134.366 22.1219 133.504ZM43.8547 141.126C43.6987 142.211 43.8707 141.513 30.3363 141.727C16.4427 141.947 16.8699 142.304 17.3163 141.563C19.6939 137.613 19.3571 137.826 20.0251 137.851C22.5299 137.944 43.4067 137.844 43.4299 137.844C44.7051 137.83 44.2563 138.352 43.8547 141.126ZM67.8723 138.505C67.5571 140.903 68.2339 141.515 67.0771 141.504C63.5531 141.475 60.0283 141.631 56.5035 141.631C44.7155 141.631 45.2531 141.973 45.3931 141.134C45.8787 138.203 45.3571 137.809 46.8323 137.815C68.7155 137.906 68.0435 137.192 67.8723 138.505ZM67.9995 133.952C67.9387 135.78 67.9635 135.793 66.1283 135.805C52.2411 135.899 54.5099 135.857 52.2307 135.886C51.1203 135.899 51.7099 135.342 51.8747 133.639C51.9251 133.128 51.8731 133.407 67.2867 133.243C67.8563 133.235 68.0187 133.367 67.9995 133.952ZM56.9163 130.808C57.0275 130.011 56.5939 128.934 57.1187 128.479C57.5715 128.084 58.6123 128.366 59.3947 128.357C70.5547 128.225 69.7811 128.244 69.6683 128.987C69.3947 130.81 69.8147 131.297 69.0435 131.303C56.4779 131.385 56.7939 131.689 56.9163 130.808ZM69.4963 133.351C69.8451 133.089 100.371 133.293 109.271 133.123C110.19 133.106 110.058 133.323 110.715 135.634C66.5707 135.634 69.0827 136.283 69.3139 135.125C69.4355 134.52 69.0563 133.68 69.4963 133.351ZM83.0643 141.27C68.8603 141.209 69.1611 141.99 69.2547 140.779C69.4515 138.219 68.8627 137.687 69.8923 137.702C71.1027 137.719 80.9163 137.682 82.4955 137.644C83.6595 137.615 83.2027 138.074 83.5931 140.595C83.6643 141.049 83.6339 141.271 83.0651 141.27H83.0643ZM85.7843 141.255C84.6739 141.279 85.1251 140.807 84.7939 138.395C84.6291 137.19 83.0443 137.739 110.623 137.575C111.247 137.571 111.538 137.725 111.652 138.373C112.423 142.747 117.735 140.545 85.7843 141.255ZM114.783 141.17C114.038 141.193 114.227 141.132 113.069 137.479C117.855 137.479 126.447 137.451 131.231 137.295C131.994 137.27 131.743 137.552 133.131 140.231C133.944 141.799 132.958 140.638 114.783 141.17ZM135.567 141.023C135.151 141.027 135.295 141.053 133.295 137.254C135.704 137.254 137.947 137.263 140.19 137.243C140.664 137.238 140.709 137.371 142.906 140.509C143.412 141.234 142.852 140.967 135.567 141.023Z" fill="#2E2E2E"/>
  <path d="M59.9433 59.6206H24.6377V60.695H59.8985C59.9065 60.351 59.9217 59.9934 59.9433 59.6206Z" fill="#2E2E2E"/>
  <path d="M115.275 60.695C115.156 60.3382 115.038 59.9798 114.922 59.6206H95.2619C95.2083 59.9878 95.1555 60.3462 95.1035 60.695H115.275Z" fill="#2E2E2E"/>
  <path d="M134.177 50.4011C135.25 50.3243 135.2 51.3355 141.516 66.4851C141.862 67.3139 141.764 67.5019 141.036 68.0051C138.706 69.6195 124.855 74.8003 123.008 75.4051C121.564 75.8779 121.276 74.3739 119.753 70.3939C118.309 66.6203 116.9 62.8723 115.665 59.0331C115.132 57.3731 116.468 57.1595 120.478 55.5203C122.002 54.8979 132.993 50.2667 134.177 50.4011ZM123.021 73.8243C123.75 73.7427 123.006 73.4571 136.233 68.3451C139.429 67.1099 140.407 67.2315 140.013 66.3595C133.692 52.3747 134.771 51.4427 133.732 51.9067C122.275 57.0259 116.607 57.6363 117.255 59.1043C118.657 62.2835 119.42 65.1795 120.193 67.2595C120.956 69.3115 121.893 71.2963 122.53 73.3955C122.605 73.6427 122.708 73.8587 123.022 73.8235L123.021 73.8243Z" fill="#FE9C25"/>
  <path d="M120.586 61.0669C120.527 60.7605 120.82 60.6445 121.06 60.5173C122.313 59.8541 133.04 55.3445 133.599 56.5069C133.973 57.2861 131.635 57.9445 130.855 58.2365C123.73 60.9053 120.752 61.9269 120.586 61.0669Z" fill="#FE9C25"/>
  <path d="M123.186 65.3339C122.871 65.3163 122.623 65.3571 122.536 65.0795C122.442 64.7787 122.579 64.5635 122.839 64.4243C124.207 63.6923 130.095 60.7451 130.564 62.0427C130.963 63.1491 124.272 65.0259 123.186 65.3339Z" fill="#FE9C25"/>
  <path d="M92.6374 40.2998C91.4366 39.935 93.131 38.4542 91.939 33.371C89.339 22.2846 77.3774 21.7854 71.4726 31.7814C68.699 36.4766 70.0582 37.815 68.6582 37.699C63.4502 37.2678 64.4598 42.135 63.475 46.7662C63.0382 48.8198 60.883 63.0654 61.923 64.5974C64.6278 68.583 75.7958 68.8046 79.6702 69.1326C94.4046 70.379 91.3638 70.9174 95.5566 45.6366C95.9382 43.3374 95.1454 41.063 92.6382 40.3014L92.6374 40.2998ZM80.4302 61.7486C79.1246 61.387 74.2982 61.0742 73.7014 61.0718C73.2414 61.0702 73.2086 60.8494 73.415 60.5454C74.2982 59.2414 76.0366 56.3574 76.083 56.259C76.4886 55.3998 76.6214 55.343 77.471 55.6558C78.7902 56.1422 79.2622 55.5846 79.4086 56.1414C80.8486 61.6334 81.1902 61.8926 80.431 61.7494L80.4302 61.7486ZM78.9462 53.7446C74.4126 53.6494 74.667 47.163 78.7494 47.207C80.6222 47.227 82.1214 48.7718 82.1174 50.6014C82.1126 52.4006 80.5814 53.779 78.9462 53.7446ZM86.511 39.283C86.271 39.5246 79.3902 38.5974 79.0534 38.547C75.383 37.999 73.579 38.5118 74.0918 37.5422C75.8294 34.2606 77.3478 32.0974 80.2422 30.4142C81.6198 29.6134 84.0406 30.2926 84.8742 31.6926C86.843 35.0006 86.7822 39.0086 86.511 39.283Z" fill="#2FA500"/>
  <path d="M63.4737 46.7644C64.4305 42.2612 63.4161 37.2732 68.6569 37.6972C70.0553 37.8108 68.7033 36.462 71.4713 31.7796C77.4017 21.7476 89.3465 22.3276 91.9377 33.3692C93.1441 38.51 91.4217 39.9276 92.6361 40.298C95.1425 41.0628 95.9361 43.3332 95.5545 45.6332C91.3089 71.2524 94.3049 70.3708 79.6681 69.1292C75.5681 68.7812 64.6385 68.582 61.9209 64.594C60.9217 63.1276 62.9433 49.2572 63.4729 46.7628L63.4737 46.7644ZM93.5729 46.082C93.5673 45.3836 93.9417 42.65 91.5625 42.1124C86.7281 41.0204 78.1825 40.2484 76.8665 40.1716C66.8257 39.586 66.1865 38.234 65.5385 44.9932C63.6969 64.2044 59.2417 64.614 73.0801 66.3372C76.1865 66.7244 86.1329 67.7124 87.6097 67.4348C88.4585 67.2756 89.8425 67.5204 90.5497 64.518C91.4593 60.6596 93.6009 49.6876 93.5729 46.082ZM84.8729 31.6924C84.0393 30.2932 81.6177 29.6116 80.2409 30.414C77.3729 32.0844 75.8833 34.1788 74.0905 37.542C73.5777 38.5036 75.4881 38.0156 79.0521 38.5468C79.3777 38.5956 86.2729 39.5228 86.5097 39.2828C86.7649 39.0236 86.9081 35.1076 84.8729 31.6924ZM70.4777 37.6532C70.8897 37.678 71.3569 37.5852 71.7041 37.75C72.4057 38.0828 72.5281 37.5532 72.6529 37.1716C73.5809 34.3412 76.4353 29.9028 80.1569 28.47C81.4225 27.9828 83.8809 28.2228 84.8641 29.1148C87.0953 31.1396 88.3001 33.0876 88.8457 38.606C88.9457 39.618 88.9425 39.6052 89.9681 39.7588C90.3033 39.8092 90.4577 39.7572 90.4841 39.3916C91.5081 25.2412 79.8825 22.6132 73.4337 31.6444C70.9017 35.1892 70.7569 37.39 70.4777 37.6532Z" fill="#2E2E2E"/>
  <path d="M80.4236 63.2006C76.7532 62.6046 77.1364 62.979 71.874 62.0814C70.71 61.883 71.8884 60.291 72.7908 58.6702C75.2164 54.3158 75.586 54.8654 75.0972 54.251C72.9196 51.519 73.5308 48.4574 75.5268 46.799C79.2908 43.6734 84.0988 46.7614 83.974 50.5414C83.866 53.8286 81.2509 55.2598 80.9501 55.3238C80.7461 55.367 80.8316 55.6782 80.8804 55.8574C81.0524 56.4862 82.2916 61.5078 82.4988 62.1598C82.8852 63.3734 81.5716 63.2006 80.4236 63.2006ZM82.1156 50.6006C82.1204 48.771 80.622 47.2262 78.7476 47.2062C76.9716 47.187 75.634 48.7918 75.5932 50.2582C75.4684 54.7022 82.1044 54.9294 82.1156 50.6006ZM80.4292 61.7478C81.1884 61.8894 80.8556 61.6302 79.4069 56.1398C79.2605 55.5846 78.7908 56.1422 77.4692 55.6542C76.6204 55.3414 76.4868 55.3982 76.0812 56.2574C76.0348 56.3558 74.2988 59.2406 73.4132 60.5438C73.2076 60.8462 73.2396 61.0686 73.6996 61.0702C74.3044 61.0726 79.1213 61.3854 80.4285 61.747L80.4292 61.7478Z" fill="#2E2E2E"/>
  <path d="M75.0153 106.15C68.5897 106.034 68.1169 106.585 68.0705 105.227C67.8953 100.142 67.6657 100.112 68.9785 100.098C89.1424 99.8703 89.5488 98.9727 89.6024 100.67C89.6448 102.011 89.5864 103.354 89.6992 104.695C89.7688 105.524 89.3912 105.856 88.4816 105.862C83.9912 105.896 79.5113 106.23 75.0153 106.15ZM69.2593 103.081C69.2777 104.923 69.1073 104.869 70.2353 104.816C76.6041 104.515 77.7841 104.431 87.5008 104.366C88.5696 104.359 88.0096 103.747 88.1528 101.976C88.26 100.647 87.9648 101.225 78.5617 101.373C68.9737 101.524 69.2361 100.735 69.2593 103.081Z" fill="#2E2E2E"/>
  <path d="M77.0512 80.5267C75.316 80.5371 75.3751 78.045 76.9655 78.0202C78.5551 77.9954 78.6344 80.5179 77.0512 80.5267Z" fill="#2E2E2E"/>
  <path d="M72.3481 80.5267C70.6129 80.5371 70.672 78.045 72.2624 78.0202C73.852 77.9954 73.9313 80.5179 72.3481 80.5267Z" fill="#2E2E2E"/>
  <path d="M67.0478 80.5267C65.3126 80.5371 65.3717 78.045 66.9621 78.0202C68.5517 77.9954 68.631 80.5179 67.0478 80.5267Z" fill="#2E2E2E"/>
  <path d="M59.8916 80.7365C58.198 80.6381 57.7444 80.7061 58.3948 79.922C58.9212 79.2876 60.4989 79.2428 61.0557 79.5692C61.3565 79.746 61.9564 80.0797 61.9204 80.4109C61.8772 80.8117 60.3004 80.7013 59.8916 80.7365Z" fill="#2E2E2E"/>
  <path d="M59.7744 78.9342C58.3848 78.9182 58.5584 76.9382 59.7672 76.9862C61.0352 77.0366 61.1688 78.9502 59.7744 78.9342Z" fill="#2E2E2E"/>
  <path d="M97.9907 83.5778C71.7291 83.6162 58.5955 83.5994 58.5899 83.5242C49.5931 82.7346 49.5931 75.0513 58.5899 74.2617C58.5899 74.1969 71.9923 74.1897 98.7963 74.2401C108.619 74.8969 107.911 83.5634 97.9907 83.5778ZM59.6515 81.9682L97.9803 81.9666C100.991 81.9274 104.215 80.6826 104.215 78.8937C104.215 77.1049 100.991 75.8585 97.9803 75.8209H59.5963C51.2387 76.1793 51.5299 81.7034 59.6515 81.9682Z" fill="#2E2E2E"/>
  <path d="M64.5195 91.4421C64.5451 91.9237 64.6411 92.5261 64.1595 92.5685C63.3899 92.6357 64.1811 91.3581 63.1851 91.5173C62.8811 91.5661 62.4971 91.4421 62.5243 91.9957C62.5411 92.3373 62.4835 92.8221 62.0931 92.8405C61.4507 92.8717 61.9555 91.6149 60.8883 91.4693C60.5227 91.4197 60.2923 91.4925 60.0771 91.8397C58.8211 93.8717 55.7611 91.7045 57.5419 89.8309C58.0643 89.2813 59.2963 89.1701 59.7315 89.8005C60.2219 90.5109 60.8379 90.5373 63.4811 90.4597C64.4051 90.4325 64.4699 90.4949 64.5195 91.4421ZM58.6483 91.7341C59.6475 91.5245 59.3467 90.2133 58.4835 90.2661C57.4787 90.3277 57.5435 91.7973 58.6483 91.7341Z" fill="#2E2E2E"/>
  <path d="M72.3481 92.3586C70.6129 92.369 70.672 89.877 72.2624 89.8522C73.852 89.8274 73.9313 92.3498 72.3481 92.3586Z" fill="#2E2E2E"/>
  <path d="M67.0478 92.3586C65.3126 92.369 65.3717 89.877 66.9621 89.8522C68.5517 89.8274 68.631 92.3498 67.0478 92.3586Z" fill="#2E2E2E"/>
  <path d="M97.9907 95.7515C71.7291 95.7899 58.5955 95.7731 58.5899 95.6979C49.5931 94.9083 49.5931 87.2251 58.5899 86.4355C58.5899 86.3707 71.9923 86.3635 98.7963 86.4139C108.619 87.0707 107.911 95.7371 97.9907 95.7515ZM59.6515 94.1419L97.9803 94.1403C100.991 94.1011 104.215 92.8563 104.215 91.0675C104.215 89.2787 100.991 88.0323 97.9803 87.9947H59.5963C51.2387 88.3531 51.5299 93.8771 59.6515 94.1419Z" fill="#2E2E2E"/>
</svg>