<svg xmlns="http://www.w3.org/2000/svg" width="25" height="24" viewBox="0 0 25 24" fill="none">
<g clip-path="url(#clip0_2950_76028)">
<path d="M3.5 4V1H5.5V4H8.5V6H5.5V9H3.5V6H0.5V4H3.5ZM6.5 10V7H9.5V4H16.5L18.3 6H21.5C22.6 6 23.5 6.9 23.5 8V20C23.5 21.1 22.6 22 21.5 22H5.5C4.4 22 3.5 21.1 3.5 20V10H6.5ZM13.5 19C17.95 19 20.19 13.62 17.04 10.46C13.89 7.31 8.5 9.55 8.5 14C8.5 16.76 10.74 19 13.5 19ZM10.3 14C10.3 16.85 13.75 18.28 15.76 16.26C17.78 14.25 16.35 10.8 13.5 10.8C12.6521 10.8026 11.8397 11.1406 11.2402 11.7402C10.6406 12.3397 10.3026 13.1521 10.3 14Z" fill="#7D7D7D"/>
</g>
<defs>
<clipPath id="clip0_2950_76028">
<rect width="24" height="24" fill="white" transform="translate(0.5)"/>
</clipPath>
</defs>
</svg>