<svg xmlns="http://www.w3.org/2000/svg" width="20" height="20" viewBox="0 0 20 20" fill="none">
  <g clip-path="url(#clip0_2950_80328)">
    <path d="M7.49935 2.5H12.4993L14.166 4.16667H17.4993C17.7204 4.16667 17.9323 4.25446 18.0886 4.41074C18.2449 4.56702 18.3327 4.77899 18.3327 5V16.6667C18.3327 16.8877 18.2449 17.0996 18.0886 17.2559C17.9323 17.4122 17.7204 17.5 17.4993 17.5H2.49935C2.27834 17.5 2.06637 17.4122 1.91009 17.2559C1.75381 17.0996 1.66602 16.8877 1.66602 16.6667V5C1.66602 4.77899 1.75381 4.56702 1.91009 4.41074C2.06637 4.25446 2.27834 4.16667 2.49935 4.16667H5.83268L7.49935 2.5ZM9.99935 15.8333C11.3254 15.8333 12.5972 15.3065 13.5349 14.3689C14.4726 13.4312 14.9993 12.1594 14.9993 10.8333C14.9993 9.50725 14.4726 8.23548 13.5349 7.2978C12.5972 6.36012 11.3254 5.83333 9.99935 5.83333C8.67327 5.83333 7.4015 6.36012 6.46382 7.2978C5.52613 8.23548 4.99935 9.50725 4.99935 10.8333C4.99935 12.1594 5.52613 13.4312 6.46382 14.3689C7.4015 15.3065 8.67327 15.8333 9.99935 15.8333ZM9.99935 14.1667C9.11529 14.1667 8.26745 13.8155 7.64233 13.1904C7.01721 12.5652 6.66602 11.7174 6.66602 10.8333C6.66602 9.94928 7.01721 9.10143 7.64233 8.47631C8.26745 7.85119 9.11529 7.5 9.99935 7.5C10.8834 7.5 11.7313 7.85119 12.3564 8.47631C12.9815 9.10143 13.3327 9.94928 13.3327 10.8333C13.3327 11.7174 12.9815 12.5652 12.3564 13.1904C11.7313 13.8155 10.8834 14.1667 9.99935 14.1667Z" fill="#FEFEFE"/>
  </g>
  <defs>
    <clipPath id="clip0_2950_80328">
      <rect width="20" height="20" fill="white"/>
    </clipPath>
  </defs>
</svg>