<svg xmlns="http://www.w3.org/2000/svg" width="21" height="17" viewBox="0 0 21 17" fill="none">
  <path d="M19.5 12.5H1.5C1.5 14.16 2.84 15.5 4.5 15.5H16.5C18.16 15.5 19.5 14.16 19.5 12.5Z" stroke="#2E2E2E" stroke-width="1.5" stroke-linecap="round" stroke-linejoin="round"/>
  <path d="M10.5 3.5C6.08 3.5 2.5 7.08 2.5 11.5V12.5H18.5V11.5C18.5 7.08 14.92 3.5 10.5 3.5Z" stroke="#2E2E2E" stroke-width="1.5" stroke-linecap="round" stroke-linejoin="round"/>
  <path d="M11.75 2.5C11.75 3.19036 11.1904 3.75 10.5 3.75C9.80964 3.75 9.25 3.19036 9.25 2.5C9.25 1.80964 9.80964 1.25 10.5 1.25C11.1904 1.25 11.75 1.80964 11.75 2.5Z" fill="#4B4B4B" stroke="#2E2E2E"/>
</svg>