<svg xmlns="http://www.w3.org/2000/svg" width="20" height="20" viewBox="0 0 20 20" fill="none">
  <g clip-path="url(#clip0_2950_80319)">
    <path d="M2.50002 6.66797L7.50252 1.66797H16.665C17.125 1.66797 17.5 2.04714 17.5 2.49464V17.508C17.4998 17.7273 17.4125 17.9376 17.2574 18.0926C17.1022 18.2476 16.8918 18.3346 16.6725 18.3346H3.32752C3.21808 18.3339 3.10987 18.3116 3.00906 18.269C2.90825 18.2264 2.81681 18.1644 2.73997 18.0864C2.66313 18.0085 2.60239 17.9162 2.56122 17.8148C2.52005 17.7134 2.49925 17.6049 2.50002 17.4955V6.66797ZM8.33335 2.91797L3.75002 7.5013H8.33335V2.91797Z" fill="#FEFEFE"/>
  </g>
  <defs>
    <clipPath id="clip0_2950_80319">
      <rect width="20" height="20" fill="white"/>
    </clipPath>
  </defs>
</svg>