<svg xmlns="http://www.w3.org/2000/svg" width="24" height="24" viewBox="0 0 24 24" fill="none">
  <path d="M17.0004 18.4993C16.216 18.8589 15.3633 19.045 14.5004 19.045C13.6375 19.045 12.7848 18.8589 12.0004 18.4993C11.1804 18.2163 10.3087 18.1144 9.44553 18.2007C8.58233 18.287 7.74812 18.5595 7.00039 18.9993C7.53581 18.814 8.00781 18.4809 8.36176 18.0384C8.7157 17.596 8.93712 17.0624 9.00039 16.4993V8.99933C9.00567 8.12326 9.29842 7.27315 9.83368 6.57959C10.3689 5.88603 11.1171 5.38737 11.9632 5.16023C12.8093 4.93308 13.7066 4.99 14.5173 5.32225C15.3279 5.6545 16.0071 6.24369 16.4504 6.99933M13.9004 12.9993H6.90039" stroke="#4B4B4B" stroke-width="1.5" stroke-linecap="round" stroke-linejoin="round"/>
</svg>