<svg xmlns="http://www.w3.org/2000/svg" width="20" height="16" viewBox="0 0 20 16" fill="none">
  <path d="M18.2 5.01006C19.6 6.70006 19.6 9.30006 18.2 10.9901C16.2 13.4001 13.27 14.9401 10 14.9401C6.73001 14.9401 3.81 13.4101 1.8 10.9901C0.4 9.30006 0.4 6.70006 1.8 5.01006C3.8 2.60006 6.73001 1.06006 10 1.06006C13.27 1.06006 16.19 2.59006 18.2 5.01006Z" stroke="#4B4B4B" stroke-width="1.5" stroke-linecap="round" stroke-linejoin="round"/>
  <path d="M18.2 5.01006C19.6 6.70006 19.6 9.30006 18.2 10.9901C16.2 13.4001 13.27 14.9401 10 14.9401C6.73001 14.9401 3.81 13.4101 1.8 10.9901C0.4 9.30006 0.4 6.70006 1.8 5.01006C3.8 2.60006 6.73001 1.06006 10 1.06006C13.27 1.06006 16.19 2.59006 18.2 5.01006Z" stroke="#4B4B4B" stroke-width="1.5" stroke-linecap="round" stroke-linejoin="round"/>
  <path d="M10 11.0799C11.7011 11.0799 13.08 9.70096 13.08 7.99992C13.08 6.29889 11.7011 4.91992 10 4.91992C8.29899 4.91992 6.92004 6.29889 6.92004 7.99992C6.92004 9.70096 8.29899 11.0799 10 11.0799Z" stroke="#4B4B4B" stroke-width="1.5" stroke-linecap="round" stroke-linejoin="round"/>
</svg>