<svg xmlns="http://www.w3.org/2000/svg" width="21" height="20" viewBox="0 0 21 20" fill="none">
  <path d="M17.1667 2.5H3.83333C3.61232 2.5 3.40036 2.5878 3.24408 2.74408C3.0878 2.90036 3 3.11232 3 3.33333V16.6667C3 16.8877 3.0878 17.0996 3.24408 17.2559C3.40036 17.4122 3.61232 17.5 3.83333 17.5H11.0125V11.7H9.06417V9.42917H11.0125V7.7625C11.0125 5.825 12.1958 4.76917 13.9292 4.76917C14.5117 4.7675 15.095 4.7975 15.675 4.85833V6.875H14.4792C13.5392 6.875 13.3558 7.32333 13.3558 7.97917V9.425H15.6033L15.3117 11.6958H13.355V17.5H17.1667C17.3877 17.5 17.5996 17.4122 17.7559 17.2559C17.9122 17.0996 18 16.8877 18 16.6667V3.33333C18 3.11232 17.9122 2.90036 17.7559 2.74408C17.5996 2.5878 17.3877 2.5 17.1667 2.5Z" fill="white"/>
</svg>