<svg xmlns="http://www.w3.org/2000/svg" width="20" height="20" viewBox="0 0 20 20" fill="none">
  <g clip-path="url(#clip0_2950_80336)">
    <path d="M16.666 4.16667H3.33268V15.8333L11.076 8.08833C11.2323 7.93211 11.4442 7.84434 11.6652 7.84434C11.8862 7.84434 12.0981 7.93211 12.2543 8.08833L16.666 12.5083V4.16667ZM1.66602 3.3275C1.66754 3.10865 1.7551 2.89918 1.90978 2.74435C2.06445 2.58951 2.27383 2.50175 2.49268 2.5H17.506C17.9627 2.5 18.3327 2.87083 18.3327 3.3275V16.6725C18.3312 16.8914 18.2436 17.1008 18.0889 17.2557C17.9342 17.4105 17.7249 17.4983 17.506 17.5H2.49268C2.27336 17.4998 2.0631 17.4125 1.90809 17.2573C1.75308 17.1022 1.66602 16.8918 1.66602 16.6725V3.3275ZM6.66602 9.16667C6.22399 9.16667 5.80007 8.99107 5.4875 8.67851C5.17494 8.36595 4.99935 7.94203 4.99935 7.5C4.99935 7.05797 5.17494 6.63405 5.4875 6.32149C5.80007 6.00893 6.22399 5.83333 6.66602 5.83333C7.10804 5.83333 7.53197 6.00893 7.84453 6.32149C8.15709 6.63405 8.33268 7.05797 8.33268 7.5C8.33268 7.94203 8.15709 8.36595 7.84453 8.67851C7.53197 8.99107 7.10804 9.16667 6.66602 9.16667Z" fill="#FEFEFE"/>
  </g>
  <defs>
    <clipPath id="clip0_2950_80336">
      <rect width="20" height="20" fill="white"/>
    </clipPath>
  </defs>
</svg>
