<svg width="20" height="20" viewBox="0 0 20 20" fill="none" xmlns="http://www.w3.org/2000/svg">
<path d="M16.0404 9.99998C16.0404 13.3367 13.3354 16.0416 9.9987 16.0416C6.66198 16.0416 3.95703 13.3367 3.95703 9.99998C3.95703 6.66326 6.66198 3.95831 9.9987 3.95831C13.3354 3.95831 16.0404 6.66326 16.0404 9.99998Z" stroke="#4B4B4B" stroke-width="1.5" stroke-linecap="round" stroke-linejoin="round"/>
<path d="M8.125 8.33331C8.125 8.33331 8.33333 6.45831 10 6.45831C11.6667 6.45831 11.875 7.49998 11.875 8.33331C11.875 8.9594 11.5222 9.58556 10.8165 9.85823C10.3873 10.0241 10 10.3731 10 10.8333V11.0416" stroke="#2E2E2E" stroke-width="1.5" stroke-linecap="round" stroke-linejoin="round"/>
<path d="M10.4154 13.3334C10.4154 13.5634 10.2288 13.75 9.9987 13.75C9.76861 13.75 9.58203 13.5634 9.58203 13.3334C9.58203 13.1033 9.76861 12.9167 9.9987 12.9167C10.2288 12.9167 10.4154 13.1033 10.4154 13.3334Z" stroke="#2E2E2E" stroke-linecap="round" stroke-linejoin="round"/>
</svg>
