<svg width="24" height="25" viewBox="0 0 24 25" fill="none" xmlns="http://www.w3.org/2000/svg">
<path d="M12.25 10.2504H11.5C11.5 10.6646 11.8358 11.0004 12.25 11.0004V10.2504ZM7.25 10.2504V9.50041C7.05109 9.50041 6.86032 9.57943 6.71967 9.72008C6.57902 9.86073 6.5 10.0515 6.5 10.2504H7.25ZM16.75 12.0004C16.3358 12.0004 16 12.3362 16 12.7504C16 13.1646 16.3358 13.5004 16.75 13.5004V12.0004ZM12.25 11.0004H18V9.50041H12.25V11.0004ZM13 10.2504V7.3974H11.5V10.2504H13ZM9.02168 6.06911C8.98986 6.85777 8.87029 7.78202 8.55917 8.48466C8.25916 9.16223 7.85682 9.50041 7.25 9.50041V11.0004C8.66762 11.0004 9.49282 10.081 9.93074 9.09196C10.3575 8.12802 10.4863 6.97674 10.5205 6.12957L9.02168 6.06911ZM18 12.0004H16.75V13.5004H18V12.0004ZM17.2572 12.6471L16.523 17.9238L18.0087 18.1305L18.7428 12.8538L17.2572 12.6471ZM15.1574 18.995L8.22449 18.2839L8.07145 19.7761L15.0044 20.4872L15.1574 18.995ZM8 18.0352V10.2504H6.5V18.0352H8ZM8.22449 18.2839C8.09697 18.2708 8 18.1634 8 18.0352H6.5C6.5 18.9326 7.17877 19.6845 8.07145 19.7761L8.22449 18.2839ZM18.5 11.5004C18.5 11.7766 18.2761 12.0004 18 12.0004V13.5004C19.1046 13.5004 20 12.605 20 11.5004H18.5ZM16.523 17.9238C16.4303 18.5902 15.8267 19.0636 15.1574 18.995L15.0044 20.4872C16.4769 20.6382 17.8047 19.5966 18.0087 18.1305L16.523 17.9238ZM11.3149 4.67091C10.2352 4.13103 9.06523 4.98959 9.02168 6.06911L10.5205 6.12957C10.5217 6.09862 10.5406 6.0566 10.5864 6.02733C10.6071 6.01418 10.6234 6.01053 10.6311 6.00987C10.6361 6.00945 10.6385 6.00972 10.6441 6.01255L11.3149 4.67091ZM13 7.3974C13 6.24279 12.3477 5.18727 11.3149 4.67091L10.6441 6.01255C11.1687 6.27483 11.5 6.81095 11.5 7.3974H13ZM18 11.0004C18.2761 11.0004 18.5 11.2243 18.5 11.5004H20C20 10.3958 19.1046 9.50041 18 9.50041V11.0004Z" fill="#4B4B4B"/>
<path d="M5.75 10H6.25V8.5H5.75V10ZM6.5 10.25V18.75H8V10.25H6.5ZM6.25 19H5.75V20.5H6.25V19ZM5.5 18.75V10.25H4V18.75H5.5ZM5.75 19C5.61193 19 5.5 18.8881 5.5 18.75H4C4 19.7165 4.7835 20.5 5.75 20.5V19ZM6.5 18.75C6.5 18.8881 6.38807 19 6.25 19V20.5C7.2165 20.5 8 19.7165 8 18.75H6.5ZM6.25 10C6.38807 10 6.5 10.1119 6.5 10.25H8C8 9.2835 7.2165 8.5 6.25 8.5V10ZM5.75 8.5C4.7835 8.5 4 9.2835 4 10.25H5.5C5.5 10.1119 5.61193 10 5.75 10V8.5Z" fill="#4B4B4B"/>
</svg>
