<svg width="36" height="30" viewBox="0 0 36 30" fill="none" xmlns="http://www.w3.org/2000/svg">
<g clip-path="url(#clip0_3838_20812)">
<path d="M8.92474 26.2292V24.7343C8.93332 24.6086 8.91543 24.4825 8.87226 24.3643C8.82909 24.2462 8.76163 24.1387 8.67439 24.0492C8.58714 23.9596 8.48211 23.8899 8.36628 23.8448C8.25046 23.7997 8.1265 23.7802 8.00267 23.7876C7.84059 23.7768 7.67862 23.8104 7.53368 23.8849C7.38874 23.9594 7.26615 24.072 7.17869 24.2111C7.09898 24.0762 6.98491 23.9657 6.84853 23.8911C6.71214 23.8166 6.55849 23.7808 6.40376 23.7876C6.26889 23.7806 6.13457 23.8096 6.01413 23.8717C5.89369 23.9337 5.7913 24.0267 5.71711 24.1414V23.8474H5.20703V26.2292H5.72202V24.9187C5.71106 24.8372 5.71796 24.7543 5.7422 24.6759C5.76645 24.5975 5.80745 24.5255 5.86227 24.465C5.9171 24.4045 5.98439 24.3571 6.05935 24.3262C6.1343 24.2952 6.21506 24.2814 6.29586 24.2859C6.63428 24.2859 6.80594 24.5101 6.80594 24.9137V26.2392H7.32093V24.9187C7.31042 24.8373 7.31763 24.7546 7.34204 24.6764C7.36645 24.5981 7.40747 24.5263 7.4622 24.466C7.51693 24.4056 7.58404 24.3582 7.65879 24.3271C7.73353 24.2959 7.81409 24.2819 7.89477 24.2859C8.243 24.2859 8.40976 24.5101 8.40976 24.9137V26.2392L8.92474 26.2292ZM16.5441 23.8474H15.7054V23.1248H15.1904V23.8474H14.7245V24.3207H15.2002V25.417C15.2002 25.9701 15.4111 26.299 16.0144 26.299C16.2398 26.2997 16.4608 26.2358 16.652 26.1146L16.5049 25.6711C16.3681 25.754 16.2128 25.8003 16.0536 25.8057C15.8084 25.8057 15.7152 25.6462 15.7152 25.407V24.3207H16.549L16.5441 23.8474ZM20.8945 23.7876C20.7701 23.7838 20.6471 23.8143 20.5383 23.8757C20.4296 23.9371 20.3391 24.0271 20.2765 24.1364V23.8474H19.7713V26.2292H20.2814V24.8938C20.2814 24.5001 20.4482 24.2809 20.7719 24.2809C20.881 24.2794 20.9893 24.2997 21.0907 24.3407L21.2476 23.8424C21.1311 23.8 21.0084 23.7781 20.8847 23.7776L20.8945 23.7876ZM14.3174 24.0367C14.0287 23.8623 13.6967 23.7758 13.361 23.7876C12.7675 23.7876 12.3801 24.0766 12.3801 24.55C12.3801 24.9386 12.6645 25.1778 13.1893 25.2526L13.4346 25.2874C13.7141 25.3273 13.8465 25.402 13.8465 25.5366C13.8465 25.721 13.6602 25.8256 13.3119 25.8256C13.0318 25.8338 12.7572 25.7461 12.5321 25.5764L12.2869 25.9801C12.584 26.1908 12.9399 26.2991 13.3021 26.289C13.979 26.289 14.3713 25.9651 14.3713 25.5117C14.3713 25.0582 14.0623 24.8738 13.5523 24.7991L13.307 24.7642C13.0863 24.7343 12.9098 24.6895 12.9098 24.53C12.9098 24.3706 13.0765 24.251 13.3561 24.251C13.6145 24.254 13.8678 24.3244 14.0918 24.4553L14.3174 24.0367ZM27.9792 23.7876C27.8549 23.7838 27.7318 23.8143 27.6231 23.8757C27.5143 23.9371 27.4239 24.0271 27.3613 24.1364V23.8474H26.8561V26.2292H27.3662V24.8938C27.3662 24.5001 27.5329 24.2809 27.8566 24.2809C27.9657 24.2794 28.0741 24.2997 28.1754 24.3407L28.3324 23.8424C28.2159 23.8 28.0932 23.7781 27.9694 23.7776L27.9792 23.7876ZM21.407 25.0333C21.401 25.2007 21.4294 25.3675 21.4904 25.5231C21.5514 25.6787 21.6438 25.8196 21.7615 25.9369C21.8792 26.0542 22.0197 26.1452 22.1741 26.2041C22.3284 26.263 22.4931 26.2885 22.6577 26.279C22.964 26.2949 23.265 26.1935 23.5013 25.995L23.2561 25.5764C23.0798 25.7131 22.8647 25.7882 22.643 25.7907C22.4545 25.7752 22.2786 25.6882 22.1503 25.5469C22.0221 25.4056 21.9509 25.2205 21.9509 25.0283C21.9509 24.8361 22.0221 24.651 22.1503 24.5097C22.2786 24.3685 22.4545 24.2814 22.643 24.2659C22.8647 24.2684 23.0798 24.3436 23.2561 24.4802L23.5013 24.0616C23.265 23.8631 22.964 23.7618 22.6577 23.7776C22.4931 23.7681 22.3284 23.7937 22.1741 23.8526C22.0197 23.9115 21.8792 24.0025 21.7615 24.1197C21.6438 24.237 21.5514 24.3779 21.4904 24.5335C21.4294 24.6891 21.401 24.856 21.407 25.0233V25.0333ZM26.1841 25.0333V23.8474H25.6741V24.1364C25.5874 24.0231 25.4756 23.9324 25.3476 23.8718C25.2197 23.8111 25.0794 23.7823 24.9384 23.7876C24.6132 23.7876 24.3013 23.9188 24.0713 24.1524C23.8414 24.3861 23.7122 24.7029 23.7122 25.0333C23.7122 25.3637 23.8414 25.6806 24.0713 25.9142C24.3013 26.1478 24.6132 26.279 24.9384 26.279C25.0794 26.2843 25.2197 26.2555 25.3476 26.1948C25.4756 26.1342 25.5874 26.0435 25.6741 25.9302V26.2193H26.1841V25.0333ZM24.2861 25.0333C24.2942 24.8931 24.3425 24.7584 24.425 24.6457C24.5076 24.5331 24.6208 24.4474 24.7506 24.3992C24.8805 24.3511 25.0214 24.3426 25.1559 24.3748C25.2905 24.407 25.4129 24.4784 25.508 24.5804C25.603 24.6823 25.6667 24.8103 25.6911 24.9485C25.7155 25.0868 25.6996 25.2292 25.6453 25.3584C25.5911 25.4876 25.5008 25.5978 25.3856 25.6755C25.2705 25.7532 25.1355 25.795 24.9972 25.7957C24.9001 25.7969 24.8038 25.7778 24.7144 25.7394C24.6249 25.701 24.5443 25.6442 24.4775 25.5726C24.4107 25.501 24.3592 25.4161 24.3262 25.3233C24.2933 25.2305 24.2796 25.1317 24.2861 25.0333ZM18.1307 23.7876C17.8055 23.7922 17.4955 23.9279 17.2687 24.1648C17.042 24.4017 16.9172 24.7204 16.9217 25.0507C16.9263 25.3811 17.0598 25.6962 17.293 25.9265C17.5262 26.1569 17.8399 26.2837 18.1651 26.279C18.5179 26.2974 18.8649 26.182 19.1386 25.9552L18.8934 25.5715C18.6998 25.7292 18.4599 25.8169 18.2117 25.8206C18.0431 25.8353 17.8754 25.7827 17.7445 25.6738C17.6135 25.5649 17.5295 25.4084 17.5103 25.2376H19.2514C19.2514 25.1728 19.2514 25.108 19.2514 25.0383C19.2514 24.2908 18.7953 23.7925 18.1381 23.7925L18.1307 23.7876ZM18.1307 24.251C18.2071 24.2493 18.283 24.263 18.3541 24.2911C18.4252 24.3193 18.4902 24.3614 18.5453 24.4151C18.6004 24.4688 18.6446 24.5329 18.6753 24.604C18.706 24.675 18.7226 24.7515 18.7242 24.829H17.498C17.5069 24.6691 17.5771 24.519 17.6935 24.411C17.8099 24.3029 17.9633 24.2455 18.1209 24.251H18.1307ZM30.9098 25.0383V22.8906H30.4193V24.1364C30.3327 24.0231 30.2208 23.9324 30.0929 23.8718C29.965 23.8111 29.8247 23.7823 29.6836 23.7876C29.3584 23.7876 29.0465 23.9188 28.8166 24.1524C28.5866 24.3861 28.4574 24.7029 28.4574 25.0333C28.4574 25.3637 28.5866 25.6806 28.8166 25.9142C29.0465 26.1478 29.3584 26.279 29.6836 26.279C29.8247 26.2843 29.965 26.2555 30.0929 26.1948C30.2208 26.1342 30.3327 26.0435 30.4193 25.9302V26.2193H30.9098V25.0383ZM31.7607 25.8829C31.7926 25.8825 31.8243 25.8884 31.8539 25.9003C31.8821 25.912 31.9078 25.9289 31.9299 25.9502C31.9515 25.9717 31.9689 25.997 31.9814 26.0249C31.9938 26.054 32.0003 26.0854 32.0003 26.1171C32.0003 26.1488 31.9938 26.1802 31.9814 26.2093C31.9689 26.2372 31.9515 26.2625 31.9299 26.284C31.9078 26.3053 31.8821 26.3222 31.8539 26.3339C31.8245 26.347 31.7928 26.3538 31.7607 26.3538C31.7142 26.3534 31.6688 26.3397 31.6297 26.3141C31.5906 26.2885 31.5595 26.2521 31.54 26.2093C31.5277 26.1802 31.5214 26.1488 31.5214 26.1171C31.5214 26.0854 31.5277 26.054 31.54 26.0249C31.5525 25.997 31.57 25.9717 31.5915 25.9502C31.6136 25.9289 31.6394 25.912 31.6675 25.9003C31.6995 25.8874 31.7337 25.8815 31.7681 25.8829H31.7607ZM31.7607 26.304C31.7852 26.3041 31.8094 26.299 31.8318 26.289C31.8529 26.2794 31.8721 26.2659 31.8882 26.2491C31.9189 26.2151 31.9359 26.1707 31.9359 26.1246C31.9359 26.0784 31.9189 26.034 31.8882 26C31.8721 25.9832 31.853 25.9697 31.8318 25.9601C31.8094 25.9502 31.7852 25.9451 31.7607 25.9452C31.7363 25.9453 31.7121 25.9504 31.6896 25.9601C31.6676 25.9693 31.6476 25.9829 31.6307 26C31.6001 26.034 31.5831 26.0784 31.5831 26.1246C31.5831 26.1707 31.6001 26.2151 31.6307 26.2491C31.6476 26.2662 31.6676 26.2798 31.6896 26.289C31.7143 26.2999 31.7411 26.305 31.7681 26.304H31.7607ZM31.7754 26.0075C31.7983 26.0063 31.8209 26.0134 31.8392 26.0274C31.8467 26.0337 31.8526 26.0418 31.8565 26.0509C31.8603 26.06 31.8619 26.0699 31.8613 26.0797C31.8616 26.088 31.8603 26.0963 31.8573 26.104C31.8544 26.1117 31.8499 26.1187 31.8441 26.1246C31.8299 26.1377 31.8117 26.1456 31.7926 26.147L31.8637 26.2292H31.8073L31.7411 26.147H31.719V26.2292H31.6724V26.01L31.7754 26.0075ZM31.7215 26.0498V26.1096H31.7754C31.785 26.1125 31.7953 26.1125 31.8049 26.1096C31.8066 26.1061 31.8075 26.1023 31.8075 26.0984C31.8075 26.0945 31.8066 26.0907 31.8049 26.0872C31.8066 26.0837 31.8075 26.0799 31.8075 26.076C31.8075 26.0721 31.8066 26.0683 31.8049 26.0648C31.7953 26.0619 31.785 26.0619 31.7754 26.0648L31.7215 26.0498ZM29.0239 25.0383C29.0321 24.8981 29.0804 24.7634 29.1629 24.6507C29.2455 24.538 29.3586 24.4524 29.4885 24.4042C29.6184 24.3561 29.7593 24.3476 29.8938 24.3798C30.0284 24.412 30.1507 24.4834 30.2458 24.5854C30.3409 24.6873 30.4046 24.8153 30.429 24.9535C30.4534 25.0917 30.4375 25.2342 30.3832 25.3634C30.3289 25.4925 30.2387 25.6028 30.1235 25.6805C30.0083 25.7582 29.8733 25.8 29.7351 25.8007C29.638 25.8019 29.5417 25.7827 29.4523 25.7443C29.3628 25.7059 29.2821 25.6492 29.2153 25.5776C29.1486 25.5059 29.0971 25.4211 29.0641 25.3283C29.0312 25.2355 29.0175 25.1367 29.0239 25.0383ZM11.8013 25.0383V23.8474H11.2912V24.1364C11.2046 24.0231 11.0927 23.9324 10.9648 23.8718C10.8369 23.8111 10.6966 23.7823 10.5555 23.7876C10.2303 23.7876 9.91846 23.9188 9.68851 24.1524C9.45856 24.3861 9.32938 24.7029 9.32938 25.0333C9.32938 25.3637 9.45856 25.6806 9.68851 25.9142C9.91846 26.1478 10.2303 26.279 10.5555 26.279C10.6966 26.2843 10.8369 26.2555 10.9648 26.1948C11.0927 26.1342 11.2046 26.0435 11.2912 25.9302V26.2193H11.8013V25.0383ZM9.90322 25.0383C9.91135 24.8981 9.95967 24.7634 10.0422 24.6507C10.1248 24.538 10.2379 24.4524 10.3678 24.4042C10.4977 24.3561 10.6385 24.3476 10.7731 24.3798C10.9077 24.412 11.03 24.4834 11.1251 24.5854C11.2202 24.6873 11.2839 24.8153 11.3083 24.9535C11.3327 25.0917 11.3168 25.2342 11.2625 25.3634C11.2082 25.4925 11.1179 25.6028 11.0028 25.6805C10.8876 25.7582 10.7526 25.8 10.6144 25.8007C10.5169 25.8026 10.42 25.784 10.33 25.7459C10.24 25.7078 10.1587 25.6511 10.0914 25.5794C10.0241 25.5077 9.97213 25.4226 9.93889 25.3295C9.90566 25.2363 9.89184 25.1372 9.89831 25.0383H9.90322Z" fill="#3A3A3A"/>
<path d="M21.8732 5.68359H14.1484V19.7879H21.8732V5.68359Z" fill="#FF5F00"/>
<path d="M14.6381 12.7401C14.6366 11.3816 14.9395 10.0405 15.5237 8.81851C16.1079 7.59648 16.9581 6.52552 18.01 5.68674C16.7076 4.64684 15.1435 4.0002 13.4965 3.8207C11.8495 3.6412 10.186 3.9361 8.69614 4.67168C7.20629 5.40727 5.95018 6.55387 5.07139 7.98043C4.19259 9.40699 3.72656 11.056 3.72656 12.7389C3.72656 14.4218 4.19259 16.0708 5.07139 17.4973C5.95018 18.9239 7.20629 20.0705 8.69614 20.8061C10.186 21.5417 11.8495 21.8366 13.4965 21.6571C15.1435 21.4776 16.7076 20.8309 18.01 19.791C16.9585 18.9525 16.1084 17.882 15.5242 16.6604C14.9401 15.4388 14.637 14.0983 14.6381 12.7401Z" fill="#EB001B"/>
<path d="M32.2926 12.7412C32.2925 14.4242 31.8264 16.0733 30.9474 17.4999C30.0685 18.9265 28.8122 20.0731 27.3221 20.8086C25.8321 21.5441 24.1684 21.8388 22.5213 21.659C20.8742 21.4793 19.3101 20.8323 18.0078 19.7921C19.0589 18.9528 19.9087 17.882 20.4931 16.6603C21.0774 15.4387 21.381 14.0982 21.381 12.7399C21.381 11.3817 21.0774 10.0412 20.4931 8.81953C19.9087 7.5979 19.0589 6.52705 18.0078 5.68777C19.3101 4.64756 20.8742 4.00059 22.5213 3.82084C24.1684 3.64108 25.8321 3.93579 27.3221 4.67127C28.8122 5.40675 30.0685 6.55333 30.9474 7.97994C31.8264 9.40655 32.2925 11.0556 32.2926 12.7387V12.7412Z" fill="#F79E1B"/>
<path d="M31.45 18.298V18.009H31.5653V17.9492H31.2734V18.009H31.3985V18.298H31.45ZM32.0165 18.298V17.9492H31.9282L31.8252 18.1984L31.7222 17.9492H31.6437V18.298H31.7075V18.0364L31.8031 18.2631H31.8693L31.965 18.0364V18.3005L32.0165 18.298Z" fill="#F79E1B"/>
</g>
<defs>
<clipPath id="clip0_3838_20812">
<rect width="36" height="30" fill="white"/>
</clipPath>
</defs>
</svg>
