<svg xmlns="http://www.w3.org/2000/svg" width="17" height="16" viewBox="0 0 17 16" fill="none">
<path d="M8.422 2.00467L8.5 2C8.66329 2.00002 8.82089 2.05997 8.94291 2.16848C9.06494 2.27698 9.1429 2.4265 9.162 2.58867L9.16667 2.66667V7.33333H13.8333C13.9966 7.33335 14.1542 7.3933 14.2762 7.50181C14.3983 7.61032 14.4762 7.75983 14.4953 7.922L14.5 8C14.5 8.16329 14.44 8.32089 14.3315 8.44291C14.223 8.56494 14.0735 8.6429 13.9113 8.662L13.8333 8.66667H9.16667V13.3333C9.16665 13.4966 9.1067 13.6542 8.99819 13.7762C8.88968 13.8983 8.74017 13.9762 8.578 13.9953L8.5 14C8.33671 14 8.17911 13.94 8.05709 13.8315C7.93506 13.723 7.8571 13.5735 7.838 13.4113L7.83333 13.3333V8.66667H3.16667C3.00338 8.66665 2.84578 8.6067 2.72375 8.49819C2.60173 8.38968 2.52377 8.24017 2.50467 8.078L2.5 8C2.50002 7.83671 2.55997 7.67911 2.66848 7.55709C2.77698 7.43506 2.9265 7.3571 3.08867 7.338L3.16667 7.33333H7.83333V2.66667C7.83335 2.50338 7.8933 2.34578 8.00181 2.22375C8.11032 2.10173 8.25983 2.02377 8.422 2.00467L8.5 2L8.422 2.00467Z" fill="white"/>
</svg>