<svg width="20" height="20" viewBox="0 0 20 20" fill="none" xmlns="http://www.w3.org/2000/svg">
<path d="M6.8763 8.95831H6.45964C6.01761 8.95831 5.59368 9.13391 5.28112 9.44647C4.96856 9.75903 4.79297 10.183 4.79297 10.625V14.375C4.79297 14.817 4.96856 15.2409 5.28112 15.5535C5.59368 15.8661 6.01761 16.0416 6.45964 16.0416H13.543C13.985 16.0416 14.4089 15.8661 14.7215 15.5535C15.034 15.2409 15.2096 14.817 15.2096 14.375V10.625C15.2096 10.183 15.034 9.75903 14.7215 9.44647C14.4089 9.13391 13.985 8.95831 13.543 8.95831H13.1263M10.0013 11.875V3.95831M10.0013 3.95831L8.1263 6.04165M10.0013 3.95831L11.8763 6.04165" stroke="#4B4B4B" stroke-width="1.5" stroke-linecap="round" stroke-linejoin="round"/>
</svg>
