<svg width="20" height="20" viewBox="0 0 20 20" fill="none" xmlns="http://www.w3.org/2000/svg">
<path d="M4.79297 9.79165C4.79297 9.3314 5.16607 8.95831 5.6263 8.95831H14.3763C14.8366 8.95831 15.2096 9.3314 15.2096 9.79165V14.375C15.2096 15.2955 14.4635 16.0416 13.543 16.0416H6.45964C5.53916 16.0416 4.79297 15.2955 4.79297 14.375V9.79165Z" stroke="#4B4B4B" stroke-width="1.5" stroke-linecap="round" stroke-linejoin="round"/>
<path d="M6.45872 8.74998V8.6189C6.45872 7.31787 6.38045 5.86769 7.28911 4.93656C7.8073 4.40556 8.64581 3.95831 10.0004 3.95831C11.355 3.95831 12.1935 4.40556 12.7116 4.93656C13.6203 5.86769 13.5421 7.31787 13.5421 8.6189V8.74998" stroke="#2E2E2E" stroke-width="1.5" stroke-linecap="round" stroke-linejoin="round"/>
</svg>
