<svg width="20" height="20" viewBox="0 0 20 20" fill="none" xmlns="http://www.w3.org/2000/svg">
<path d="M16.0404 6.875V14.375C16.0404 15.2955 15.2942 16.0417 14.3737 16.0417H5.6237C4.70322 16.0417 3.95703 15.2955 3.95703 14.375V5.625" stroke="#2E2E2E" stroke-width="1.5" stroke-linecap="round" stroke-linejoin="round"/>
<path d="M13.7513 10.8333C13.7513 11.0634 13.5647 11.25 13.3346 11.25C13.1046 11.25 12.918 11.0634 12.918 10.8333C12.918 10.6032 13.1046 10.4167 13.3346 10.4167C13.5647 10.4167 13.7513 10.6032 13.7513 10.8333Z" stroke="#4B4B4B" stroke-linecap="round" stroke-linejoin="round"/>
<path d="M14.3737 6.87501H16.0404M14.3737 6.87501H5.41536C4.60995 6.87501 3.95703 6.22209 3.95703 5.41668C3.95703 4.61126 4.60995 3.95834 5.41536 3.95834H12.707C13.6275 3.95834 14.3737 4.70454 14.3737 5.62501V6.87501Z" stroke="#4B4B4B" stroke-width="1.5" stroke-linecap="round" stroke-linejoin="round"/>
</svg>
