<svg xmlns="http://www.w3.org/2000/svg" width="17" height="16" viewBox="0 0 17 16" fill="none">
  <path d="M13.35 9.34167C11.7667 9.34167 10.4917 10.625 10.4917 12.2C10.4917 13.7833 11.775 15.0583 13.35 15.0583C14.9334 15.0583 16.2084 13.775 16.2084 12.2C16.2084 10.6167 14.925 9.34167 13.35 9.34167Z" stroke="white" stroke-width="1.5" stroke-linecap="round" stroke-linejoin="round"/>
  <path d="M3.64983 9.34167C2.0665 9.34167 0.791504 10.625 0.791504 12.2C0.791504 13.7833 2.07483 15.0583 3.64983 15.0583C5.23316 15.0583 6.50817 13.775 6.50817 12.2C6.50817 10.6167 5.23316 9.34167 3.64983 9.34167Z" stroke="white" stroke-width="1.5" stroke-linecap="round" stroke-linejoin="round"/>
  <path d="M11.3581 3.79998C11.3581 5.38332 10.0748 6.65832 8.49981 6.65832C6.91647 6.65832 5.64148 5.37498 5.64148 3.79998C5.64148 2.21665 6.92481 0.94165 8.49981 0.94165C10.0831 0.94165 11.3581 2.22498 11.3581 3.79998Z" stroke="white" stroke-width="1.5" stroke-linecap="round" stroke-linejoin="round"/>
</svg>