<svg xmlns="http://www.w3.org/2000/svg" width="20" height="20" viewBox="0 0 20 20" fill="none">
  <path d="M13.5417 1.6665H6.45841C5.19175 1.6665 4.16675 2.6915 4.16675 3.95817V16.8665C4.16675 17.4498 4.50008 17.9665 5.03341 18.1998C5.56674 18.4332 6.16675 18.3415 6.60008 17.9498C7.00008 17.5915 7.40008 17.2248 7.80841 16.8498C8.49174 16.2165 9.18341 15.5915 9.86674 14.9998C9.94174 14.9332 10.0501 14.9332 10.1251 14.9998C10.8084 15.5915 11.4917 16.2165 12.1751 16.8415C12.5834 17.2165 12.9917 17.5915 13.4084 17.9582C13.6834 18.1998 14.0251 18.3332 14.3751 18.3332C14.5751 18.3332 14.7834 18.2915 14.9751 18.1998C15.5084 17.9582 15.8417 17.4498 15.8417 16.8665V3.94984C15.8334 2.69151 14.8084 1.6665 13.5417 1.6665Z" fill="#2FA500"/>
</svg>