<svg width="58" height="56" viewBox="0 0 58 56" fill="none" xmlns="http://www.w3.org/2000/svg">
<g clip-path="url(#clip0_1768_26712)">
<path d="M50.4375 6.65908L28.4717 0.0692344C28.1641 -0.0230781 27.8363 -0.0230781 27.5286 0.0692344L5.56242 6.65908C4.86854 6.86722 4.39331 7.50597 4.39331 8.23047V32.3932C4.39331 35.5359 5.66567 38.7531 8.17484 41.9553C10.0912 44.4009 12.7426 46.8567 16.055 49.2545C21.6197 53.2826 27.0992 55.7536 27.3298 55.8567C27.543 55.9522 27.7716 56 28.0002 56C28.2288 56 28.4573 55.9523 28.6705 55.8567C28.901 55.7536 34.3804 53.2826 39.9451 49.2545C43.2575 46.8567 45.9088 44.4009 47.8252 41.9553C50.3344 38.7532 51.6066 35.536 51.6066 32.3932V8.23047C51.6066 7.50597 51.1315 6.86722 50.4375 6.65908Z" fill="#EDEDED"/>
<g clip-path="url(#clip1_1768_26712)">
<path d="M31.4799 11.667H20.1824C19.9402 11.667 19.7035 11.7197 19.4876 11.8186C19.3931 11.862 19.3321 11.9561 19.3321 12.06V15.8068C19.3321 16.3779 18.8691 16.8409 18.298 16.8409H14.5512C14.4472 16.8409 14.3531 16.9018 14.3099 16.9963C14.2109 17.2123 14.1582 17.449 14.1582 17.6911V37.999C14.1582 38.9202 14.905 39.667 15.8262 39.667H31.4799C32.4011 39.667 33.1479 38.9202 33.1479 37.999V13.335C33.1478 12.4137 32.4011 11.667 31.4799 11.667Z" fill="#136BE1"/>
<path d="M34.5164 11.667H30.9348C31.856 11.667 32.6028 12.4137 32.6028 13.335V37.999C32.6028 38.9202 31.856 39.667 30.9348 39.667H34.5164C35.4376 39.667 36.1844 38.9202 36.1844 37.999V13.335C36.1844 12.4137 35.4376 11.667 34.5164 11.667Z" fill="#136BE1"/>
<path d="M14.6465 16.5133L19.0028 12.157C19.1454 12.0144 19.3112 11.9003 19.4913 11.8184V15.9677C19.4913 16.5388 19.0283 17.0018 18.4572 17.0018H14.3079C14.3898 16.8217 14.5039 16.6559 14.6465 16.5133Z" fill="#E28086"/>
<path d="M28.1577 22.3148H17.3417C17.1084 22.3148 16.9192 22.1256 16.9192 21.8922C16.9192 21.6589 17.1083 21.4697 17.3417 21.4697H28.1577C28.391 21.4697 28.5802 21.6589 28.5802 21.8922C28.5802 22.1256 28.391 22.3148 28.1577 22.3148Z" fill="white"/>
<path d="M28.1577 25.2855H17.3417C17.1084 25.2855 16.9192 25.0963 16.9192 24.8629C16.9192 24.6296 17.1083 24.4404 17.3417 24.4404H28.1577C28.391 24.4404 28.5802 24.6296 28.5802 24.8629C28.5802 25.0963 28.391 25.2855 28.1577 25.2855Z" fill="white"/>
<path d="M28.1577 28.2532H17.3417C17.1084 28.2532 16.9192 28.0641 16.9192 27.8307C16.9192 27.5974 17.1083 27.4082 17.3417 27.4082H28.1577C28.391 27.4082 28.5802 27.5974 28.5802 27.8307C28.5802 28.0641 28.391 28.2532 28.1577 28.2532Z" fill="white"/>
<path d="M28.1577 31.22H17.3417C17.1084 31.22 16.9192 31.0309 16.9192 30.7975C16.9192 30.5642 17.1083 30.375 17.3417 30.375H28.1577C28.391 30.375 28.5802 30.5642 28.5802 30.7975C28.5802 31.0309 28.391 31.22 28.1577 31.22Z" fill="white"/>
<path d="M22.7635 35.5735H17.3417C17.1084 35.5735 16.9192 35.3844 16.9192 35.151C16.9192 34.9177 17.1083 34.7285 17.3417 34.7285H22.7636C22.9969 34.7285 23.1861 34.9177 23.1861 35.151C23.1861 35.3844 22.9969 35.5735 22.7635 35.5735Z" fill="white"/>
<path d="M37.9828 36.4788L36.4334 35.525C36.2809 35.4311 36.0886 35.4311 35.9361 35.525L34.3867 36.4788C34.0707 36.6734 33.6638 36.446 33.6638 36.075V29.9385H38.7057V36.075C38.7057 36.446 38.2988 36.6734 37.9828 36.4788Z" fill="#136BE1"/>
<path d="M35.2731 32.0507C37.2357 31.025 38.5713 29.0006 38.5713 26.6708C38.5713 24.3411 37.2357 22.3167 35.2731 21.291C34.9534 21.6942 34.4208 21.8643 33.9258 21.7198C33.1302 21.4877 32.3297 22.0693 32.3047 22.8976C32.2889 23.4181 31.9563 23.8759 31.4662 24.0518C30.6861 24.3315 30.3803 25.2726 30.8469 25.9575C31.1401 26.3878 31.1401 26.9537 30.8469 27.3841C30.3803 28.0689 30.6861 29.01 31.4662 29.2898C31.9563 29.4656 32.2889 29.9235 32.3047 30.444C32.3297 31.2723 33.1302 31.8539 33.9258 31.6218C34.4208 31.4774 34.9534 31.6475 35.2731 32.0507Z" fill="#136BE1"/>
<path d="M41.6229 27.5322C41.3297 27.1019 41.3297 26.536 41.6229 26.1056C42.0895 25.4208 41.7837 24.4797 41.0036 24.1999C40.5135 24.0241 40.1809 23.5662 40.1651 23.0458C40.1401 22.2174 39.3396 21.6358 38.544 21.868C38.0441 22.0138 37.5059 21.8389 37.1872 21.4271C36.6801 20.7717 35.6906 20.7717 35.1834 21.4271C35.112 21.5194 35.0295 21.5998 34.939 21.6674C36.8946 22.5582 38.254 24.5298 38.254 26.819C38.254 29.1081 36.8945 31.0797 34.939 31.9706C35.0295 32.0381 35.112 32.1185 35.1834 32.2108C35.6906 32.8663 36.6801 32.8663 37.1872 32.2108C37.5059 31.799 38.0441 31.6242 38.544 31.77C39.3396 32.0022 40.1401 31.4206 40.1651 30.5922C40.1809 30.0717 40.5135 29.6139 41.0036 29.4381C41.7837 29.1581 42.0895 28.2171 41.6229 27.5322Z" fill="#136BE1"/>
<path d="M36.1847 29.9383C37.907 29.9383 39.3033 28.5421 39.3033 26.8197C39.3033 25.0974 37.907 23.7012 36.1847 23.7012C34.4624 23.7012 33.0662 25.0974 33.0662 26.8197C33.0662 28.5421 34.4624 29.9383 36.1847 29.9383Z" fill="white"/>
<path d="M14.6465 16.5133L19.0028 12.157C19.1454 12.0144 19.3112 11.9003 19.4913 11.8184V15.9677C19.4913 16.5388 19.0283 17.0018 18.4572 17.0018H14.3079C14.3898 16.8217 14.5039 16.6559 14.6465 16.5133Z" fill="#136BE1"/>
</g>
</g>
<path d="M57.0225 46.0113L55.3089 43.779L55.6922 41.0056L53.0767 39.9684L52.0395 37.3529L49.2661 37.7362L47.0113 36L44.779 37.7136L42.0056 37.3303L40.9684 39.9459L38.3529 40.9831L38.7362 43.7565L37 46.0113L38.7136 48.2435L38.3303 51.0169L40.9459 52.0541L41.9831 54.6697L44.7565 54.2864L46.9887 56L49.221 54.2864L51.9944 54.6697L53.0316 52.0541L55.6471 50.9944L55.2638 48.221L57.0225 46.0113ZM46.1995 49.2582L42.8625 46.5073L43.584 45.628L46.0643 47.6573L50.3033 42.7644L51.1601 43.5085L46.1995 49.2582Z" fill="#2FA500"/>
<defs>
<clipPath id="clip0_1768_26712">
<rect width="56" height="56" fill="white"/>
</clipPath>
<clipPath id="clip1_1768_26712">
<rect width="28" height="28" fill="white" transform="translate(14 11.667)"/>
</clipPath>
</defs>
</svg>
