<svg width="58" height="56" viewBox="0 0 58 56" fill="none" xmlns="http://www.w3.org/2000/svg">
<g clip-path="url(#clip0_1768_26715)">
<path d="M50.4375 6.65908L28.4717 0.0692344C28.1641 -0.0230781 27.8363 -0.0230781 27.5286 0.0692344L5.56242 6.65908C4.86854 6.86722 4.39331 7.50597 4.39331 8.23047V32.3932C4.39331 35.5359 5.66567 38.7531 8.17484 41.9553C10.0912 44.4009 12.7426 46.8567 16.055 49.2545C21.6197 53.2826 27.0992 55.7536 27.3298 55.8567C27.543 55.9522 27.7716 56 28.0002 56C28.2288 56 28.4573 55.9523 28.6705 55.8567C28.901 55.7536 34.3804 53.2826 39.9451 49.2545C43.2575 46.8567 45.9088 44.4009 47.8252 41.9553C50.3344 38.7532 51.6066 35.536 51.6066 32.3932V8.23047C51.6066 7.50597 51.1315 6.86722 50.4375 6.65908Z" fill="#EDEDED"/>
<path d="M18.998 25.3263C18.829 25.3263 18.6653 25.2356 18.58 25.0763C18.4567 24.8458 18.5435 24.559 18.7741 24.4357L23.713 21.7943L28.6232 18.7258C28.6259 18.7241 28.6286 18.7225 28.6313 18.7209L32.8278 16.2136C33.0523 16.0795 33.3431 16.1526 33.4773 16.377C33.6115 16.6013 33.5383 16.8919 33.3139 17.026L29.1214 19.5309L24.2016 22.6053C24.1926 22.6109 24.1834 22.6163 24.1739 22.6214L19.221 25.2703C19.1499 25.3083 19.0734 25.3263 18.998 25.3263Z" fill="#136BE1"/>
<path d="M33.0739 37.2918C32.9905 37.2918 32.9059 37.2697 32.8293 37.2235L28.2813 34.4743C28.2793 34.473 28.2774 34.4718 28.2753 34.4706L23.703 31.6132C23.6969 31.6094 23.6908 31.6054 23.6848 31.6013L19.4495 28.6761C19.2343 28.5275 19.1804 28.2328 19.3292 28.0177C19.4779 27.8027 19.7729 27.7488 19.988 27.8974L24.2143 30.8164L28.7744 33.6661L33.3194 36.4136C33.5432 36.5489 33.6149 36.8398 33.4796 37.0635C33.3906 37.2105 33.2342 37.2918 33.0739 37.2918Z" fill="#136BE1"/>
<path d="M34.5536 16.707C34.2922 16.707 34.0803 16.9189 34.0803 17.1803V34.2592C34.0803 34.5205 34.2922 34.7324 34.5536 34.7324C34.815 34.7324 35.0269 34.5205 35.0269 34.2592V17.1803C35.0269 16.9189 34.815 16.707 34.5536 16.707Z" fill="#136BE1"/>
<ellipse cx="19.3662" cy="26.3161" rx="6.53291" ry="6.53291" fill="#136BE1"/>
<path d="M19.3666 27.6209C20.8098 27.6209 21.9797 26.4509 21.9797 25.0077C21.9797 23.5645 20.8098 22.3945 19.3666 22.3945C17.9234 22.3945 16.7534 23.5645 16.7534 25.0077C16.7534 26.4509 17.9234 27.6209 19.3666 27.6209Z" fill="white"/>
<path d="M22.6328 30.7065C21.7158 31.2715 20.5869 31.6043 19.3663 31.6043C18.1458 31.6043 17.0174 31.271 16.0999 30.7065V30.4553C16.0999 29.6901 16.4653 28.9973 17.0569 28.4959C17.648 27.9945 18.4642 27.6846 19.3663 27.6846C21.1705 27.6846 22.6328 28.9249 22.6328 30.4553V30.7065Z" fill="white"/>
<ellipse cx="35.0444" cy="15.8659" rx="6.53291" ry="6.53291" fill="#136BE1"/>
<path d="M35.045 17.1687C36.4883 17.1687 37.6582 15.9988 37.6582 14.5555C37.6582 13.1123 36.4883 11.9424 35.045 11.9424C33.6018 11.9424 32.4319 13.1123 32.4319 14.5555C32.4319 15.9988 33.6018 17.1687 35.045 17.1687Z" fill="white"/>
<path d="M38.3122 20.2504C37.3952 20.8155 36.2663 21.1483 35.0458 21.1483C33.8252 21.1483 32.6969 20.815 31.7793 20.2504V19.9993C31.7793 19.2341 32.1447 18.5412 32.7364 18.0399C33.3275 17.5385 34.1437 17.2285 35.0458 17.2285C36.8499 17.2285 38.3122 18.4689 38.3122 19.9993V20.2504Z" fill="white"/>
<circle cx="35.0444" cy="35.4675" r="6.53291" fill="#136BE1"/>
<path d="M35.045 36.7722C36.4883 36.7722 37.6582 35.6023 37.6582 34.1591C37.6582 32.7159 36.4883 31.5459 35.045 31.5459C33.6018 31.5459 32.4319 32.7159 32.4319 34.1591C32.4319 35.6023 33.6018 36.7722 35.045 36.7722Z" fill="white"/>
<path d="M38.3112 39.8627C37.3942 40.4278 36.2653 40.7606 35.0448 40.7606C33.8242 40.7606 32.6959 40.4273 31.7783 39.8627V39.6116C31.7783 38.8464 32.1437 38.1536 32.7354 37.6522C33.3265 37.1508 34.1427 36.8408 35.0448 36.8408C36.849 36.8408 38.3112 38.0812 38.3112 39.6116V39.8627Z" fill="white"/>
</g>
<path d="M57.0225 46.0113L55.3089 43.779L55.6922 41.0056L53.0767 39.9684L52.0395 37.3529L49.2661 37.7362L47.0113 36L44.779 37.7136L42.0056 37.3303L40.9684 39.9459L38.3529 40.9831L38.7362 43.7565L37 46.0113L38.7136 48.2435L38.3303 51.0169L40.9459 52.0541L41.9831 54.6697L44.7565 54.2864L46.9887 56L49.221 54.2864L51.9944 54.6697L53.0316 52.0541L55.6471 50.9944L55.2638 48.221L57.0225 46.0113ZM46.1995 49.2582L42.8625 46.5073L43.584 45.628L46.0643 47.6573L50.3033 42.7644L51.1601 43.5085L46.1995 49.2582Z" fill="#2FA500"/>
<defs>
<clipPath id="clip0_1768_26715">
<rect width="56" height="56" fill="white"/>
</clipPath>
</defs>
</svg>
