<svg width="56" height="56" viewBox="0 0 56 56" fill="none" xmlns="http://www.w3.org/2000/svg">
<g clip-path="url(#clip0_4112_2369)">
<path d="M50.4375 6.65908L28.4717 0.0692344C28.1641 -0.0230781 27.8363 -0.0230781 27.5286 0.0692344L5.56242 6.65908C4.86854 6.86722 4.39331 7.50597 4.39331 8.23047V32.3932C4.39331 35.5359 5.66567 38.7531 8.17484 41.9553C10.0912 44.4009 12.7426 46.8567 16.055 49.2545C21.6197 53.2826 27.0992 55.7536 27.3298 55.8567C27.543 55.9522 27.7716 56 28.0002 56C28.2288 56 28.4573 55.9523 28.6705 55.8567C28.901 55.7536 34.3804 53.2826 39.9451 49.2545C43.2575 46.8567 45.9088 44.4009 47.8252 41.9553C50.3344 38.7532 51.6066 35.536 51.6066 32.3932V8.23047C51.6066 7.50597 51.1315 6.86722 50.4375 6.65908Z" fill="#EDEDED"/>
<path d="M16.8951 18.3213H38.5008C39.4555 18.3213 40.2294 19.0952 40.2294 20.0497V35.6058C40.2294 36.5603 39.4553 37.3342 38.5008 37.3342H16.8951C15.9406 37.3342 15.1667 36.5603 15.1667 35.6058V20.0497C15.1667 19.0952 15.9406 18.3213 16.8951 18.3213Z" fill="#136BE1"/>
<path d="M38.4997 18.3213H38.1467L16.9158 37.3342H38.4997C39.4544 37.3342 40.2283 36.5603 40.2283 35.6058V20.0497C40.2283 19.0952 39.4544 18.3213 38.4997 18.3213Z" fill="#136BE1"/>
<path d="M23.3757 15.7284V18.321H25.1043V15.7284H30.2896V18.321H32.018V15.7284C32.018 14.7739 31.2441 14 30.2896 14H25.1043C24.1498 14 23.3757 14.7739 23.3757 15.7284Z" fill="#136BE1"/>
<path d="M40.2294 26.095L29.4264 30.8482H25.9697L15.1667 26.095V21.3418C15.1667 20.3872 15.9406 19.6133 16.8951 19.6133H38.5008C39.4555 19.6133 40.2294 20.3872 40.2294 21.3418V26.095Z" fill="#136BE1"/>
<path d="M40.2294 24.803L29.4264 29.5562H25.9697L15.1667 24.803V20.0497C15.1667 19.0952 15.9406 18.3213 16.8951 18.3213H38.5008C39.4555 18.3213 40.2294 19.0952 40.2294 20.0497V24.803Z" fill="#136BE1"/>
<path d="M23.3757 17.4561H25.1043V18.3203H23.3757V17.4561Z" fill="#136BE1"/>
<path d="M30.2896 17.4561H32.0179V18.3203H30.2896V17.4561Z" fill="#136BE1"/>
<path d="M38.4994 18.3213H33.8892L22.468 28.0166L25.9683 29.5562H29.425L40.228 24.803V20.0497C40.228 19.0952 39.4541 18.3213 38.4994 18.3213Z" fill="#136BE1"/>
<path d="M25.9702 29.5557H29.427V31.284C29.427 32.2387 28.6531 33.0126 27.6986 33.0126C26.7441 33.0126 25.9702 32.2385 25.9702 31.284V29.5557Z" fill="white"/>
<path d="M27.2651 30.8516H28.1294V31.7158H27.2651V30.8516Z" fill="#136BE1"/>
<path d="M25.9702 27.8281H29.427V29.5567H25.9702V27.8281Z" fill="white"/>
<path d="M25.9702 27.8281H29.427V28.6924H25.9702V27.8281Z" fill="white"/>
<path d="M25.9702 29.5557H29.427V30.4198H25.9702V29.5557Z" fill="white"/>
</g>
<defs>
<clipPath id="clip0_4112_2369">
<rect width="56" height="56" fill="white"/>
</clipPath>
</defs>
</svg>
