<svg width="58" height="56" viewBox="0 0 58 56" fill="none" xmlns="http://www.w3.org/2000/svg">
<g clip-path="url(#clip0_1768_26718)">
<path d="M50.4375 6.65908L28.4717 0.0692344C28.1641 -0.0230781 27.8363 -0.0230781 27.5286 0.0692344L5.56242 6.65908C4.86854 6.86722 4.39331 7.50597 4.39331 8.23047V32.3932C4.39331 35.5359 5.66567 38.7531 8.17484 41.9553C10.0912 44.4009 12.7426 46.8567 16.055 49.2545C21.6197 53.2826 27.0992 55.7536 27.3298 55.8567C27.543 55.9522 27.7716 56 28.0002 56C28.2288 56 28.4573 55.9523 28.6705 55.8567C28.901 55.7536 34.3804 53.2826 39.9451 49.2545C43.2575 46.8567 45.9088 44.4009 47.8252 41.9553C50.3344 38.7532 51.6066 35.536 51.6066 32.3932V8.23047C51.6066 7.50597 51.1315 6.86722 50.4375 6.65908Z" fill="#EDEDED"/>
<path d="M28.0678 26.8494L26.8182 25.5997C25.8745 24.9504 24.7332 24.6518 23.5924 24.7555C22.4515 24.8593 21.3829 25.359 20.5718 26.1679L17.9485 28.7913C17.0298 29.71 16.5137 30.956 16.5137 32.2552C16.5137 32.8985 16.6404 33.5355 16.8866 34.1299C17.1327 34.7242 17.4936 35.2642 17.9485 35.7191C18.4034 36.174 18.9434 36.5348 19.5377 36.781C20.1321 37.0272 20.7691 37.1539 21.4124 37.1539C22.7116 37.1539 23.9576 36.6378 24.8763 35.7191L27.4996 33.0958C28.3086 32.2846 28.8083 31.2161 28.912 30.0752C29.0158 28.9343 28.7172 27.7931 28.0678 26.8494ZM26.2495 31.8456L23.6267 34.469C23.3359 34.7597 22.9907 34.9904 22.6109 35.1477C22.231 35.3051 21.8238 35.386 21.4126 35.386C21.0015 35.386 20.5943 35.3051 20.2144 35.1477C19.8345 34.9904 19.4894 34.7597 19.1986 34.469C18.9079 34.1782 18.6772 33.833 18.5199 33.4532C18.3625 33.0733 18.2815 32.6661 18.2815 32.2549C18.2815 31.8438 18.3625 31.4366 18.5199 31.0567C18.6772 30.6768 18.9079 30.3317 19.1986 30.0409L21.822 27.4181C22.3005 26.9406 22.9204 26.6306 23.5895 26.5341C24.2585 26.4376 24.9408 26.5599 25.5347 26.8827L25.5353 26.8833L26.7849 28.1329C27.1077 28.7268 27.23 29.4091 27.1335 30.0781C27.037 30.7472 26.7269 31.3671 26.2495 31.8456Z" fill="#136BE1"/>
<path d="M38.0512 15.6149C37.1317 14.6977 35.886 14.1826 34.5872 14.1826C33.2885 14.1826 32.0428 14.6977 31.1233 15.6149L28.5 18.2383C27.691 19.0494 27.1913 20.118 27.0876 21.2588C26.9838 22.3997 27.2824 23.5409 27.9318 24.4847L29.1814 25.7343C30.1252 26.3836 31.2664 26.6823 32.4072 26.5785C33.5481 26.4747 34.6167 25.975 35.4278 25.1661L38.0512 22.5427C38.9683 21.6232 39.4834 20.3775 39.4834 19.0788C39.4834 17.7801 38.9683 16.5344 38.0512 15.6149ZM36.801 21.2931L34.1776 23.9159C33.6992 24.3934 33.0792 24.7035 32.4101 24.7999C31.7411 24.8964 31.0588 24.7741 30.4649 24.4513L29.2153 23.2017L29.2147 23.2011C28.8919 22.6073 28.7696 21.9249 28.8661 21.2559C28.9626 20.5869 29.2727 19.9669 29.7501 19.4884L32.373 16.865C32.6637 16.5743 33.0089 16.3437 33.3888 16.1863C33.7686 16.029 34.1758 15.948 34.587 15.948C34.9982 15.948 35.4053 16.029 35.7852 16.1863C36.1651 16.3437 36.5102 16.5743 36.801 16.865C37.0917 17.1558 37.3224 17.501 37.4797 17.8809C37.6371 18.2607 37.7181 18.6679 37.7181 19.0791C37.7181 19.4903 37.6371 19.8974 37.4797 20.2773C37.3224 20.6572 37.0917 21.0023 36.801 21.2931Z" fill="#136BE1"/>
<path d="M32.5668 21.1006C32.4847 21.0186 32.3873 20.9535 32.2801 20.9091C32.1729 20.8647 32.058 20.8418 31.942 20.8418C31.826 20.8418 31.7111 20.8647 31.6038 20.9091C31.4966 20.9535 31.3992 21.0186 31.3172 21.1006L23.4329 28.9849C23.3508 29.067 23.2857 29.1644 23.2413 29.2716C23.1969 29.3788 23.1741 29.4937 23.1741 29.6097C23.1741 29.7257 23.1969 29.8406 23.2413 29.9479C23.2857 30.0551 23.3508 30.1525 23.4329 30.2345C23.5149 30.3166 23.6123 30.3817 23.7195 30.4261C23.8267 30.4705 23.9416 30.4933 24.0577 30.4933C24.1737 30.4933 24.2886 30.4705 24.3958 30.4261C24.503 30.3817 24.6004 30.3166 24.6825 30.2345L32.5668 22.3502C32.6488 22.2682 32.7139 22.1708 32.7583 22.0636C32.8028 21.9564 32.8256 21.8415 32.8256 21.7254C32.8256 21.6094 32.8028 21.4945 32.7583 21.3873C32.7139 21.2801 32.6488 21.1827 32.5668 21.1006Z" fill="#136BE1"/>
<path d="M22.8464 28.4998C22.7815 28.4998 22.7181 28.4805 22.6641 28.4445C22.6102 28.4084 22.5681 28.3572 22.5433 28.2972C22.5184 28.2372 22.512 28.1713 22.5246 28.1076C22.5373 28.044 22.5685 27.9855 22.6144 27.9396L22.8242 27.7299C22.8859 27.6692 22.9691 27.6354 23.0556 27.6357C23.1422 27.6361 23.2251 27.6707 23.2863 27.7319C23.3475 27.7931 23.382 27.876 23.3824 27.9626C23.3827 28.0491 23.3488 28.1323 23.2881 28.194L23.0785 28.4037C23.048 28.4342 23.0118 28.4584 22.972 28.4749C22.9322 28.4914 22.8895 28.4998 22.8464 28.4998Z" fill="#D4E1F4"/>
<path d="M19.8246 31.5204C19.7598 31.5204 19.6963 31.5011 19.6424 31.465C19.5884 31.429 19.5464 31.3777 19.5216 31.3178C19.4967 31.2579 19.4902 31.1919 19.5029 31.1282C19.5155 31.0646 19.5468 31.0061 19.5927 30.9603L21.6562 28.8968C21.7181 28.837 21.801 28.804 21.887 28.8047C21.973 28.8054 22.0553 28.84 22.1162 28.9008C22.177 28.9616 22.2115 29.0439 22.2122 29.13C22.213 29.216 22.1799 29.2989 22.1202 29.3608L20.0566 31.4242C20.0262 31.4548 19.99 31.479 19.9502 31.4955C19.9104 31.512 19.8677 31.5204 19.8246 31.5204Z" fill="#D4E1F4"/>
</g>
<path d="M57.0225 46.0113L55.3089 43.779L55.6922 41.0056L53.0767 39.9684L52.0395 37.3529L49.2661 37.7362L47.0113 36L44.779 37.7136L42.0056 37.3303L40.9684 39.9459L38.3529 40.9831L38.7362 43.7565L37 46.0113L38.7136 48.2435L38.3303 51.0169L40.9459 52.0541L41.9831 54.6697L44.7565 54.2864L46.9887 56L49.221 54.2864L51.9944 54.6697L53.0316 52.0541L55.6471 50.9944L55.2638 48.221L57.0225 46.0113ZM46.1995 49.2582L42.8625 46.5073L43.584 45.628L46.0643 47.6573L50.3033 42.7644L51.1601 43.5085L46.1995 49.2582Z" fill="#2FA500"/>
<defs>
<clipPath id="clip0_1768_26718">
<rect width="56" height="56" fill="white"/>
</clipPath>
</defs>
</svg>
